<svg xmlns="http://www.w3.org/2000/svg" xmlns:xlink="http://www.w3.org/1999/xlink" width="2000" zoomAndPan="magnify" viewBox="0 0 1500 1499.999933" height="2000" preserveAspectRatio="xMidYMid meet" version="1.0"><path fill="#fea855" d="M 1009.339844 898.832031 L 946.253906 942.476562 C 944.925781 963.046875 941.921875 983.492188 940.910156 1004.101562 C 940.097656 1020.601562 941.882812 1037.660156 939.308594 1054.039062 C 936.253906 1073.476562 925.390625 1095.796875 913.542969 1111.488281 C 898.355469 1131.601562 890.128906 1121.644531 870.769531 1124.046875 C 861.839844 1125.15625 854.621094 1131.023438 845.949219 1132.871094 C 834.988281 1135.199219 825.074219 1130.0625 814.234375 1130.136719 C 806.402344 1130.183594 799.046875 1134.890625 791.191406 1133.746094 C 780.597656 1132.191406 773.738281 1122.199219 762.1875 1122.503906 C 740.691406 1123.097656 718.535156 1131.242188 697.5 1135.175781 C 681.695312 1138.132812 663.726562 1140.5 647.8125 1137.53125 C 641.199219 1136.296875 633.367188 1134.105469 629.855469 1127.757812 C 617.539062 1105.472656 640.570312 1084.039062 650.941406 1066.785156 C 654.378906 1061.066406 657.484375 1055.101562 660.316406 1048.949219 C 660.636719 1046.351562 662.742188 1042.40625 665.082031 1037.808594 C 667.59375 1031.5 669.859375 1025.054688 671.96875 1018.519531 C 672.1875 1016.167969 672.054688 1013.824219 671.4375 1011.59375 C 666.472656 993.5 624.820312 960.445312 610.863281 952.914062 C 597.722656 945.816406 565.28125 1011.644531 553.65625 1002.265625 C 551.375 1000.425781 549.132812 998.542969 546.917969 996.617188 C 527.703125 1007.574219 506.742188 1016.042969 485.089844 1022.648438 C 466.417969 1028.355469 421.804688 1036.699219 407.421875 1046.632812 C 386.25 1061.277344 398.785156 1110.6875 370.324219 1117.292969 C 353.867188 1121.113281 331.859375 1107.210938 320.429688 1096.84375 C 295.636719 1074.339844 287.382812 1038.078125 281.238281 1006.429688 C 278.21875 990.875 275.410156 973.25 281.484375 958.105469 C 289.257812 938.691406 308.507812 932.835938 326.378906 926.109375 C 349.507812 917.394531 372.738281 908.59375 395.410156 898.734375 C 422.679688 886.851562 445.355469 869.476562 465.886719 849.449219 C 452.253906 759.96875 489.042969 666.359375 568.445312 611.429688 L 832.070312 429.058594 C 942.96875 352.347656 1095.015625 380.113281 1171.671875 491.089844 L 1171.980469 491.53125 C 1208.523438 544.429688 1222.578125 609.691406 1211.035156 672.953125 C 1202.671875 718.804688 1181.378906 760.867188 1150.167969 794.476562 C 1147.628906 797.226562 1145.007812 799.914062 1142.335938 802.539062 C 1145.488281 815.085938 1148.628906 827.644531 1151.164062 840.339844 C 1162.1875 895.628906 1175.527344 952.964844 1196.246094 1005.53125 C 1208.386719 1036.316406 1230.1875 1070.570312 1222.304688 1105.214844 C 1215.53125 1135.003906 1190.308594 1112.992188 1173.003906 1114.53125 C 1165.070312 1115.234375 1159.320312 1124.195312 1152.039062 1126.980469 C 1142.976562 1130.441406 1134.574219 1126.238281 1125.449219 1126.375 C 1107.355469 1126.648438 1097.304688 1137.949219 1080.210938 1123.527344 C 1063.558594 1109.476562 1057.992188 1088.5625 1052.4375 1068.425781 C 1043.925781 1037.585938 1035.488281 1006.996094 1026.398438 976.355469 C 1018.863281 950.96875 1014.132812 924.886719 1009.339844 898.832031 Z M 1009.339844 898.832031 " fill-opacity="1" fill-rule="evenodd"/><path fill="#060000" d="M 999.167969 914.054688 L 964.914062 940.058594 C 964.203125 940.589844 963.449219 941.035156 962.671875 941.378906 C 952.597656 1006.761719 940.738281 1071.46875 933.558594 1092.875 C 930.097656 1103.167969 925.859375 1113.988281 920.097656 1122.457031 C 914.8125 1130.222656 908.234375 1136.101562 900.214844 1138.996094 C 888.453125 1143.234375 873.167969 1141.707031 862.824219 1134.953125 C 862.710938 1134.878906 862.601562 1134.804688 862.503906 1134.730469 C 853.476562 1143.914062 839.582031 1147.957031 826.675781 1146.414062 C 819.175781 1145.515625 812.128906 1142.804688 806.5 1138.40625 C 793.261719 1145.492188 781.585938 1143.988281 772.175781 1137.777344 C 767.382812 1138.773438 754.710938 1141.253906 738.710938 1143.234375 C 727.785156 1144.605469 715.308594 1145.738281 702.746094 1146.007812 C 679.0625 1146.539062 655.042969 1144.285156 640.078125 1141.929688 C 632.605469 1140.757812 627.160156 1139.476562 624.648438 1138.539062 C 620.386719 1136.9375 618.613281 1134.324219 617.921875 1133.066406 C 617.636719 1132.550781 617.390625 1131.996094 617.207031 1131.417969 C 613.917969 1121.570312 614.71875 1111.203125 618.453125 1100.617188 C 624.5 1083.421875 638.847656 1065.332031 650.980469 1048.148438 C 657.679688 1038.648438 663.777344 1029.5625 666.203125 1021.058594 C 664.121094 1018.878906 660.128906 1014.773438 656.101562 1011.039062 C 644.28125 1000.070312 626.742188 984.144531 609.03125 964.007812 C 596.613281 978.761719 582.449219 991.28125 566.289062 1001.980469 C 548.097656 1014.035156 527.382812 1023.757812 503.773438 1031.695312 C 500.347656 1032.855469 459.148438 1045.140625 428.949219 1054.496094 C 417.839844 1057.933594 408.308594 1060.78125 403.292969 1062.445312 C 403.257812 1072.269531 404.648438 1090.117188 400.804688 1103.523438 C 397.898438 1113.695312 392.222656 1121.617188 383.21875 1125.289062 C 369.757812 1130.789062 356.246094 1129.828125 343.71875 1124.945312 C 326.683594 1118.316406 311.535156 1104.128906 301.621094 1090.917969 C 286.027344 1070.148438 270.410156 1039.78125 263.820312 1009.683594 C 258.96875 987.535156 259.066406 965.546875 266.765625 947.222656 C 270.597656 938.101562 280.832031 930.050781 296.339844 922.988281 C 323.445312 910.640625 368.265625 898.96875 410.300781 873.148438 C 426.660156 863.101562 442.582031 850.878906 456.785156 835.496094 C 454.285156 805.238281 459.457031 773.105469 470.027344 742.726562 C 481.6875 709.152344 499.90625 677.738281 521.273438 653.382812 C 525.007812 649.117188 531.496094 648.6875 535.757812 652.433594 C 540.019531 656.167969 540.4375 662.664062 536.707031 666.929688 C 516.976562 689.421875 500.1875 718.46875 489.410156 749.480469 C 478.757812 780.105469 473.941406 812.683594 478.242188 842.71875 C 479.054688 848.324219 475.148438 853.539062 469.53125 854.339844 C 468.71875 854.453125 467.917969 854.476562 467.132812 854.402344 C 452.832031 868.921875 437.140625 880.777344 421.042969 890.660156 C 384.820312 912.910156 346.636719 925.074219 318.828125 935.871094 C 309.269531 939.589844 301.03125 943.09375 294.738281 946.898438 C 290.414062 949.511719 287.050781 951.941406 285.695312 955.183594 C 279.511719 969.875 279.980469 987.535156 283.875 1005.296875 C 289.824219 1032.449219 303.960938 1059.832031 318.027344 1078.578125 C 324.652344 1087.402344 334.089844 1096.917969 344.976562 1102.898438 C 354.359375 1108.046875 364.914062 1110.574219 375.472656 1106.261719 C 378.710938 1104.941406 380.027344 1101.539062 381.074219 1097.878906 C 384.808594 1084.828125 382.492188 1067.042969 382.847656 1059.03125 C 383.167969 1051.722656 386.59375 1047.78125 388.699219 1046.449219 C 389.980469 1045.636719 399.253906 1042.269531 412.199219 1038.191406 C 442.078125 1028.800781 493.402344 1013.515625 497.234375 1012.234375 C 519.019531 1004.902344 538.171875 995.976562 554.972656 984.847656 C 570.480469 974.582031 583.964844 962.429688 595.652344 947.960938 C 574.222656 920.671875 554.628906 887.347656 547.101562 849.347656 C 538.726562 807 544.921875 758.859375 579.851562 706.773438 C 583.003906 702.066406 589.382812 700.808594 594.089844 703.964844 C 598.792969 707.132812 600.050781 713.515625 596.898438 718.222656 C 565.722656 764.703125 559.761719 807.566406 567.238281 845.355469 C 574.457031 881.824219 593.804688 913.5625 614.695312 939.285156 C 614.769531 939.332031 614.84375 939.394531 614.917969 939.445312 C 616.394531 940.539062 617.503906 941.957031 618.191406 943.523438 C 637.371094 966.375 657.335938 984.183594 670.058594 995.976562 C 677.855469 1003.199219 683.222656 1008.671875 685.183594 1011.890625 C 687.289062 1015.328125 687.546875 1018.324219 687.300781 1020.429688 C 687.289062 1020.578125 687.265625 1020.738281 687.238281 1020.886719 C 685.476562 1031.71875 679 1043.625 670.648438 1055.828125 C 661.324219 1069.460938 649.6875 1083.683594 642.222656 1097.644531 C 638.058594 1105.4375 635.03125 1113.015625 635.707031 1120.273438 C 635.878906 1120.3125 636.050781 1120.347656 636.222656 1120.386719 C 648.628906 1122.949219 675.675781 1126.066406 702.289062 1125.476562 C 714.125 1125.21875 725.875 1124.132812 736.171875 1122.851562 C 744.105469 1121.863281 751.175781 1120.753906 756.765625 1119.792969 C 750.300781 1107.011719 747.972656 1091.101562 751.125 1079.195312 C 754.695312 1065.738281 760.066406 1037.082031 766.003906 1002.609375 C 776.203125 943.523438 788 867.527344 795.253906 820.890625 C 796.117188 815.28125 801.375 811.449219 806.96875 812.3125 C 812.570312 813.1875 816.402344 818.4375 815.527344 824.046875 C 808.273438 870.769531 796.4375 946.898438 786.238281 1006.097656 C 780.15625 1041.371094 774.625 1070.703125 770.96875 1084.472656 C 768.628906 1093.269531 771.25 1105.460938 777.015625 1114 C 779.527344 1117.734375 782.644531 1120.84375 786.558594 1121.964844 C 789.121094 1122.703125 791.929688 1122.433594 794.996094 1121.148438 C 794.859375 1120.679688 794.75 1120.199219 794.640625 1119.707031 C 793.335938 1113.867188 793.273438 1107.507812 794.074219 1100.925781 C 795.539062 1088.785156 800.023438 1075.769531 802.902344 1064.703125 C 804.332031 1059.21875 809.949219 1055.925781 815.429688 1057.355469 C 820.910156 1058.785156 824.199219 1064.40625 822.769531 1069.890625 C 820.457031 1078.789062 816.945312 1089.007812 815.132812 1098.929688 C 814.085938 1104.648438 813.558594 1110.242188 814.679688 1115.234375 C 816.167969 1121.976562 822.535156 1125.230469 829.113281 1126.019531 C 836.269531 1126.867188 844.214844 1124.910156 848.746094 1119.351562 C 849.203125 1118.796875 849.695312 1118.289062 850.234375 1117.859375 C 849.597656 1115.210938 849.324219 1112.351562 849.484375 1109.292969 C 849.855469 1102.253906 851.074219 1094.058594 853.042969 1086.132812 C 855.125 1077.777344 858.070312 1069.730469 861.667969 1063.445312 C 864.488281 1058.527344 870.753906 1056.828125 875.667969 1059.648438 C 880.585938 1062.457031 882.296875 1068.746094 879.476562 1073.660156 C 876.714844 1078.480469 874.5625 1084.691406 872.960938 1091.101562 C 871.320312 1097.707031 870.289062 1104.511719 869.980469 1110.390625 C 869.746094 1114.851562 872.960938 1117.589844 876.703125 1119.140625 C 881.816406 1121.273438 888.171875 1121.507812 893.257812 1119.671875 C 897.347656 1118.191406 900.425781 1114.863281 903.125 1110.894531 C 907.890625 1103.882812 911.226562 1094.859375 914.097656 1086.332031 C 921.265625 1064.949219 933.039062 999.417969 943.015625 934.121094 C 953.535156 865.40625 962.15625 796.957031 960.839844 780.859375 C 960.371094 775.214844 964.570312 770.246094 970.222656 769.792969 C 975.863281 769.324219 980.828125 773.527344 981.285156 779.183594 C 982.480469 793.675781 976.136719 849.433594 967.28125 910.542969 L 1107.257812 804.289062 C 1131.691406 785.738281 1151.941406 762.71875 1167.140625 736.722656 C 1182.328125 710.730469 1192.4375 681.78125 1196.613281 651.363281 C 1200.789062 620.957031 1199.964844 590.871094 1193.449219 562.277344 C 1186.957031 533.730469 1174.777344 506.667969 1156.277344 482.25 C 1152.59375 477.394531 1153.542969 470.46875 1158.394531 466.785156 C 1163.25 463.097656 1170.171875 464.058594 1173.851562 468.914062 C 1194.3125 495.894531 1207.785156 525.808594 1214.964844 557.371094 C 1222.058594 588.503906 1223.019531 621.265625 1218.476562 654.367188 C 1213.90625 687.683594 1202.820312 719.394531 1186.183594 747.867188 C 1176.179688 764.984375 1164.183594 780.921875 1150.378906 795.328125 C 1152.335938 803.253906 1154.394531 811.4375 1156.535156 819.820312 C 1184.753906 930.164062 1227.589844 1073.488281 1234.191406 1093.777344 C 1240.757812 1113.941406 1231.296875 1128.828125 1216.691406 1135.632812 C 1203.878906 1141.597656 1186.550781 1140.859375 1173.003906 1130.789062 C 1170.515625 1128.925781 1168.199219 1126.832031 1166.054688 1124.527344 C 1159.984375 1132.117188 1151.140625 1136.507812 1141.816406 1137.53125 C 1135.117188 1138.257812 1128.207031 1137.210938 1122 1134.410156 C 1121.421875 1134.953125 1120.742188 1135.445312 1120.015625 1135.855469 C 1100.507812 1146.761719 1084.1875 1142.460938 1070.960938 1131.390625 C 1054.296875 1117.441406 1043.164062 1090.71875 1037.988281 1074.710938 C 1029.464844 1048.308594 1014.957031 990.0625 1003.898438 937.386719 C 1002.222656 929.4375 1000.632812 921.621094 999.167969 914.054688 Z M 1133.28125 811.585938 C 1129.167969 815.148438 1124.945312 818.574219 1120.597656 821.875 L 1017.394531 900.226562 C 1019.355469 910.664062 1021.597656 921.769531 1023.984375 933.15625 C 1034.875 985.035156 1049.136719 1042.40625 1057.523438 1068.398438 C 1061.796875 1081.636719 1070.355469 1104.105469 1084.140625 1115.640625 C 1090.027344 1120.570312 1097.097656 1122.898438 1105.359375 1120.027344 C 1100.335938 1113.386719 1096.320312 1106.050781 1093.242188 1098.347656 C 1089.261719 1088.425781 1086.8125 1077.902344 1085.640625 1067.5625 C 1085 1061.929688 1089.054688 1056.839844 1094.695312 1056.199219 C 1100.324219 1055.570312 1105.410156 1059.625 1106.039062 1065.257812 C 1107.011719 1073.796875 1109.007812 1082.5 1112.28125 1090.707031 C 1115.421875 1098.519531 1119.734375 1105.878906 1125.484375 1112.140625 C 1129.121094 1116.097656 1134.527344 1117.648438 1139.601562 1117.105469 C 1144.476562 1116.578125 1149.160156 1114.039062 1151.585938 1109.269531 C 1152.199219 1108.0625 1153.027344 1107.027344 1154 1106.175781 C 1153.566406 1105.261719 1153.148438 1104.339844 1152.742188 1103.402344 C 1146.511719 1088.980469 1143.34375 1072.28125 1141.152344 1058.808594 C 1140.242188 1053.214844 1144.046875 1047.941406 1149.640625 1047.027344 C 1155.230469 1046.117188 1160.5 1049.925781 1161.414062 1055.519531 C 1163.359375 1067.511719 1166.03125 1082.414062 1171.574219 1095.242188 C 1174.875 1102.847656 1179.136719 1109.75 1185.257812 1114.296875 C 1192.328125 1119.558594 1201.34375 1120.128906 1208.019531 1117.007812 C 1213.855469 1114.285156 1217.292969 1108.195312 1214.667969 1100.136719 C 1208.042969 1079.761719 1164.996094 935.769531 1136.65625 824.910156 C 1135.5 820.421875 1134.378906 815.972656 1133.28125 811.585938 Z M 1146.769531 563.816406 C 1147.015625 558.148438 1151.820312 553.75 1157.472656 553.996094 C 1163.136719 554.242188 1167.523438 559.046875 1167.277344 564.703125 L 1166.90625 574.480469 C 1166.90625 574.492188 1166.90625 574.503906 1166.90625 574.515625 L 1166.449219 585.261719 C 1166.203125 590.933594 1161.414062 595.332031 1155.746094 595.085938 C 1150.09375 594.839844 1145.699219 590.046875 1145.945312 584.386719 L 1146.398438 573.652344 Z M 1061.355469 560.132812 C 1061.601562 554.476562 1066.390625 550.074219 1072.058594 550.320312 C 1077.710938 550.566406 1082.105469 555.363281 1081.859375 561.03125 L 1081.492188 570.792969 C 1081.492188 570.804688 1081.492188 570.816406 1081.492188 570.832031 L 1081.023438 581.589844 C 1080.777344 587.246094 1075.984375 591.648438 1070.332031 591.402344 C 1064.667969 591.167969 1060.269531 586.359375 1060.515625 580.703125 L 1060.972656 569.980469 Z M 1126.925781 637.941406 C 1132.074219 635.574219 1138.171875 637.839844 1140.535156 642.992188 C 1142.902344 648.144531 1140.636719 654.246094 1135.5 656.613281 C 1131.964844 658.226562 1128.320312 659.347656 1124.609375 660.085938 C 1119.4375 661.097656 1114.128906 661.355469 1108.796875 661.183594 C 1097.34375 660.800781 1086.46875 657.980469 1076.527344 653.171875 C 1066.738281 648.441406 1057.84375 641.785156 1050.171875 633.636719 C 1046.289062 629.496094 1046.5 623 1050.613281 619.121094 C 1054.753906 615.238281 1061.242188 615.433594 1065.136719 619.5625 C 1071.046875 625.847656 1077.894531 631.023438 1085.445312 634.671875 C 1092.859375 638.246094 1100.953125 640.367188 1109.472656 640.652344 C 1112.652344 640.75 1115.816406 640.675781 1118.921875 640.21875 C 1121.65625 639.824219 1124.351562 639.121094 1126.925781 637.941406 Z M 1126.925781 637.941406 " fill-opacity="1" fill-rule="evenodd"/></svg>