<svg xmlns="http://www.w3.org/2000/svg" xmlns:xlink="http://www.w3.org/1999/xlink" width="2000" zoomAndPan="magnify" viewBox="0 0 1500 1499.999933" height="2000" preserveAspectRatio="xMidYMid meet" version="1.0"><path fill="#fea855" d="M 540.226562 714.757812 C 538.679688 716.335938 537.125 717.894531 535.542969 719.429688 C 523.066406 731.554688 508.242188 729.304688 492.015625 727.917969 C 485.175781 727.332031 476.792969 725.023438 470.195312 727.863281 C 464.808594 730.167969 467.414062 736.964844 466.953125 741.613281 C 466.238281 748.789062 462.445312 756.957031 455.800781 760.347656 C 446.769531 764.953125 434.707031 763.441406 425.433594 760.476562 C 421.730469 759.289062 418.074219 757.222656 414.1875 756.796875 C 410.519531 756.390625 407.542969 758.722656 404.371094 760.152344 C 400.289062 762.011719 395.675781 763.347656 391.199219 763.753906 C 382.203125 764.558594 377.335938 757.027344 369.332031 755.125 C 364.925781 754.085938 359.113281 757.351562 354.742188 757.867188 C 345.226562 759.011719 336.253906 750.359375 332.503906 742.304688 C 328.066406 732.765625 329.898438 721.585938 332.230469 711.734375 C 337.996094 687.496094 351.652344 670.15625 373.910156 659.082031 C 384.417969 653.84375 394.996094 648.5 406.414062 645.523438 C 444.878906 635.511719 485.613281 639.746094 524.75 640.402344 C 532.683594 640.53125 540.675781 640.035156 548.65625 639.492188 L 566.175781 483.308594 C 576.234375 393.75 636.71875 322.105469 716.136719 293.527344 C 713.625 311.628906 741.375 331.425781 753.644531 340.597656 C 780.242188 360.464844 812.203125 376.640625 842.328125 390.449219 C 855.335938 396.414062 869.179688 401.132812 881.820312 407.867188 C 895.453125 415.125 907.722656 425.914062 913.917969 440.308594 C 919.777344 453.898438 918.390625 477.308594 938.933594 477.574219 C 953.292969 477.769531 968.976562 468.816406 979.035156 459.242188 C 989.910156 448.871094 998.238281 435.578125 1004.007812 421.113281 C 1018.320312 456.035156 1023.820312 494.3125 1019.542969 532.5 L 985.75 833.78125 C 985.597656 835.085938 985.449219 836.386719 985.273438 837.691406 C 979.761719 880.132812 962.449219 919.855469 935.691406 952.527344 C 936.117188 960.269531 936.707031 967.996094 937.710938 975.683594 C 942.714844 1013.625 951.390625 1051.304688 958.253906 1088.960938 C 961.65625 1107.570312 962.382812 1125.992188 964.203125 1144.761719 C 964.835938 1151.304688 967.582031 1162.21875 964.191406 1168.539062 C 956.878906 1182.140625 938.460938 1184.53125 924.699219 1185.546875 C 912.152344 1186.46875 899.394531 1185.589844 886.789062 1186.226562 C 861.425781 1187.519531 837.792969 1189.480469 812.386719 1186.46875 C 801.507812 1185.175781 791.082031 1182.269531 780.09375 1181.875 C 777.53125 1181.785156 769.792969 1182.960938 767.832031 1180.144531 C 763.496094 1173.949219 768.417969 1162.738281 771.304688 1156.992188 C 779.261719 1141.152344 799.515625 1127.746094 800 1108.722656 C 800.632812 1084.160156 790.171875 1059.230469 785.121094 1034.425781 C 769.089844 1036.214844 752.792969 1036.316406 736.507812 1034.632812 C 735.824219 1034.566406 735.144531 1034.496094 734.464844 1034.414062 C 733.820312 1034.34375 733.183594 1034.277344 732.550781 1034.195312 C 726.644531 1046.273438 721.441406 1058.6875 716.171875 1071.078125 C 710.242188 1085.027344 703.96875 1098.464844 699.875 1113.105469 C 696.171875 1126.328125 691.363281 1138.902344 686.394531 1151.683594 C 684.269531 1157.1875 683.035156 1163.71875 677.59375 1166.914062 C 661.074219 1176.617188 638.480469 1173.410156 620.570312 1170.984375 C 599.058594 1168.066406 577.355469 1166.09375 555.636719 1165.738281 C 546.511719 1165.585938 537.191406 1165.644531 528.140625 1164.304688 C 523.882812 1163.683594 519.167969 1162.804688 518.382812 1157.847656 C 516.859375 1148.132812 524.921875 1139.976562 532.003906 1134.714844 C 545.40625 1124.722656 563.640625 1118.296875 572.082031 1103.023438 C 582.945312 1083.375 586.382812 1059.125 591.089844 1037.449219 C 595.566406 1016.796875 599.453125 995.753906 604.941406 975.289062 C 600.445312 971.125 596.117188 966.796875 591.964844 962.300781 C 548.542969 915.230469 525.023438 850.265625 532.71875 781.621094 Z M 540.226562 714.757812 " fill-opacity="1" fill-rule="evenodd"/><path fill="#060000" d="M 589.625 974.445312 C 589.523438 974.34375 589.417969 974.226562 589.3125 974.125 C 585.347656 970.015625 585.449219 963.476562 589.542969 959.507812 C 593.652344 955.539062 600.191406 955.640625 604.15625 959.738281 C 621.480469 977.644531 641.652344 992.492188 664.191406 1003.519531 C 685.929688 1014.167969 709.886719 1021.261719 735.617188 1024.148438 C 743.554688 1025.035156 750.40625 1025.484375 757.21875 1025.496094 C 762.167969 1025.507812 767.105469 1025.289062 772.421875 1024.828125 C 772.308594 1024.191406 772.203125 1023.546875 772.085938 1022.902344 C 704.8125 979.257812 643.1875 934.101562 578.863281 890.125 C 551.5625 871.460938 523.769531 853.011719 494.839844 834.980469 C 490.4375 834.714844 486.527344 834.496094 483.191406 834.300781 C 482.421875 837.378906 481.75 840.195312 481.21875 842.699219 C 480.988281 843.792969 480.78125 844.972656 480.609375 846.054688 C 492.789062 851.628906 498.832031 862.183594 501.128906 874.792969 C 503.214844 886.179688 501.832031 899.457031 499.972656 910.9375 C 506.964844 920.777344 512.855469 932.164062 517.539062 944.832031 C 532.257812 984.667969 534.910156 1037.277344 521.613281 1091.753906 C 508.324219 1146.226562 481.726562 1191.683594 450.320312 1220.257812 C 420.621094 1247.289062 386.507812 1259.324219 354.570312 1251.523438 C 322.644531 1243.726562 297.90625 1217.316406 283.984375 1179.648438 C 269.277344 1139.8125 266.613281 1087.207031 279.914062 1032.730469 C 293.210938 978.253906 319.796875 932.800781 351.203125 904.222656 C 372.722656 884.644531 396.550781 872.9375 420.195312 870.929688 C 426.46875 861.859375 433.03125 854.523438 439.734375 849.457031 C 446.941406 844.023438 454.429688 841.003906 462.039062 840.597656 C 462.15625 839.976562 462.28125 839.339844 462.421875 838.695312 C 467.4375 815.136719 484.472656 763.417969 490.910156 736.539062 C 484.820312 735.949219 478.742188 735.328125 472.652344 734.796875 C 473.054688 735.394531 473.457031 735.996094 473.839844 736.59375 C 476.894531 741.40625 478.855469 746.21875 478.867188 750.980469 C 478.878906 756.160156 477.011719 761.734375 470.527344 767.375 L 463.757812 772.152344 C 462.003906 773.097656 460.160156 773.941406 458.28125 774.65625 C 456.398438 775.359375 454.472656 775.945312 452.546875 776.398438 C 441.464844 778.980469 429.167969 776.652344 419.125 770.675781 C 418.292969 770.179688 417.472656 769.671875 416.679688 769.128906 C 408.882812 775.554688 398.894531 777.804688 389.03125 776.5 C 383.496094 775.773438 378.027344 773.882812 373.09375 770.996094 C 359.066406 774.585938 347.429688 772.277344 338.480469 766.53125 C 327.914062 759.75 320.84375 747.796875 318.503906 733.25 C 313.878906 704.59375 327.859375 665.367188 366.851562 644.476562 C 385.78125 634.335938 410.726562 629.640625 438.316406 627.976562 C 473.699219 625.84375 513.59375 628.65625 549.765625 629.71875 L 547.621094 648.789062 C 512.328125 647.660156 473.78125 645.097656 439.46875 647.175781 C 414.984375 648.640625 392.734375 652.421875 375.929688 661.421875 C 351.351562 674.597656 339.070312 696.816406 337.128906 716.742188 C 335.734375 731.070312 339.4375 744.300781 348.859375 750.347656 C 351.144531 751.8125 353.726562 752.769531 356.597656 753.207031 C 352.945312 745.546875 351.71875 737.519531 352.148438 729.417969 C 352.78125 717.605469 357.0625 705.628906 361.628906 694.949219 C 363.714844 690.066406 369.367188 687.804688 374.246094 689.882812 C 379.125 691.972656 381.398438 697.636719 379.308594 702.503906 C 376.171875 709.839844 373.046875 717.871094 371.8125 725.980469 C 370.761719 732.859375 371.085938 739.800781 374.625 746.226562 C 378.097656 752.527344 384.765625 756.542969 391.546875 757.441406 C 395.652344 757.972656 399.851562 757.304688 403.300781 755.042969 C 401.109375 751.304688 399.515625 747.21875 398.695312 742.882812 C 397.625 737.195312 397.914062 731.359375 398.949219 725.542969 C 400.21875 718.414062 402.699219 711.320312 404.335938 704.671875 C 405.605469 699.527344 410.820312 696.378906 415.976562 697.660156 C 421.117188 698.929688 424.265625 704.144531 423 709.289062 C 421.453125 715.539062 419.066406 722.21875 417.867188 728.921875 C 417.242188 732.40625 416.945312 735.902344 417.589844 739.316406 C 418.121094 742.144531 419.320312 744.730469 420.96875 747.011719 C 421.015625 747.046875 421.050781 747.070312 421.097656 747.09375 C 422.722656 748.097656 423.957031 749.503906 424.730469 751.109375 C 426.019531 752.238281 427.4375 753.253906 428.9375 754.140625 C 434.738281 757.59375 441.785156 759.160156 448.1875 757.671875 L 454.601562 755.238281 L 457.921875 752.863281 C 459.007812 751.90625 459.800781 751.375 459.515625 750.507812 C 458.753906 748.191406 457 745.953125 455.375 743.515625 C 452.941406 739.894531 450.5625 736.066406 449.109375 731.96875 C 446.113281 723.445312 447 712.714844 451.53125 705.421875 C 455.476562 699.054688 461.808594 694.855469 470.527344 695.132812 C 475.835938 695.304688 479.996094 699.746094 479.835938 705.054688 C 479.664062 710.347656 475.222656 714.527344 469.917969 714.351562 C 469.109375 714.328125 468.523438 714.640625 468.082031 715.125 C 480.4375 716.070312 492.765625 717.523438 505.117188 718.507812 C 510.78125 718.957031 516.457031 719.300781 522.128906 719.429688 C 528.253906 698.558594 542.972656 677.597656 568 664.191406 C 581.355469 657.039062 597.953125 652.355469 616.511719 649.320312 C 674.59375 639.835938 753.089844 646.703125 806.132812 634.058594 C 811.289062 632.824219 816.480469 636.019531 817.714844 641.175781 C 818.9375 646.34375 815.753906 651.535156 810.585938 652.757812 C 763.921875 663.890625 697.765625 660.269531 642.65625 665.414062 C 617.144531 667.800781 594.113281 672.011719 577.078125 681.136719 C 552.5 694.3125 540.214844 716.53125 538.277344 736.457031 C 536.882812 750.785156 540.585938 764.019531 550.007812 770.0625 C 552.289062 771.527344 554.875 772.484375 557.757812 772.925781 C 554.089844 765.265625 552.867188 757.234375 553.292969 749.136719 C 553.929688 737.320312 558.207031 725.347656 562.773438 714.664062 C 564.863281 709.785156 570.515625 707.523438 575.394531 709.597656 C 580.273438 711.6875 582.542969 717.339844 580.457031 722.21875 C 577.320312 729.558594 574.195312 737.585938 572.960938 745.699219 C 571.910156 752.574219 572.234375 759.519531 575.773438 765.945312 C 579.246094 772.242188 585.910156 776.257812 592.691406 777.160156 C 596.800781 777.6875 600.996094 777.019531 604.445312 774.757812 C 602.253906 771.019531 600.664062 766.9375 599.84375 762.597656 C 598.769531 756.910156 599.058594 751.074219 600.097656 745.246094 C 601.367188 738.128906 603.847656 731.035156 605.484375 724.390625 C 606.753906 719.242188 611.964844 716.09375 617.121094 717.363281 C 622.265625 718.644531 625.414062 723.859375 624.144531 729.003906 C 622.601562 735.257812 620.210938 741.9375 619.011719 748.640625 C 618.390625 752.125 618.089844 755.621094 618.734375 759.035156 C 619.265625 761.859375 620.464844 764.445312 622.117188 766.730469 C 622.160156 766.765625 622.195312 766.785156 622.242188 766.808594 C 623.867188 767.8125 625.101562 769.222656 625.875 770.824219 C 627.167969 771.957031 628.585938 772.96875 630.085938 773.859375 C 635.886719 777.308594 642.933594 778.878906 649.335938 777.390625 L 655.746094 774.953125 L 659.058594 772.578125 C 660.152344 771.621094 660.949219 771.089844 660.660156 770.226562 C 659.898438 767.90625 658.148438 765.667969 656.519531 763.234375 C 654.085938 759.609375 651.710938 755.78125 650.257812 751.675781 C 647.257812 743.160156 648.148438 732.429688 652.679688 725.128906 C 656.625 718.769531 662.957031 714.570312 671.675781 714.847656 C 676.980469 715.023438 681.144531 719.464844 680.984375 724.769531 C 680.808594 730.066406 676.371094 734.242188 671.074219 734.070312 C 668.964844 734 668.367188 736.15625 667.972656 738.050781 C 667.535156 740.078125 667.570312 742.304688 668.101562 744.324219 C 700.128906 754.742188 736.378906 763.058594 771.476562 768.285156 C 810.78125 774.125 848.613281 776.109375 877.320312 772.601562 C 897.054688 770.191406 925.945312 759.980469 947.191406 740.136719 C 964.226562 724.238281 976.210938 701.960938 973.824219 672.265625 C 973.394531 666.984375 977.339844 662.34375 982.632812 661.917969 C 987.917969 661.492188 992.554688 665.4375 992.980469 670.730469 C 993.082031 671.976562 993.164062 673.222656 993.222656 674.457031 L 1009.992188 524.941406 C 1011.964844 507.351562 1011.710938 490.023438 1009.449219 473.234375 C 1007.984375 462.414062 1005.691406 451.824219 1002.621094 441.542969 C 1002.4375 441.925781 1002.242188 442.316406 1002.046875 442.710938 C 999.601562 447.589844 996.484375 452.101562 992.921875 456.242188 C 989.484375 460.222656 985.632812 463.84375 981.550781 467.121094 C 975.773438 471.746094 969.335938 475.449219 962.507812 478.070312 C 962.300781 478.152344 962.09375 478.21875 961.886719 478.300781 C 961.699219 479.097656 961.425781 479.871094 961.03125 480.621094 C 958.597656 485.292969 955.839844 489.800781 952.714844 494.035156 C 949.519531 498.386719 945.933594 502.445312 941.933594 506.105469 C 939.554688 508.261719 937.066406 510.304688 934.457031 512.21875 C 931.863281 514.121094 929.152344 515.886719 926.371094 517.492188 C 919.925781 521.230469 914.195312 523.351562 909.039062 524.261719 C 905.761719 539.15625 901.910156 553.394531 897.148438 568.007812 C 892.082031 583.515625 885.992188 599.457031 878.496094 617.085938 C 876.410156 621.96875 870.757812 624.238281 865.878906 622.164062 C 861 620.085938 858.726562 614.433594 860.804688 609.554688 C 868.070312 592.492188 873.976562 577.054688 878.867188 562.046875 C 883.261719 548.558594 886.847656 535.417969 889.902344 521.722656 C 885.738281 519.707031 881.898438 516.71875 878.277344 512.921875 C 873.375 507.777344 868.773438 500.992188 863.769531 493.574219 C 853.5625 478.472656 845.671875 462.507812 840.183594 445.800781 C 835.085938 430.308594 832.050781 414.203125 831.140625 397.566406 C 828.589844 396.449219 826.019531 395.292969 823.421875 394.082031 C 805.671875 385.878906 787.035156 375.820312 771.0625 364.503906 C 751.328125 350.53125 732.929688 339.25 721.617188 328.578125 C 710.992188 318.550781 706.160156 308.386719 707.765625 298.0625 C 708.03125 296.355469 708.757812 294.75 709.851562 293.425781 C 740.265625 256.542969 791.578125 241.015625 842.960938 242.269531 C 895.542969 243.5625 947.847656 262.414062 976.996094 291.960938 C 997.421875 312.679688 1011.539062 336.339844 1016.128906 362.828125 C 1018.828125 378.414062 1018.25 395.003906 1013.613281 412.609375 C 1014.363281 413.453125 1014.972656 414.445312 1015.425781 415.550781 C 1022.425781 432.996094 1027.351562 451.410156 1029.921875 470.46875 C 1032.414062 488.902344 1032.691406 507.925781 1030.523438 527.25 L 1029.886719 532.9375 C 1054.476562 531.703125 1085.214844 540.5625 1107.878906 566.578125 C 1124.519531 585.683594 1136.964844 614.226562 1138.625 655.308594 C 1138.660156 656.324219 1138.84375 662.390625 1132.050781 664.859375 C 1131.511719 665.066406 1130.335938 665.414062 1128.71875 665.839844 C 1123.253906 667.269531 1111.117188 670.109375 1105.824219 671.332031 C 1106.308594 697.507812 1103.253906 725.371094 1097.980469 751.605469 C 1095.722656 762.898438 1092.617188 776.664062 1087.371094 788.960938 C 1083.472656 798.050781 1078.398438 806.335938 1071.824219 812.621094 C 1062.574219 821.460938 1050.441406 827.378906 1037.164062 831.171875 C 1023.75 834.992188 1009.171875 836.640625 995.738281 837.332031 C 993.523438 855.34375 989.289062 872.902344 983.175781 889.699219 L 1005.355469 907.648438 C 1018.125 883.527344 1033.636719 863.09375 1050.542969 847.589844 C 1080.175781 820.421875 1114.210938 808.296875 1146.03125 816.070312 C 1177.839844 823.835938 1202.476562 850.289062 1216.257812 888.046875 C 1230.769531 927.828125 1233.316406 980.320312 1220.042969 1034.703125 C 1206.777344 1089.085938 1180.34375 1134.496094 1149.132812 1163.105469 C 1119.503906 1190.277344 1085.46875 1202.402344 1053.648438 1194.625 C 1021.824219 1186.859375 997.203125 1160.40625 983.417969 1122.648438 C 973.246094 1094.785156 968.957031 1060.683594 971.863281 1024.066406 L 952.867188 1023.628906 C 953.835938 1030.839844 954.882812 1038.039062 956.050781 1045.167969 C 959.832031 1068.320312 963.789062 1091.1875 967.363281 1111.214844 C 974.15625 1149.296875 979.53125 1177.113281 979.53125 1177.113281 C 980.050781 1179.789062 979.417969 1182.546875 977.777344 1184.726562 C 976.152344 1186.894531 973.671875 1188.269531 970.960938 1188.523438 C 970.960938 1188.523438 862.613281 1198.257812 800.792969 1198.652344 C 781.683594 1198.777344 766.746094 1197.84375 759.953125 1195.800781 C 754.441406 1194.140625 751.671875 1191.058594 750.519531 1188.695312 C 746.703125 1180.882812 747.453125 1172.761719 751.59375 1164.492188 C 756.792969 1154.121094 768.386719 1143.171875 777.417969 1132.28125 C 782.121094 1126.59375 786.445312 1121.226562 786.320312 1115.5625 C 786.171875 1108.769531 781.890625 1081.160156 775.882812 1045.28125 C 769.273438 1045.882812 763.242188 1046.183594 757.1875 1046.171875 C 749.769531 1046.160156 742.308594 1045.6875 733.703125 1044.730469 C 731.628906 1052.191406 729.414062 1060.039062 727.164062 1068 C 713.519531 1116.199219 698.109375 1168.886719 698.109375 1168.886719 C 696.980469 1172.726562 693.601562 1175.460938 689.597656 1175.761719 C 689.597656 1175.761719 598.828125 1182.570312 548.578125 1179.175781 C 537.191406 1178.414062 527.757812 1177.078125 521.542969 1175.164062 C 517.632812 1173.960938 514.679688 1172.417969 512.695312 1170.835938 C 508.980469 1167.871094 507.472656 1164.304688 507.367188 1160.671875 C 507.054688 1148.871094 511.242188 1139.835938 517.714844 1132.59375 C 525.660156 1123.6875 537.527344 1117.722656 547.78125 1112.53125 C 551.632812 1110.578125 555.199219 1108.78125 557.953125 1106.820312 C 559.050781 1106.035156 560.097656 1105.457031 560.492188 1104.535156 C 563.410156 1097.625 569.371094 1071.792969 575.738281 1042.269531 C 580.617188 1019.636719 585.65625 994.855469 589.625 974.445312 Z M 1027.707031 552.367188 L 997.917969 817.964844 C 1009.082031 817.269531 1020.925781 815.804688 1031.894531 812.679688 C 1034.003906 812.078125 1036.070312 811.421875 1038.089844 810.695312 C 1036.910156 810.429688 1035.746094 810.117188 1034.617188 809.738281 C 1024.535156 806.425781 1016.082031 798.871094 1012.296875 785.394531 C 1011.078125 781.082031 1011.664062 769.488281 1013.71875 755.746094 C 1017.546875 730.191406 1025.183594 696.042969 1025.183594 696.042969 C 1025.769531 693.4375 1027.40625 691.1875 1029.714844 689.835938 C 1032.007812 688.488281 1034.777344 688.164062 1037.328125 688.925781 C 1037.328125 688.925781 1048.964844 692.363281 1064.304688 691.832031 C 1071.179688 691.589844 1078.800781 690.5625 1086.449219 688.015625 C 1086.933594 675.195312 1086.609375 662.621094 1085.308594 650.691406 C 1082.816406 627.910156 1076.839844 607.535156 1065.515625 592.964844 C 1062.261719 588.777344 1063.023438 582.730469 1067.210938 579.476562 C 1071.398438 576.222656 1077.441406 576.984375 1080.691406 581.171875 C 1093.957031 598.234375 1101.5 621.910156 1104.417969 648.605469 C 1104.53125 649.679688 1104.636719 650.761719 1104.742188 651.847656 C 1108.871094 650.878906 1114.476562 649.5625 1118.960938 648.464844 C 1116.46875 616.984375 1106.714844 594.519531 1093.390625 579.210938 C 1074.1875 557.175781 1047.832031 550.335938 1027.707031 552.367188 Z M 714.546875 1041.855469 C 693.441406 1037.816406 673.554688 1031.117188 655.113281 1022.09375 C 637.398438 1013.417969 621.019531 1002.609375 606.175781 989.953125 C 601.5625 1013.164062 596.015625 1039.917969 590.984375 1062.496094 C 585.625 1086.570312 580.734375 1106.011719 578.195312 1112.023438 C 575.878906 1117.523438 569.84375 1122.601562 561.519531 1127.078125 C 552.347656 1131.992188 539.777344 1136.734375 532.050781 1145.398438 C 529.351562 1148.433594 527.390625 1152.042969 526.777344 1156.507812 C 528.519531 1157.0625 531.105469 1157.800781 533.480469 1158.203125 C 549.0625 1160.878906 575.160156 1161.226562 601.4375 1160.71875 C 634.457031 1160.074219 667.730469 1157.996094 681.535156 1157.0625 C 686.035156 1141.601562 697.902344 1100.785156 708.664062 1062.761719 C 710.683594 1055.628906 712.667969 1048.59375 714.546875 1041.855469 Z M 1068.167969 784.75 C 1068.699219 783.652344 1069.207031 782.535156 1069.691406 781.390625 C 1074.417969 770.351562 1077.105469 757.960938 1079.136719 747.820312 C 1081.71875 734.945312 1083.761719 721.644531 1085.0625 708.375 C 1078.097656 710.050781 1071.28125 710.832031 1064.972656 711.054688 C 1055.859375 711.363281 1047.8125 710.511719 1041.929688 709.542969 C 1039.839844 719.359375 1036.554688 735.441406 1034.050781 750.289062 C 1032.609375 758.882812 1031.433594 767.050781 1030.949219 773.269531 C 1030.695312 776.429688 1030.429688 778.878906 1030.796875 780.179688 C 1032.988281 787.980469 1038.363281 791.695312 1044.660156 792.304688 C 1052.238281 793.03125 1060.726562 790.089844 1067.488281 785.210938 C 1067.707031 785.050781 1067.9375 784.886719 1068.167969 784.75 Z M 407.1875 892.824219 C 392.367188 897.164062 377.753906 906.070312 364.140625 918.449219 C 335.136719 944.832031 310.867188 986.976562 298.585938 1037.289062 C 286.3125 1087.609375 288.4375 1136.191406 302.023438 1172.980469 C 313.453125 1203.921875 332.910156 1226.441406 359.125 1232.847656 C 385.351562 1239.25 413 1228.230469 437.394531 1206.035156 C 466.398438 1179.648438 490.667969 1137.507812 502.9375 1087.195312 C 515.222656 1036.871094 513.101562 988.292969 499.5 951.5 C 497.945312 947.277344 496.238281 943.21875 494.390625 939.339844 C 491.945312 949.492188 488.234375 963.488281 483.953125 979.027344 C 471.519531 1024.226562 454.371094 1082.789062 451.058594 1096.054688 C 449.78125 1101.210938 444.554688 1104.339844 439.410156 1103.058594 C 434.265625 1101.777344 431.128906 1096.550781 432.410156 1091.40625 C 435.730469 1078.082031 452.941406 1019.300781 465.417969 973.929688 C 471.542969 951.640625 476.527344 932.660156 478.039062 924.191406 C 478.476562 921.769531 479.039062 918.980469 479.640625 915.933594 C 469.457031 903.738281 456.976562 895.203125 442.398438 891.636719 C 438.535156 890.691406 434.636719 890.136719 430.726562 889.917969 C 424.324219 900.589844 418.304688 913.257812 412.664062 926.9375 C 392.34375 976.167969 377.566406 1038.324219 371.71875 1071.804688 C 370.808594 1077.03125 365.828125 1080.539062 360.601562 1079.628906 C 355.378906 1078.714844 351.871094 1073.730469 352.78125 1068.496094 C 359.78125 1028.382812 379.320312 948.351562 405.699219 895.753906 C 406.195312 894.761719 406.691406 893.792969 407.1875 892.824219 Z M 464.265625 859.773438 C 458.0625 859.578125 452.269531 863.3125 446.503906 869 C 445.476562 870.003906 444.472656 871.066406 443.472656 872.1875 C 444.636719 872.417969 445.800781 872.683594 446.953125 872.960938 C 460.308594 876.222656 472.410156 882.742188 482.984375 891.972656 C 483.191406 887.265625 483.019531 882.601562 482.222656 878.253906 C 480.863281 870.8125 477.332031 864.445312 468.84375 862.242188 C 467.277344 861.824219 465.636719 861.085938 464.265625 859.773438 Z M 767.625 997.011719 C 758.28125 943.160156 747.566406 884.035156 740.820312 848.316406 C 725.78125 847.949219 696.898438 846.539062 663.417969 844.730469 C 621.585938 842.46875 572.519531 839.582031 534.355469 837.320312 C 553.144531 849.492188 571.527344 861.824219 589.707031 874.25 C 649.128906 914.871094 706.21875 956.507812 767.625 997.011719 Z M 940.480469 879.847656 C 941.515625 892.847656 942.484375 907.753906 943.582031 923.894531 C 949.417969 914.59375 954.550781 904.871094 958.921875 894.785156 Z M 993.371094 1005.332031 L 1098.386719 1007.742188 L 1012.253906 937.980469 C 1006.671875 951.316406 1001.953125 965.574219 998.296875 980.5625 C 996.277344 988.878906 994.628906 997.152344 993.371094 1005.332031 Z M 996.738281 925.417969 L 975.53125 908.238281 C 967.617188 925.347656 957.699219 941.476562 945.945312 956.277344 C 946.730469 966.265625 947.617188 976.5 948.632812 986.859375 C 949.210938 992.652344 949.820312 998.488281 950.476562 1004.339844 L 974.007812 1004.878906 C 975.390625 995.351562 977.257812 985.707031 979.625 975.992188 C 984.007812 958.078125 989.808594 941.117188 996.738281 925.417969 Z M 937.296875 482.558594 C 928.65625 482.152344 922.023438 478.957031 916.628906 474.054688 C 907.410156 465.703125 902.335938 451.121094 896.753906 437.355469 C 894.597656 432.027344 892.300781 426.859375 889.246094 422.636719 C 886.765625 419.234375 883.78125 416.476562 879.570312 415.34375 C 872.535156 413.441406 862.570312 410.1875 851.09375 405.78125 C 852.363281 417.433594 854.816406 428.785156 858.441406 439.792969 C 863.386719 454.835938 870.503906 469.210938 879.695312 482.8125 C 885.683594 491.671875 890.550781 499.722656 897.019531 503.726562 C 902.058594 506.84375 908 505.917969 916.742188 500.855469 C 918.933594 499.585938 921.054688 498.203125 923.097656 496.703125 C 925.152344 495.203125 927.109375 493.597656 928.980469 491.890625 C 932.046875 489.085938 934.78125 485.972656 937.238281 482.636719 C 937.261719 482.605469 937.285156 482.582031 937.296875 482.558594 Z M 726.738281 303.253906 C 727.234375 307.152344 730.589844 310.613281 734.8125 314.59375 C 745.617188 324.792969 763.308594 335.453125 782.167969 348.8125 C 797.207031 359.472656 814.773438 368.910156 831.484375 376.640625 C 852.914062 386.550781 872.960938 393.644531 884.574219 396.78125 C 893.25 399.125 899.707031 404.339844 904.792969 411.339844 C 912.011719 421.273438 916.097656 435.359375 921.503906 447.3125 C 925.40625 455.953125 929.730469 463.765625 940.074219 463.347656 C 945.414062 463.140625 950.664062 462.023438 955.621094 460.117188 C 960.617188 458.203125 965.308594 455.492188 969.542969 452.113281 C 972.703125 449.574219 975.703125 446.769531 978.367188 443.679688 C 980.902344 440.75 983.128906 437.554688 984.871094 434.082031 C 997.28125 409.335938 1000.753906 386.710938 997.191406 366.117188 C 993.246094 343.378906 980.835938 323.234375 963.316406 305.46875 C 937.097656 278.890625 889.789062 262.65625 842.488281 261.492188 C 798.292969 260.417969 753.796875 272.484375 726.738281 303.253906 Z M 991.089844 1024.503906 C 988.238281 1058.515625 992.035156 1090.195312 1001.480469 1116.046875 C 1012.785156 1147.035156 1032.101562 1169.578125 1058.203125 1175.945312 C 1084.304688 1182.328125 1111.835938 1171.21875 1136.148438 1148.929688 C 1164.96875 1122.496094 1189.109375 1080.386719 1201.371094 1030.132812 C 1213.628906 979.890625 1211.613281 931.390625 1198.199219 894.648438 C 1186.894531 863.671875 1167.574219 841.117188 1141.476562 834.75 C 1115.375 828.371094 1087.832031 839.480469 1063.53125 861.769531 C 1047.292969 876.652344 1032.550781 896.503906 1020.578125 919.984375 L 1132.375 1010.523438 C 1135.570312 1013.105469 1136.769531 1017.445312 1135.351562 1021.308594 C 1133.933594 1025.164062 1130.21875 1027.699219 1126.113281 1027.609375 Z M 510.261719 738.152344 C 505.972656 756.808594 495.777344 789.328125 488.359375 815.332031 C 522.351562 817.304688 601.5625 822.140625 664.457031 825.53125 C 694.824219 827.171875 721.375 828.484375 737.105469 828.980469 C 736.332031 825.070312 735.699219 821.921875 735.214844 819.636719 C 734.09375 814.445312 737.40625 809.335938 742.597656 808.226562 C 747.785156 807.109375 752.894531 810.417969 754.003906 815.609375 C 758.222656 835.316406 773.773438 919.960938 786.675781 994.324219 C 796.851562 1052.976562 805.328125 1105.320312 805.535156 1115.136719 C 805.683594 1121.957031 803.160156 1128.910156 798.742188 1135.765625 C 792.097656 1146.078125 780.796875 1156.425781 773.125 1166.429688 C 770.875 1169.371094 768.960938 1172.230469 767.914062 1175.082031 C 767.601562 1175.945312 767.371094 1176.800781 767.3125 1177.644531 C 770.125 1178.105469 775.15625 1178.84375 780 1179.085938 C 799.894531 1180.078125 831.832031 1178.898438 863.78125 1177.089844 C 902.1875 1174.921875 940.640625 1171.816406 958.667969 1170.28125 C 956.488281 1158.792969 952.75 1138.753906 948.4375 1114.59375 C 944.851562 1094.476562 940.871094 1071.503906 937.078125 1048.257812 C 933.871094 1028.601562 931.449219 1008.457031 929.511719 988.742188 C 928.324219 976.765625 927.332031 964.953125 926.453125 953.496094 C 926.292969 952.652344 926.222656 951.789062 926.269531 950.921875 C 923.109375 909 921.484375 872.300781 918.058594 851.246094 C 917.203125 846.007812 920.757812 841.070312 925.992188 840.21875 C 931.230469 839.363281 936.175781 842.929688 937.03125 848.15625 C 937.296875 849.851562 937.5625 851.640625 937.816406 853.519531 C 938.703125 853.878906 939.554688 854.363281 940.339844 854.996094 L 966.09375 875.855469 C 970.652344 861.90625 973.824219 847.429688 975.484375 832.625 L 989.460938 708.019531 C 984.042969 726.683594 973.394531 741.984375 960.316406 754.199219 C 935.785156 777.101562 902.429688 788.902344 879.636719 791.683594 C 849.546875 795.363281 809.859375 793.4375 768.648438 787.300781 C 738.8125 782.867188 708.15625 776.234375 679.808594 768.03125 C 679.945312 768.921875 680.015625 769.808594 680.015625 770.699219 C 680.027344 775.878906 678.15625 781.449219 671.675781 787.089844 L 664.90625 791.867188 C 663.152344 792.8125 661.308594 793.65625 659.425781 794.359375 C 657.546875 795.074219 655.621094 795.664062 653.683594 796.113281 C 642.609375 798.6875 630.316406 796.355469 620.269531 790.390625 C 619.441406 789.894531 618.621094 789.375 617.824219 788.832031 C 610.027344 795.269531 600.039062 797.507812 590.179688 796.21875 C 584.644531 795.488281 579.175781 793.597656 574.238281 790.703125 C 560.214844 794.300781 548.578125 791.996094 539.628906 786.25 C 529.0625 779.464844 521.992188 767.511719 519.652344 752.964844 C 518.914062 748.398438 518.648438 743.5625 518.878906 738.566406 C 516.007812 738.476562 513.132812 738.324219 510.261719 738.152344 Z M 672.367188 452.332031 C 672.367188 447.023438 676.667969 442.710938 681.976562 442.710938 C 687.28125 442.710938 691.59375 447.011719 691.59375 452.320312 L 691.546875 461.539062 L 691.546875 471.585938 C 691.546875 476.894531 687.246094 481.207031 681.941406 481.207031 C 676.636719 481.207031 672.320312 476.894531 672.320312 471.585938 L 672.320312 461.515625 C 672.320312 461.503906 672.320312 461.492188 672.320312 461.480469 Z M 753.078125 460.925781 C 753.726562 455.664062 758.511719 451.90625 763.785156 452.539062 C 769.042969 453.183594 772.800781 457.972656 772.167969 463.246094 L 771.003906 472.394531 L 769.792969 482.363281 C 769.148438 487.632812 764.347656 491.382812 759.089844 490.75 C 753.816406 490.101562 750.070312 485.304688 750.703125 480.042969 L 751.925781 470.039062 C 751.925781 470.027344 751.925781 470.015625 751.925781 470.003906 Z M 688.90625 540.980469 C 684.511719 538.003906 683.359375 532.027344 686.335938 527.632812 C 689.300781 523.234375 695.285156 522.070312 699.679688 525.046875 C 701.882812 526.535156 704.257812 527.597656 706.726562 528.382812 C 709.527344 529.28125 712.433594 529.835938 715.386719 530.226562 C 723.3125 531.265625 731.109375 530.550781 738.5 528.382812 C 746.03125 526.167969 753.160156 522.453125 759.585938 517.535156 C 763.804688 514.316406 769.839844 515.136719 773.054688 519.347656 C 776.273438 523.570312 775.457031 529.605469 771.246094 532.824219 C 762.917969 539.179688 753.679688 543.96875 743.910156 546.828125 C 733.992188 549.746094 723.519531 550.691406 712.875 549.285156 C 707.925781 548.628906 703.046875 547.578125 698.433594 545.859375 C 695.113281 544.601562 691.917969 543.011719 688.90625 540.980469 Z M 688.90625 540.980469 " fill-opacity="1" fill-rule="evenodd"/></svg>