<svg xmlns="http://www.w3.org/2000/svg" xmlns:xlink="http://www.w3.org/1999/xlink" width="2000" zoomAndPan="magnify" viewBox="0 0 1500 1499.999933" height="2000" preserveAspectRatio="xMidYMid meet" version="1.0"><defs><clipPath id="e743719ed7"><path d="M 231.019531 338 L 1269 338 L 1269 1169 L 231.019531 1169 Z M 231.019531 338 " clip-rule="nonzero"/></clipPath></defs><path fill="#fea855" d="M 868.15625 954.191406 C 864.949219 956.441406 861.660156 958.597656 858.320312 960.660156 C 844.492188 969.171875 829.558594 976.03125 813.816406 981 C 789.039062 988.816406 763.890625 991.578125 739.46875 989.863281 C 737.546875 996.726562 735.21875 1003.335938 732.890625 1009.394531 C 721.1875 1039.832031 703.90625 1059.324219 682.488281 1083.136719 C 678.484375 1087.585938 675.691406 1093.101562 671.148438 1097.003906 C 664.460938 1102.734375 654.910156 1105.8125 647.199219 1109.925781 C 635.628906 1116.101562 623.902344 1123.375 611.296875 1127.257812 C 596.445312 1131.828125 575.359375 1135.523438 559.941406 1131.667969 C 553.113281 1129.960938 548.066406 1126.140625 541.671875 1123.476562 C 530.441406 1118.792969 518.441406 1115.46875 507.019531 1111.183594 C 495.394531 1106.824219 485.308594 1102.535156 474.25 1097.003906 C 469.476562 1094.613281 463.914062 1093.679688 459.449219 1090.699219 C 447.898438 1082.992188 439.054688 1071.386719 428.574219 1062.652344 C 415.976562 1052.152344 411.203125 1054.144531 395.816406 1054.144531 C 392.578125 1054.144531 382.652344 1053.734375 381.328125 1049.730469 C 376.003906 1033.769531 382.066406 1018.765625 395.816406 1008.761719 C 405.800781 1001.5 418.335938 998.222656 428.886719 992.0625 C 447.238281 981.351562 464.722656 967.578125 487.484375 974.414062 C 498.621094 977.757812 513.464844 987.632812 521.195312 996.472656 C 525.738281 1001.667969 528.214844 1008.539062 533.164062 1013.492188 C 539.699219 1020.023438 552.546875 1017.410156 559.941406 1014.121094 C 577.960938 1006.109375 585.933594 994.269531 594.59375 976.933594 C 601.695312 962.71875 607.613281 949.46875 612.238281 934.074219 C 612.378906 933.589844 612.519531 933.097656 612.660156 932.601562 C 590.050781 910.351562 572.394531 882.390625 562.1875 850.019531 L 553.324219 821.941406 C 548.53125 823.949219 543.785156 826.007812 539.132812 828.195312 C 517.015625 838.605469 495.972656 851.640625 474.089844 862.585938 C 436.101562 881.589844 405.921875 904.007812 373.324219 930.6875 C 363.238281 938.945312 353.71875 949.148438 340.636719 946.53125 C 333.757812 945.15625 333.9375 933.375 325.472656 935.070312 C 314.363281 937.292969 309.082031 949.589844 297.164062 950.914062 C 278.183594 953.023438 284.386719 937.515625 273.570312 931.023438 C 269.515625 928.585938 258 927.527344 255.703125 922.933594 C 254.207031 919.921875 257.160156 915.488281 256.039062 912.144531 C 252.214844 900.660156 237.222656 903.765625 240.207031 885.847656 C 240.679688 882.996094 240.335938 880.007812 241.886719 877.417969 C 259.761719 847.621094 291.417969 834.085938 319.734375 816.058594 C 346.300781 799.148438 377.855469 783.65625 406.691406 770.546875 C 418.71875 765.074219 438.203125 759.308594 448.816406 752.675781 C 461.726562 744.605469 475.769531 739.109375 488.921875 731.4375 C 498.945312 725.585938 508.890625 719.332031 519.25 713.886719 L 482.980469 598.882812 C 449.65625 493.234375 508.265625 380.566406 613.875 347.234375 L 614.289062 347.101562 C 664.632812 331.210938 719.234375 335.980469 766.054688 360.355469 C 812.886719 384.734375 848.125 426.722656 864.007812 477.085938 L 906.742188 612.578125 C 922.390625 606.421875 937.984375 600.765625 954.160156 595.371094 C 991.632812 582.875 1029.550781 568.582031 1068.835938 564.652344 C 1078.6875 563.667969 1088.25 562.164062 1098.183594 562.164062 C 1102.847656 562.164062 1107.332031 561.707031 1111.378906 564.402344 C 1120.503906 570.492188 1107.96875 586.292969 1102.667969 590.535156 C 1100.328125 592.402344 1097.414062 593.769531 1095.199219 595.761719 C 1093.589844 597.210938 1091.253906 600.34375 1090.726562 602.480469 C 1088.886719 609.8125 1095.542969 614.566406 1097.4375 620.898438 C 1100.804688 632.109375 1105.183594 645.992188 1101.675781 657.730469 C 1100.621094 661.226562 1101.117188 664.730469 1100.429688 668.183594 C 1100.347656 668.554688 1100.328125 670.785156 1099.925781 670.917969 C 1090.800781 673.964844 1080.996094 676.628906 1071.566406 679.382812 C 1063.21875 681.816406 1054.925781 683.71875 1046.4375 685.601562 C 1016.308594 692.304688 988.171875 704.824219 960.117188 717.207031 C 954.167969 719.835938 948.050781 722.09375 942.101562 724.691406 L 943.992188 730.71875 C 954.199219 763.070312 955.898438 797.167969 949.375 829.84375 C 949.242188 830.492188 949.109375 831.136719 948.96875 831.785156 C 953.007812 836.203125 956.507812 841.703125 959.917969 845.960938 C 963.558594 850.515625 968.203125 853.847656 971.875 858.398438 C 987.089844 877.238281 995.972656 899.585938 1007.457031 920.558594 C 1016.621094 937.292969 1029.984375 951.738281 1038.769531 968.644531 C 1047.183594 984.867188 1054.042969 1001.726562 1060.78125 1018.664062 C 1063.117188 1024.523438 1064.222656 1036.269531 1069.605469 1040.414062 C 1082.179688 1050.105469 1110.414062 1046.78125 1125.238281 1044.367188 C 1133.402344 1043.039062 1143.984375 1041.699219 1150.722656 1048.371094 C 1152.53125 1050.167969 1150.984375 1056.039062 1150.136719 1057.761719 C 1143.851562 1070.472656 1132.511719 1078.527344 1122.851562 1088.894531 C 1113.441406 1098.988281 1104.71875 1104.183594 1092.570312 1108.300781 C 1088.828125 1109.566406 1085.09375 1113.527344 1081.714844 1115.613281 C 1064.082031 1126.507812 1050.179688 1142.261719 1030.511719 1150.648438 C 1018.484375 1155.785156 998.898438 1164.28125 987.210938 1155.867188 C 971.214844 1144.339844 962.972656 1123.3125 955.757812 1105.890625 C 954.453125 1102.738281 951.398438 1100.179688 950.34375 1097.054688 C 944.984375 1081.207031 935.808594 1067.125 929.65625 1051.675781 C 925.78125 1041.945312 919.296875 1035.011719 913.996094 1026.179688 C 903.019531 1007.894531 892.0625 989.035156 879.171875 972.007812 C 874.914062 966.375 871.777344 960.140625 868.15625 954.191406 Z M 868.15625 954.191406 " fill-opacity="1" fill-rule="evenodd"/><g clip-path="url(#e743719ed7)"><path fill="#060000" d="M 864.199219 967.679688 C 859.3125 970.734375 854.285156 973.589844 849.136719 976.234375 C 838.734375 981.585938 827.839844 986.082031 816.539062 989.648438 C 804.429688 993.46875 792.238281 996.132812 780.066406 997.703125 C 768.339844 999.21875 756.636719 999.714844 745.070312 999.25 C 733.449219 1031.144531 713.933594 1060.214844 689.640625 1083.304688 C 646.613281 1124.199219 588.746094 1146.203125 533.507812 1132.972656 C 514.6875 1128.46875 496.902344 1120.445312 480.949219 1111.121094 C 449.96875 1093.011719 425.992188 1070.03125 415.007812 1059.457031 C 413.882812 1058.375 413.105469 1057.667969 412.175781 1057.644531 C 409.460938 1057.578125 406.984375 1059.242188 403.9375 1060.15625 C 399.558594 1061.476562 394.601562 1062.230469 388.519531 1060.855469 C 383.160156 1059.644531 375.257812 1056.253906 371.65625 1051.210938 C 369.125 1047.671875 368.023438 1043.460938 369.378906 1038.503906 C 372.082031 1028.589844 383.453125 1016.0625 397.867188 1004.71875 C 416.261719 990.246094 439.15625 977.105469 449.878906 972.410156 C 457.792969 968.949219 467.9375 964.925781 477.914062 963.367188 C 485.734375 962.140625 493.464844 962.441406 500.253906 965.078125 C 503.996094 966.53125 507.0625 968.890625 509.628906 971.910156 C 513.109375 976 515.609375 981.515625 518.160156 986.9375 C 519.839844 990.511719 521.386719 994.128906 524.160156 996.355469 C 537.390625 1006.988281 549.429688 1006.980469 559.75 1001.058594 C 571.527344 994.316406 581.085938 981.136719 588.148438 968.132812 C 592.761719 959.636719 596.515625 948.238281 598.839844 935.242188 C 599.175781 933.390625 599.480469 931.507812 599.753906 929.597656 C 599.460938 929.363281 599.1875 929.113281 598.921875 928.84375 C 587.613281 917.222656 578.71875 906.089844 571.34375 893.6875 C 564.25 881.757812 558.554688 868.644531 553.539062 852.746094 L 547.0625 832.210938 C 540.6875 835.128906 534.273438 838.183594 527.871094 841.339844 C 487.191406 861.371094 446.53125 885.546875 414.765625 906.234375 C 405.820312 912.066406 388.042969 930.554688 371.859375 943.277344 C 362.984375 950.253906 354.417969 955.523438 347.699219 957.269531 C 338.746094 959.59375 331.226562 956.332031 326.019531 950.605469 C 323.488281 947.820312 321.578125 944.410156 320.371094 940.863281 C 312.480469 946.535156 304.042969 950.835938 297.863281 952.796875 C 291.023438 954.972656 281.535156 953.746094 274.511719 949.472656 C 268.976562 946.101562 265.011719 941.007812 263.96875 934.863281 C 263.636719 932.964844 263.503906 930.984375 263.574219 928.992188 C 259.8125 928.414062 256.160156 927.085938 253.074219 925.046875 C 248.277344 921.875 244.769531 917.117188 243.714844 910.960938 C 243.269531 908.367188 243.167969 905.609375 243.492188 902.894531 C 240.023438 901.3125 236.9375 898.53125 234.328125 894.34375 C 231.707031 890.132812 231.007812 885.28125 232.3125 879.890625 C 233.730469 874.042969 237.988281 867.140625 244.515625 859.984375 C 267.925781 834.3125 322.0625 802.089844 336.085938 794.039062 C 367.273438 776.136719 417.304688 747.996094 472.460938 723.730469 C 484.1875 718.578125 496.132812 713.597656 508.183594 708.925781 L 474.34375 601.609375 C 456.921875 546.398438 463.527344 489.351562 488.292969 441.753906 C 513.050781 394.15625 555.957031 356.003906 611.144531 338.585938 L 611.570312 338.457031 C 616.332031 336.949219 621.433594 339.601562 622.929688 344.375 C 624.4375 349.144531 621.785156 354.242188 617.023438 355.746094 L 616.597656 355.878906 C 566.183594 371.792969 526.980469 406.644531 504.371094 450.125 C 481.75 493.605469 475.71875 545.71875 491.621094 596.15625 L 525.191406 702.574219 C 539.871094 697.296875 554.621094 692.5625 569.1875 688.609375 C 573.679688 687.390625 578.3125 690.050781 579.539062 694.542969 C 580.753906 699.035156 578.09375 703.671875 573.601562 704.890625 C 542.167969 713.417969 509.902344 725.6875 479.25 739.171875 C 424.738281 763.152344 375.296875 790.976562 344.480469 808.671875 C 334.191406 814.574219 301.421875 833.925781 276.445312 853.738281 C 265.425781 862.480469 255.917969 871.210938 251.050781 878.878906 C 250.128906 880.328125 249.402344 881.710938 248.945312 883.039062 C 248.632812 883.945312 248.21875 884.746094 248.644531 885.433594 C 249.613281 886.992188 250.828125 887.617188 252.203125 887.660156 C 253.347656 887.089844 254.601562 886.800781 255.855469 886.789062 C 257.039062 886.285156 258.273438 885.621094 259.53125 884.941406 C 269.191406 879.707031 279.460938 869.445312 286.417969 862.566406 C 289.738281 859.296875 295.078125 859.335938 298.347656 862.648438 C 301.617188 865.960938 301.574219 871.304688 298.265625 874.574219 C 288.714844 884 273.492188 898.4375 260.753906 902.808594 C 260.613281 903.148438 260.5 903.5 260.417969 903.855469 C 260.074219 905.257812 260.097656 906.746094 260.328125 908.117188 C 260.632812 909.84375 261.988281 910.910156 263.484375 911.582031 C 265.660156 912.558594 268.269531 912.777344 270.496094 912.128906 C 274.085938 911.078125 280.300781 906.449219 286.226562 901.441406 C 292.074219 896.503906 297.640625 891.105469 299.621094 887.433594 C 301.839844 883.339844 306.957031 881.8125 311.054688 884.023438 C 315.140625 886.238281 316.667969 891.359375 314.464844 895.453125 C 311.832031 900.308594 304.84375 907.792969 297.101562 914.328125 C 292.054688 918.597656 286.691406 922.433594 282.179688 925.058594 C 282.121094 925.125 282.050781 925.1875 281.988281 925.25 C 281.269531 925.925781 280.894531 926.832031 280.671875 927.757812 C 280.328125 929.160156 280.351562 930.648438 280.582031 932.019531 C 280.917969 933.953125 282.878906 935.007812 284.78125 935.835938 C 287.390625 936.96875 290.4375 937.460938 292.761719 936.722656 C 297.863281 935.101562 304.832031 931.371094 311.296875 926.605469 C 317.035156 922.375 322.425781 917.34375 325.441406 912.039062 C 325.816406 911.394531 326.25 910.8125 326.757812 910.304688 C 327.324219 909.433594 327.929688 908.570312 328.546875 907.714844 C 335.253906 898.496094 344.542969 890.058594 351.472656 884.140625 C 355.011719 881.117188 360.335938 881.539062 363.359375 885.078125 C 366.382812 888.617188 365.960938 893.945312 362.417969 896.96875 C 356.328125 902.175781 348.082031 909.53125 342.183594 917.644531 C 338.785156 922.300781 336.074219 927.140625 335.761719 931.96875 C 335.609375 934.402344 336.671875 937.246094 338.492188 939.253906 C 339.695312 940.578125 341.386719 941.480469 343.460938 940.941406 C 348.527344 939.628906 354.75 935.273438 361.4375 930.015625 C 378.050781 916.957031 396.382812 898.082031 405.566406 892.101562 C 437.820312 871.089844 479.109375 846.546875 520.425781 826.207031 C 548.84375 812.210938 577.273438 800.210938 602.828125 792.644531 C 607.289062 791.320312 611.984375 793.875 613.296875 798.335938 C 614.625 802.800781 612.074219 807.496094 607.613281 808.816406 C 593.703125 812.9375 578.921875 818.425781 563.746094 824.847656 L 570.828125 847.289062 C 575.371094 861.699219 580.488281 873.601562 586.925781 884.417969 C 591.121094 891.46875 595.867188 898.054688 601.359375 904.589844 C 601.339844 902.996094 601.300781 901.394531 601.238281 899.785156 C 601.058594 895.132812 604.691406 891.207031 609.332031 891.027344 C 613.988281 890.84375 617.914062 894.472656 618.09375 899.125 C 618.628906 912.863281 617.597656 926.15625 615.445312 938.214844 C 612.753906 953.234375 608.292969 966.363281 602.960938 976.179688 C 592.355469 995.714844 576.351562 1014.789062 557.394531 1020.320312 C 544.199219 1024.175781 529.378906 1022.1875 513.597656 1009.507812 C 510.964844 1007.386719 508.761719 1004.703125 506.867188 1001.652344 C 504.1875 997.339844 502.164062 992.195312 499.785156 987.585938 C 498.308594 984.722656 496.953125 981.890625 494.152344 980.800781 C 490.011719 979.195312 485.289062 979.285156 480.515625 980.03125 C 472.003906 981.363281 463.386719 984.910156 456.636719 987.867188 C 446.652344 992.230469 425.398438 1004.515625 408.300781 1017.976562 C 397.828125 1026.214844 388.632812 1034.539062 385.992188 1041.847656 C 386.457031 1042.171875 387.082031 1042.59375 387.550781 1042.816406 C 389.148438 1043.585938 390.878906 1044.097656 392.234375 1044.402344 C 396.765625 1045.429688 400.003906 1043.714844 402.988281 1042.664062 C 406.253906 1041.507812 409.382812 1040.703125 412.589844 1040.78125 C 416.878906 1040.886719 421.511719 1042.304688 426.703125 1047.300781 C 435.796875 1056.058594 454.210938 1073.765625 478.238281 1089.582031 C 495.496094 1100.941406 515.699219 1111.363281 537.433594 1116.570312 C 587.246094 1128.5 639.21875 1107.960938 678.027344 1071.078125 C 715.167969 1035.777344 740.367188 985.375 740.015625 932.996094 C 739.984375 928.339844 743.738281 924.535156 748.390625 924.507812 C 753.042969 924.476562 756.847656 928.230469 756.878906 932.882812 C 756.988281 949.296875 754.816406 965.539062 750.695312 981.265625 C 759.652344 981.394531 768.695312 980.890625 777.75 979.71875 C 788.867188 978.285156 800.015625 975.847656 811.085938 972.355469 C 821.40625 969.097656 831.351562 964.992188 840.847656 960.109375 C 850.429688 955.179688 859.554688 949.460938 868.113281 943.023438 C 872.121094 940.019531 877.808594 940.828125 880.8125 944.828125 C 883.816406 948.832031 883.007812 954.519531 879 957.523438 C 878.726562 957.730469 878.453125 957.9375 878.171875 958.144531 C 883.613281 964.910156 888.804688 971.929688 893.769531 979.128906 C 913.410156 1007.613281 929.59375 1038.996094 944.679688 1069.207031 C 951.054688 1081.972656 960.308594 1105.003906 971.316406 1124.300781 C 978.269531 1136.488281 985.625 1147.3125 993.738281 1151.714844 C 994.335938 1151.667969 997.371094 1151.394531 999.585938 1150.792969 C 1009.367188 1148.128906 1023.773438 1141.109375 1040.023438 1131.8125 C 1063.078125 1118.617188 1089.644531 1100.820312 1112.085938 1083.539062 C 1118.863281 1078.316406 1136.679688 1066.386719 1143.253906 1059.050781 C 1141.28125 1055.078125 1136.566406 1053.320312 1131.824219 1052.148438 C 1123.667969 1050.125 1114.542969 1050.507812 1109.910156 1051.367188 C 1098.78125 1053.433594 1090.058594 1056.433594 1083.058594 1055.816406 C 1077.425781 1055.320312 1072.507812 1053.148438 1068.148438 1048.007812 C 1065.042969 1044.347656 1060.285156 1037.355469 1055.410156 1029.019531 C 1051.847656 1022.910156 1048.195312 1016.066406 1045.101562 1009.339844 C 1026.972656 970.046875 1007.0625 924.917969 979.746094 887.214844 C 969.304688 872.808594 957.78125 859.492188 944.832031 848.066406 C 946.632812 842.058594 948.148438 835.976562 949.375 829.84375 C 965.964844 843.253906 980.472656 859.484375 993.394531 877.316406 C 1021.355469 915.914062 1041.851562 962.046875 1060.40625 1002.273438 C 1063.28125 1008.503906 1066.660156 1014.847656 1069.96875 1020.511719 C 1074.21875 1027.773438 1078.304688 1033.910156 1081.007812 1037.101562 C 1082.585938 1038.953125 1084.496094 1039.175781 1086.703125 1038.996094 C 1092.214844 1038.558594 1098.792969 1036.277344 1106.835938 1034.785156 C 1114.140625 1033.429688 1129.75 1032.988281 1141.777344 1037.613281 C 1151.257812 1041.261719 1158.550781 1047.851562 1160.554688 1058.058594 C 1160.941406 1060.023438 1160.796875 1062.503906 1159.421875 1065.261719 C 1158.351562 1067.398438 1156.0625 1070.269531 1152.796875 1073.347656 C 1144.46875 1081.179688 1128.808594 1091.941406 1122.375 1096.902344 C 1094.945312 1118.027344 1061.511719 1139.886719 1035.277344 1153.664062 C 1021.132812 1161.09375 1008.921875 1166.179688 1000.636719 1167.878906 C 994.324219 1169.175781 989.496094 1168.507812 986.441406 1166.941406 C 978.054688 1162.625 969.738281 1153.445312 962.242188 1141.855469 C 948.644531 1120.855469 937.121094 1091.8125 929.59375 1076.746094 C 914.855469 1047.226562 899.082031 1016.539062 879.890625 988.707031 C 874.902344 981.480469 869.691406 974.445312 864.199219 967.679688 Z M 904.648438 605.953125 C 913.539062 602.671875 922.464844 599.558594 931.203125 596.363281 C 952.085938 588.730469 973.160156 581.4375 994.40625 574.675781 C 1015.679688 567.898438 1037.128906 561.652344 1058.726562 556.125 C 1063.109375 555 1067.53125 554.046875 1071.972656 553.21875 C 1073.125 553.003906 1074.289062 552.800781 1075.441406 552.601562 L 1068.238281 481.898438 C 1068.21875 481.835938 1068.199219 481.773438 1068.175781 481.707031 C 1067.640625 480.078125 1067.640625 478.402344 1068.066406 476.863281 C 1068.722656 473.265625 1071.6875 470.382812 1075.503906 469.992188 C 1076.007812 469.941406 1076.515625 469.9375 1077 469.972656 C 1087.296875 466.671875 1104.273438 461.421875 1123.464844 455.546875 C 1173.949219 440.09375 1239.84375 420.292969 1239.84375 420.292969 C 1242.269531 419.5625 1244.902344 419.964844 1246.996094 421.386719 C 1249.097656 422.808594 1250.445312 425.101562 1250.667969 427.628906 L 1268.644531 631.25 C 1269 635.234375 1266.511719 638.917969 1262.675781 640.070312 L 1105.054688 687.511719 C 1102.6875 688.226562 1100.117188 687.863281 1098.042969 686.511719 C 1095.957031 685.164062 1094.582031 682.96875 1094.269531 680.511719 L 1093.390625 673.675781 C 1056.039062 687.296875 1019.425781 699.59375 983.378906 713.921875 C 970.175781 719.175781 957.042969 724.703125 943.980469 730.671875 L 938.871094 714.464844 C 951.558594 708.707031 964.316406 703.351562 977.15625 698.25 C 1014.488281 683.402344 1052.445312 670.726562 1091.183594 656.523438 L 1085.285156 610.535156 C 1084.65625 610.820312 1084.03125 611.101562 1083.414062 611.378906 C 1079.15625 613.269531 1074.167969 611.351562 1072.273438 607.101562 C 1070.394531 602.847656 1072.304688 597.859375 1076.554688 595.964844 C 1082.128906 593.488281 1087.976562 590.550781 1093.390625 587.011719 C 1098.425781 583.714844 1103.101562 579.902344 1106.664062 575.390625 C 1107.917969 573.796875 1108.867188 572.34375 1109.496094 571 C 1109.769531 570.410156 1109.980469 569.585938 1110.070312 569.191406 C 1109.707031 568.964844 1108.898438 568.488281 1108.3125 568.277344 C 1106.125 567.496094 1103.40625 567.160156 1100.378906 567.113281 C 1098.203125 567.078125 1096.039062 567.117188 1093.875 567.234375 C 1091.738281 567.351562 1089.605469 567.550781 1087.46875 567.835938 C 1083.3125 568.394531 1079.175781 569.039062 1075.046875 569.804688 C 1070.96875 570.5625 1066.921875 571.4375 1062.90625 572.464844 C 1041.632812 577.914062 1020.484375 584.070312 999.515625 590.75 C 978.5 597.4375 957.648438 604.65625 936.992188 612.207031 C 928.015625 615.488281 918.851562 618.675781 909.726562 622.050781 Z M 1092.175781 550.4375 C 1092.4375 550.421875 1092.691406 550.40625 1092.953125 550.394531 C 1095.511719 550.253906 1098.074219 550.207031 1100.644531 550.246094 C 1104.183594 550.300781 1107.460938 550.722656 1110.40625 551.445312 C 1110.253906 551.320312 1110.101562 551.191406 1109.960938 551.058594 C 1106.550781 547.886719 1106.367188 542.546875 1109.535156 539.136719 C 1112.417969 536.046875 1115.878906 533.113281 1119.714844 531.050781 C 1122.6875 529.457031 1125.882812 528.371094 1129.253906 528 C 1136.03125 527.242188 1142.070312 529.464844 1148.507812 529.3125 C 1149.972656 529.277344 1151.480469 529.03125 1153.070312 528.335938 C 1155.910156 527.089844 1158.167969 524.90625 1160.402344 522.683594 C 1163.632812 519.476562 1166.757812 516.089844 1170.296875 513.421875 C 1174.222656 510.460938 1178.605469 508.304688 1183.875 507.582031 C 1189.15625 506.859375 1194.214844 507.761719 1199.101562 509.015625 C 1202.417969 509.867188 1205.597656 511.003906 1208.773438 510.960938 C 1211.199219 510.921875 1213.394531 509.621094 1215.84375 506.503906 C 1218.71875 502.84375 1224.027344 502.207031 1227.691406 505.082031 C 1231.34375 507.957031 1231.980469 513.265625 1229.109375 516.925781 C 1224.484375 522.816406 1219.769531 525.636719 1215.195312 526.9375 C 1210.089844 528.390625 1204.96875 527.863281 1199.726562 526.601562 C 1195.386719 525.550781 1190.957031 523.636719 1186.160156 524.296875 C 1183.925781 524.601562 1182.113281 525.632812 1180.445312 526.890625 C 1177.5 529.109375 1174.960938 531.988281 1172.28125 534.65625 C 1168.546875 538.359375 1164.570312 541.707031 1159.828125 543.785156 C 1156.03125 545.453125 1152.421875 546.09375 1148.902344 546.175781 C 1142.953125 546.316406 1137.386719 544.066406 1131.113281 544.761719 C 1129.527344 544.941406 1128.078125 545.625 1126.722656 546.476562 C 1124.914062 547.625 1123.292969 549.117188 1121.878906 550.632812 C 1120.269531 552.359375 1118.113281 553.257812 1115.929688 553.316406 C 1119.359375 554.855469 1122.050781 556.894531 1123.8125 559.273438 C 1125.378906 561.382812 1126.511719 563.929688 1126.875 566.886719 C 1128.554688 566.316406 1130.296875 565.914062 1132.085938 565.714844 C 1138.875 564.960938 1144.90625 567.179688 1151.339844 567.03125 C 1152.804688 566.996094 1154.3125 566.75 1155.902344 566.054688 C 1158.746094 564.808594 1161 562.625 1163.238281 560.402344 C 1166.472656 557.191406 1169.589844 553.808594 1173.132812 551.140625 C 1177.054688 548.179688 1181.445312 546.023438 1186.707031 545.300781 C 1191.988281 544.578125 1197.046875 545.480469 1201.933594 546.734375 C 1205.253906 547.585938 1208.429688 548.722656 1211.617188 548.675781 C 1214.042969 548.640625 1216.238281 547.339844 1218.6875 544.222656 C 1221.5625 540.5625 1226.863281 539.925781 1230.523438 542.800781 C 1234.175781 545.675781 1234.8125 550.984375 1231.941406 554.640625 C 1227.316406 560.535156 1222.601562 563.355469 1218.039062 564.65625 C 1212.929688 566.109375 1207.800781 565.582031 1202.5625 564.316406 C 1198.222656 563.269531 1193.789062 561.355469 1188.996094 562.011719 C 1186.757812 562.320312 1184.949219 563.351562 1183.277344 564.609375 C 1180.34375 566.828125 1177.804688 569.707031 1175.113281 572.375 C 1171.382812 576.078125 1167.414062 579.425781 1162.667969 581.503906 C 1158.867188 583.171875 1155.253906 583.8125 1151.734375 583.894531 C 1145.785156 584.03125 1140.21875 581.78125 1133.949219 582.480469 C 1132.371094 582.65625 1130.914062 583.339844 1129.566406 584.195312 C 1127.746094 585.34375 1126.128906 586.832031 1124.710938 588.351562 C 1122.355469 590.886719 1118.804688 591.640625 1115.726562 590.554688 C 1112.875 593.460938 1109.699219 596.132812 1106.320312 598.582031 C 1104.578125 599.839844 1102.789062 601.039062 1100.964844 602.1875 C 1101.199219 602.804688 1101.371094 603.464844 1101.460938 604.152344 C 1101.460938 604.152344 1109.71875 668.492188 1109.71875 668.492188 L 1251.246094 625.894531 L 1234.785156 439.429688 C 1214.507812 445.535156 1166.949219 459.875 1128.402344 471.675781 C 1111.246094 476.925781 1095.878906 481.675781 1085.507812 484.964844 Z M 1113.351562 519.988281 C 1110.183594 523.394531 1104.839844 523.585938 1101.433594 520.410156 C 1098.03125 517.238281 1097.839844 511.898438 1101.015625 508.492188 C 1103.890625 505.398438 1107.351562 502.464844 1111.183594 500.40625 C 1114.160156 498.8125 1117.367188 497.726562 1120.726562 497.351562 C 1127.511719 496.597656 1133.542969 498.816406 1139.976562 498.667969 C 1141.445312 498.632812 1142.953125 498.386719 1144.539062 497.691406 C 1147.382812 496.441406 1149.640625 494.261719 1151.875 492.039062 C 1155.101562 488.828125 1158.230469 485.445312 1161.769531 482.777344 C 1165.695312 479.816406 1170.085938 477.660156 1175.347656 476.9375 C 1180.628906 476.214844 1185.6875 477.117188 1190.574219 478.371094 C 1193.890625 479.222656 1197.078125 480.359375 1200.253906 480.3125 C 1202.683594 480.277344 1204.878906 478.972656 1207.328125 475.859375 C 1210.199219 472.195312 1215.5 471.558594 1219.164062 474.4375 C 1222.816406 477.3125 1223.453125 482.617188 1220.578125 486.277344 C 1215.957031 492.171875 1211.242188 494.992188 1206.679688 496.292969 C 1201.570312 497.746094 1196.441406 497.21875 1191.199219 495.953125 C 1186.859375 494.90625 1182.429688 492.992188 1177.632812 493.648438 C 1175.398438 493.957031 1173.585938 494.988281 1171.917969 496.246094 C 1168.972656 498.464844 1166.445312 501.34375 1163.753906 504.011719 C 1160.019531 507.714844 1156.054688 511.0625 1151.308594 513.140625 C 1147.503906 514.808594 1143.894531 515.449219 1140.371094 515.53125 C 1134.421875 515.667969 1128.859375 513.417969 1122.585938 514.117188 C 1121.007812 514.292969 1119.550781 514.976562 1118.207031 515.832031 C 1116.386719 516.980469 1114.765625 518.46875 1113.351562 519.988281 Z M 1171.726562 625.554688 C 1167.464844 627.421875 1162.488281 625.476562 1160.617188 621.214844 C 1158.753906 616.949219 1160.699219 611.972656 1164.957031 610.105469 C 1167.800781 608.855469 1170.054688 606.675781 1172.292969 604.453125 C 1175.527344 601.242188 1178.65625 597.859375 1182.183594 595.191406 C 1186.109375 592.230469 1190.5 590.074219 1195.761719 589.351562 C 1201.054688 588.625 1206.101562 589.53125 1211 590.785156 C 1214.308594 591.636719 1217.492188 592.773438 1220.671875 592.726562 C 1223.097656 592.691406 1225.292969 591.386719 1227.742188 588.273438 C 1230.617188 584.609375 1235.917969 583.972656 1239.578125 586.851562 C 1243.242188 589.726562 1243.878906 595.03125 1240.996094 598.691406 C 1236.371094 604.585938 1231.667969 607.40625 1227.09375 608.707031 C 1221.984375 610.160156 1216.855469 609.632812 1211.625 608.367188 C 1207.277344 607.320312 1202.84375 605.40625 1198.050781 606.0625 C 1195.8125 606.371094 1194.003906 607.402344 1192.34375 608.660156 C 1189.398438 610.878906 1186.859375 613.757812 1184.167969 616.425781 C 1180.445312 620.128906 1176.46875 623.476562 1171.726562 625.554688 Z M 746.578125 535.859375 C 745.082031 531.453125 747.441406 526.660156 751.839844 525.160156 C 756.25 523.660156 761.035156 526.019531 762.542969 530.425781 L 765.175781 538.007812 C 765.175781 538.015625 765.175781 538.027344 765.175781 538.039062 L 768.027344 546.402344 C 769.535156 550.804688 767.179688 555.601562 762.777344 557.105469 C 758.367188 558.609375 753.582031 556.25 752.074219 551.847656 L 749.230469 543.5 Z M 680.109375 558.542969 C 678.605469 554.136719 680.972656 549.34375 685.371094 547.839844 C 689.773438 546.339844 694.566406 548.699219 696.074219 553.105469 L 698.695312 560.691406 C 698.707031 560.699219 698.707031 560.710938 698.707031 560.71875 L 701.558594 569.082031 C 703.066406 573.488281 700.710938 578.285156 696.296875 579.789062 C 691.898438 581.292969 687.101562 578.933594 685.605469 574.53125 L 682.761719 566.183594 Z M 753.5 598.496094 C 756.738281 595.152344 762.070312 595.0625 765.417969 598.296875 C 768.765625 601.535156 768.847656 606.878906 765.621094 610.222656 C 763.402344 612.515625 760.945312 614.460938 758.316406 616.132812 C 754.671875 618.453125 750.675781 620.234375 746.550781 621.6875 C 737.667969 624.816406 728.511719 625.902344 719.457031 625.195312 C 710.5625 624.5 701.773438 622.0625 693.476562 618.113281 C 689.265625 616.113281 687.488281 611.074219 689.480469 606.871094 C 691.484375 602.667969 696.519531 600.882812 700.71875 602.882812 C 707.125 605.929688 713.902344 607.839844 720.769531 608.378906 C 727.507812 608.90625 734.328125 608.109375 740.945312 605.777344 C 743.402344 604.910156 745.8125 603.910156 748.046875 602.636719 C 750.03125 601.511719 751.878906 600.171875 753.5 598.496094 Z M 753.5 598.496094 " fill-opacity="1" fill-rule="evenodd"/></g></svg>