<svg xmlns="http://www.w3.org/2000/svg" xmlns:xlink="http://www.w3.org/1999/xlink" width="2000" zoomAndPan="magnify" viewBox="0 0 1500 1499.999933" height="2000" preserveAspectRatio="xMidYMid meet" version="1.0"><defs><clipPath id="bdd799714e"><path d="M 358.605469 225 L 1141 225 L 1141 1268 L 358.605469 1268 Z M 358.605469 225 " clip-rule="nonzero"/></clipPath></defs><path fill="#fea855" d="M 718.679688 1118.902344 C 713.523438 1118.992188 708.347656 1118.875 703.160156 1118.550781 L 667.929688 1101.796875 L 612.265625 1120.941406 C 548.988281 1123.703125 487.332031 1100.5 441.582031 1056.710938 C 395.832031 1012.921875 369.960938 952.351562 369.960938 889.03125 L 369.960938 506.601562 C 369.960938 357.394531 490.945312 236.4375 640.183594 236.4375 L 640.773438 236.4375 C 711.914062 236.4375 780.144531 264.695312 830.449219 314.988281 C 880.757812 365.28125 909.019531 433.496094 909.019531 504.621094 L 909.019531 539.292969 L 825.25 533.78125 L 816.945312 599.796875 L 860.621094 633.136719 L 859.5625 672.957031 L 852.648438 708.039062 L 841.898438 743.644531 C 774.660156 751.679688 759.179688 786.09375 791.710938 798.796875 C 815.640625 808.144531 875.550781 795.273438 909.019531 804.84375 L 909.019531 806.160156 C 912.390625 805.363281 915.851562 804.976562 918.988281 804.804688 C 941.613281 803.589844 977.914062 817.027344 990.113281 791.664062 C 992.816406 786.046875 994.332031 779.773438 995.5625 773.691406 C 996.671875 768.191406 1000.132812 758.34375 997.285156 752.65625 C 994.9375 747.976562 987.738281 746.492188 983.160156 745.707031 C 971.261719 743.664062 955.023438 746.976562 946.433594 736.1875 C 940.476562 728.707031 943.625 721.199219 942.191406 712.984375 C 940.820312 705.132812 936.566406 698.066406 934.917969 690.253906 C 933.25 682.355469 934.476562 674.332031 933.121094 666.398438 L 934.492188 632.144531 C 943.707031 625.710938 953.363281 620.429688 964.304688 617.550781 C 994.988281 609.480469 1031.429688 617.433594 1054.546875 639.8125 C 1066.046875 650.941406 1074.328125 666.882812 1080.886719 681.328125 C 1088.335938 697.734375 1093.488281 713.4375 1092.675781 731.738281 C 1089.777344 796.773438 1030.238281 857.207031 967.148438 868.285156 C 948.664062 871.535156 928.699219 871.441406 910.027344 869.761719 C 909.703125 869.730469 909.363281 869.707031 909.019531 869.6875 L 909.019531 914.664062 C 955.789062 918.144531 1001.851562 944.324219 1034.933594 980.972656 C 1055.054688 1003.265625 1057.414062 1033.164062 1072.851562 1057.691406 C 1083.703125 1074.929688 1098.347656 1069.808594 1115.730469 1072.488281 C 1125.890625 1074.058594 1134.507812 1079.09375 1133.527344 1090.351562 C 1131.984375 1108.125 1118.765625 1125.335938 1107.179688 1137.871094 C 1098.660156 1147.082031 1089.355469 1154.84375 1079.015625 1161.914062 C 1072.640625 1166.273438 1065.738281 1169.804688 1058.375 1172.160156 C 1052.710938 1173.972656 1011.25 1196.28125 1005.3125 1196.605469 C 967.558594 1198.671875 968.1875 1139.796875 957.394531 1113.246094 C 948.816406 1092.136719 892.785156 1046.03125 889.730469 1072.539062 C 886.785156 1098.082031 879.066406 1121.152344 868.867188 1144.679688 C 865.863281 1151.601562 857.515625 1167.558594 862.460938 1175.203125 C 862.730469 1175.617188 865.007812 1175.429688 865.265625 1175.4375 C 871.746094 1175.648438 914.617188 1166.585938 913.859375 1176.074219 C 912.574219 1192.113281 884.558594 1213.527344 875.496094 1218.492188 C 846.015625 1234.652344 737.234375 1274.949219 712.011719 1239.796875 C 702.980469 1227.214844 713.871094 1168.40625 714.960938 1155.234375 C 715.980469 1142.945312 717.707031 1130.738281 718.679688 1118.902344 Z M 718.679688 1118.902344 " fill-opacity="1" fill-rule="evenodd"/><g clip-path="url(#bdd799714e)"><path fill="#060000" d="M 1010.011719 756.359375 L 1000.664062 806.929688 C 999.664062 812.316406 994.96875 816.222656 989.488281 816.222656 L 778.398438 816.222656 C 775.050781 816.222656 771.875 814.75 769.714844 812.195312 C 767.558594 809.640625 766.636719 806.261719 767.195312 802.964844 L 773.628906 765.058594 C 771.554688 767.390625 769.582031 769.886719 767.707031 772.476562 C 759.53125 783.773438 753.175781 796.972656 748.273438 808.1875 C 743.417969 819.300781 737.414062 829.695312 730.625 839.554688 C 720.710938 853.960938 709.109375 867.222656 697.039062 879.953125 C 677.390625 900.675781 657.019531 918.175781 634.3125 930.980469 C 611.042969 944.109375 585.324219 952.363281 555.417969 954.113281 C 517.007812 956.363281 470.085938 940.335938 439.773438 911.285156 C 418.277344 890.683594 405.019531 863.722656 407.664062 832.335938 C 408.1875 826.085938 413.6875 821.445312 419.9375 821.96875 C 426.1875 822.496094 430.832031 827.996094 430.304688 834.242188 C 427.746094 864.613281 445.160156 889.253906 469.261719 906.136719 C 494.296875 923.671875 526.710938 933.039062 554.085938 931.4375 C 580.269531 929.902344 602.777344 922.6875 623.148438 911.195312 C 643.953125 899.457031 662.539062 883.316406 680.546875 864.324219 C 689.953125 854.402344 699.074219 844.15625 707.21875 833.21875 C 715.117188 822.613281 722.089844 811.355469 727.449219 799.09375 C 732.9375 786.535156 740.144531 771.804688 749.296875 759.160156 C 755.988281 749.914062 763.734375 741.785156 772.492188 736.050781 C 780.351562 730.90625 788.222656 729.363281 796.175781 729.625 C 802.324219 729.828125 808.53125 731.226562 814.789062 732.605469 C 821.121094 734.003906 827.527344 735.648438 834.082031 733.765625 C 838.398438 732.527344 841.023438 729.191406 841.058594 725.566406 C 841.09375 721.914062 838.425781 718.5625 833.644531 716.746094 C 831.1875 715.816406 826.804688 715.046875 822.09375 714.332031 C 814.519531 713.175781 806.160156 712.34375 801.964844 712.105469 C 795.707031 711.746094 790.914062 706.371094 791.273438 700.113281 C 791.632812 693.855469 797.007812 689.0625 803.269531 689.421875 C 807.902344 689.6875 817.148438 690.59375 825.523438 691.871094 C 832.144531 692.882812 838.257812 694.199219 841.714844 695.511719 C 843.164062 696.0625 844.535156 696.667969 845.832031 697.328125 C 848.6875 693.214844 850.15625 689.679688 849.984375 686.460938 C 849.796875 682.976562 847.414062 680.398438 844.519531 678.238281 C 836.257812 672.070312 823.265625 669.484375 814.136719 670.335938 C 807.894531 670.917969 802.351562 666.324219 801.769531 660.082031 C 801.1875 653.839844 805.78125 648.300781 812.023438 647.714844 C 824.140625 646.585938 840.460938 649.839844 852.9375 656.882812 C 854.601562 653.871094 855.328125 651.25 854.828125 648.832031 C 854.136719 645.472656 851.363281 643.019531 848.089844 640.777344 C 834.425781 631.414062 810.621094 628.105469 799.914062 629.316406 L 786.136719 631.515625 L 768.046875 636.8125 C 757.03125 640.5625 746.660156 645.289062 737 651.164062 C 727.433594 656.988281 718.566406 663.941406 710.457031 672.1875 C 684.207031 698.886719 663.296875 737.082031 632.550781 759.9375 C 618.023438 770.738281 601.445312 778.347656 581.53125 780.539062 C 576.066406 781.144531 570.714844 781.261719 565.382812 780.992188 C 560.191406 780.730469 555.015625 780.105469 549.765625 779.195312 C 543.585938 778.125 539.4375 772.242188 540.507812 766.066406 C 541.574219 759.886719 547.460938 755.742188 553.640625 756.808594 C 557.972656 757.558594 562.238281 758.089844 566.523438 758.304688 C 570.65625 758.511719 574.804688 758.425781 579.042969 757.960938 C 600.183594 755.632812 616.4375 745.324219 630.566406 731.894531 C 654.191406 709.425781 672.234375 678.660156 694.253906 656.261719 C 703.699219 646.652344 714.035156 638.546875 725.1875 631.757812 C 736.246094 625.027344 748.113281 619.597656 760.726562 615.304688 L 780.972656 609.394531 L 797.359375 606.742188 C 798.339844 606.632812 799.402344 606.550781 800.542969 606.5 L 813.804688 528.371094 C 814.742188 522.839844 819.574219 518.824219 825.183594 518.910156 L 1039.816406 522.269531 C 1043.160156 522.324219 1046.3125 523.84375 1048.429688 526.429688 C 1050.550781 529.019531 1051.421875 532.40625 1050.8125 535.695312 L 1035.78125 616.980469 C 1061.070312 627.519531 1077.421875 644.378906 1087.28125 664.382812 C 1102.652344 695.578125 1101.8125 735.335938 1092.679688 772.480469 C 1084.558594 805.523438 1064.132812 831.359375 1036.601562 850.0625 C 1001.695312 873.785156 955.179688 885.917969 909.019531 886.707031 L 909.019531 863.984375 C 943.015625 863.363281 977.234375 856.113281 1005.789062 841.8125 C 1037.492188 825.9375 1062.195312 801.3125 1070.613281 767.058594 C 1078.4375 735.242188 1080.0625 701.140625 1066.894531 674.421875 C 1055.359375 651.011719 1032.074219 634.054688 992.25 629.308594 C 981.566406 628.035156 957.785156 631.363281 944.140625 640.742188 C 940.867188 642.992188 938.097656 645.457031 937.402344 648.820312 C 936.902344 651.242188 937.628906 653.871094 939.292969 656.882812 C 951.769531 649.839844 968.089844 646.585938 980.203125 647.714844 C 986.449219 648.300781 991.042969 653.839844 990.460938 660.082031 C 989.878906 666.324219 984.335938 670.917969 978.089844 670.335938 C 968.964844 669.484375 955.972656 672.070312 947.714844 678.238281 C 944.816406 680.398438 942.433594 682.976562 942.246094 686.460938 C 942.074219 689.679688 943.542969 693.214844 946.398438 697.328125 C 947.695312 696.667969 949.066406 696.0625 950.519531 695.511719 C 953.972656 694.199219 960.085938 692.882812 966.707031 691.871094 C 975.082031 690.59375 984.328125 689.6875 988.960938 689.421875 C 995.222656 689.0625 1000.597656 693.855469 1000.957031 700.113281 C 1001.316406 706.371094 996.523438 711.746094 990.261719 712.105469 C 986.074219 712.34375 977.710938 713.175781 970.136719 714.332031 C 965.425781 715.046875 961.042969 715.816406 958.585938 716.746094 C 953.804688 718.5625 951.136719 721.914062 951.171875 725.566406 C 951.203125 729.191406 953.832031 732.527344 958.148438 733.765625 C 964.703125 735.648438 971.109375 734.003906 977.441406 732.605469 C 983.699219 731.226562 989.902344 729.828125 996.054688 729.625 C 1004.007812 729.363281 1011.878906 730.90625 1019.734375 736.050781 C 1024.984375 739.484375 1026.453125 746.53125 1023.019531 751.773438 C 1020.152344 756.152344 1014.765625 757.902344 1010.011719 756.359375 Z M 1013.957031 610.042969 C 1017.0625 593.242188 1026.023438 544.777344 1026.023438 544.777344 L 834.574219 541.78125 L 823.28125 608.308594 C 836.425781 610.609375 850.792969 615.085938 860.9375 622.035156 C 869.492188 627.894531 875.269531 635.460938 877.082031 644.238281 C 878.675781 651.941406 877.414062 660.9375 870.917969 671.054688 C 870.472656 671.75 869.964844 672.378906 869.40625 672.941406 C 874.726562 683.011719 874.871094 695.777344 863.933594 711.085938 C 863.21875 712.085938 862.367188 712.941406 861.425781 713.632812 C 863.066406 717.5625 863.820312 721.710938 863.78125 725.78125 C 863.660156 738.558594 855.554688 751.238281 840.355469 755.601562 C 831.511719 758.140625 822.816406 757.414062 814.234375 755.710938 C 809.027344 754.675781 803.894531 753.203125 798.792969 752.59375 L 791.847656 793.507812 L 980.035156 793.507812 L 987.410156 753.632812 C 984.292969 754.292969 981.15625 755.082031 978 755.710938 C 969.414062 757.414062 960.71875 758.140625 951.875 755.601562 C 936.679688 751.238281 928.570312 738.558594 928.449219 725.78125 C 928.410156 721.710938 929.164062 717.5625 930.804688 713.632812 C 929.863281 712.941406 929.011719 712.085938 928.296875 711.085938 C 917.355469 695.777344 917.503906 683.011719 922.824219 672.941406 C 922.265625 672.378906 921.757812 671.75 921.3125 671.054688 C 914.820312 660.941406 913.554688 651.945312 915.148438 644.234375 C 916.957031 635.457031 922.730469 627.886719 931.269531 622.019531 C 949.339844 609.605469 980.789062 605.066406 994.9375 606.75 C 1001.664062 607.550781 1008 608.65625 1013.957031 610.042969 Z M 908.101562 1077.960938 C 907.417969 1084.5625 906.214844 1091.136719 904.457031 1097.628906 C 901.121094 1109.972656 895.796875 1121.832031 889.21875 1133.105469 C 884.851562 1140.597656 879.925781 1147.832031 874.691406 1154.777344 C 878.058594 1154.144531 881.472656 1153.617188 884.835938 1153.226562 C 896.761719 1151.839844 908.128906 1152.359375 915.777344 1155.277344 C 921.574219 1157.488281 925.769531 1161.019531 928.285156 1165.46875 C 931.007812 1170.285156 932.101562 1176.511719 929.585938 1184.5 C 927.625 1190.730469 923.011719 1198.785156 914.414062 1208.703125 C 911.894531 1211.609375 909.140625 1214.351562 906.21875 1216.90625 C 903.351562 1219.417969 900.328125 1221.746094 897.214844 1223.875 C 876.746094 1237.886719 842.902344 1251.40625 807.847656 1259.585938 C 772.605469 1267.804688 736.191406 1270.515625 710.777344 1263.867188 C 700.605469 1261.207031 694.765625 1253.300781 692.769531 1242.207031 C 690.265625 1228.300781 695.015625 1208.003906 695.722656 1199.933594 C 697.316406 1181.6875 700.199219 1161.960938 700.019531 1145.113281 C 699.898438 1133.710938 698.960938 1123.734375 693.167969 1117.90625 C 689.988281 1114.707031 685.203125 1113.464844 678.601562 1113.6875 C 670.21875 1113.972656 659.644531 1116.640625 646.269531 1121.945312 C 628.609375 1128.949219 588.328125 1129.972656 545.785156 1119.105469 C 518.199219 1112.058594 489.679688 1100.136719 465.890625 1082.203125 C 465.296875 1081.882812 464.722656 1081.503906 464.179688 1081.066406 C 431.4375 1054.820312 404.691406 1021.40625 386.308594 983.214844 C 368.550781 946.316406 358.597656 904.953125 358.597656 861.265625 L 358.597656 506.601562 C 358.597656 428.859375 390.117188 358.480469 441.074219 307.535156 C 492.03125 256.589844 562.425781 225.082031 640.183594 225.082031 L 640.773438 225.082031 C 647.042969 225.082031 652.132812 230.171875 652.132812 236.4375 C 652.132812 242.710938 647.042969 247.800781 640.773438 247.800781 L 640.183594 247.800781 C 568.699219 247.800781 503.984375 276.765625 457.140625 323.601562 C 410.296875 370.433594 381.320312 435.132812 381.320312 506.601562 L 381.320312 861.265625 C 381.320312 901.421875 390.464844 939.445312 406.785156 973.363281 C 422.265625 1005.527344 444.199219 1034 470.902344 1057.105469 C 471.261719 1057.347656 471.609375 1057.617188 471.945312 1057.90625 C 494.625 1077.542969 523.597656 1089.988281 551.410156 1097.09375 C 588.042969 1106.453125 622.683594 1106.859375 637.890625 1100.828125 C 676.21875 1085.625 697.71875 1090.257812 709.285156 1101.890625 C 716.832031 1109.484375 720.949219 1120.828125 722.234375 1134.59375 C 724.058594 1154.105469 720.351562 1179.113281 718.359375 1201.914062 C 717.886719 1207.320312 715.214844 1218.71875 714.738281 1229.429688 C 714.605469 1232.503906 714.652344 1235.507812 715.132812 1238.183594 C 715.304688 1239.132812 715.523438 1240.023438 715.851562 1240.828125 C 716.023438 1241.253906 716.070312 1241.769531 716.53125 1241.890625 C 739.09375 1247.792969 771.394531 1244.769531 802.683594 1237.460938 C 834.6875 1229.992188 865.691406 1217.921875 884.378906 1205.128906 C 886.753906 1203.503906 889.0625 1201.730469 891.25 1199.816406 C 893.382812 1197.949219 895.398438 1195.949219 897.242188 1193.824219 C 901.773438 1188.59375 904.910156 1184.191406 906.769531 1180.433594 C 907.410156 1179.140625 907.898438 1177.589844 908.136719 1176.757812 C 907.589844 1176.519531 906.820312 1176.203125 906.234375 1176.050781 C 904.289062 1175.550781 902.058594 1175.304688 899.652344 1175.207031 C 884.433594 1174.59375 863.339844 1179.929688 853.5625 1184.484375 C 847.878906 1187.132812 841.113281 1184.667969 838.464844 1178.988281 C 838.035156 1178.058594 837.734375 1177.105469 837.570312 1176.140625 C 834.929688 1171.949219 835.269531 1166.347656 838.753906 1162.488281 C 848.070312 1152.160156 857.339844 1140.894531 865.1875 1128.804688 C 872.738281 1117.167969 878.984375 1104.769531 882.523438 1091.699219 C 889.707031 1065.132812 885.546875 1037.019531 873.722656 1012.542969 C 861.773438 987.808594 841.976562 966.722656 817.714844 954.6875 C 801.320312 946.550781 783.902344 942.332031 766.113281 940.496094 C 738.300781 937.628906 709.59375 940.539062 682.175781 944.046875 C 675.957031 944.84375 670.261719 940.441406 669.464844 934.222656 C 668.667969 928.003906 673.070312 922.308594 679.292969 921.511719 C 708.410156 917.789062 738.90625 914.851562 768.445312 917.898438 C 788.917969 920.011719 808.941406 924.972656 827.816406 934.335938 C 856.515625 948.570312 880.046875 973.402344 894.183594 1002.664062 C 901.375 1017.546875 906.132812 1033.558594 907.949219 1049.886719 C 930.09375 1064.351562 945.449219 1080.574219 956.4375 1096.8125 C 973.640625 1122.234375 980.058594 1147.726562 984.796875 1166.777344 C 986.402344 1173.238281 987.769531 1178.859375 989.445312 1183.289062 C 990.207031 1185.300781 990.550781 1187.089844 991.765625 1187.882812 C 995.589844 1190.378906 1000.476562 1189.777344 1005.621094 1188.503906 C 1011.878906 1186.949219 1018.425781 1183.964844 1024.679688 1180.578125 C 1040.164062 1172.203125 1054.210938 1162.40625 1066.484375 1152.269531 C 1081.011719 1140.265625 1093.054688 1127.789062 1102.019531 1116.589844 C 1107.527344 1109.710938 1112.179688 1102.089844 1115.035156 1094.855469 C 1116.496094 1091.144531 1117.492188 1087.574219 1117.707031 1084.324219 C 1117.847656 1082.261719 1117.902344 1080.359375 1116.753906 1079.054688 C 1115.296875 1077.390625 1113.226562 1077.152344 1111.097656 1077.207031 C 1108.625 1077.273438 1106.035156 1077.832031 1103.449219 1078.59375 C 1094.382812 1081.257812 1085.449219 1086.324219 1080.042969 1088.648438 C 1075.40625 1090.644531 1071.691406 1091.042969 1069.667969 1090.804688 C 1063.464844 1090.074219 1060.085938 1086.625 1058.992188 1080.960938 C 1056.933594 1070.269531 1054.695312 1060.324219 1052.109375 1051.089844 C 1049.253906 1040.90625 1045.984375 1031.597656 1042.039062 1023.113281 C 1027.675781 992.222656 1008.804688 969.003906 984.808594 953.898438 C 963.519531 940.496094 938.261719 933.542969 908.867188 932.933594 C 908.96875 930.394531 909.019531 927.84375 909.019531 925.292969 L 909.019531 910.214844 C 943.09375 910.871094 972.277344 919.164062 996.917969 934.675781 C 1024.347656 951.941406 1046.226562 978.226562 1062.644531 1013.535156 C 1066.246094 1021.285156 1069.367188 1029.632812 1072.128906 1038.625 C 1074.566406 1046.558594 1076.726562 1055.007812 1078.703125 1064 C 1085.121094 1061.078125 1093.765625 1057.46875 1100.511719 1055.875 C 1113.277344 1052.851562 1125.472656 1054.535156 1133.839844 1064.074219 C 1139.378906 1070.386719 1141.542969 1079.28125 1139.957031 1089.664062 C 1138.035156 1102.261719 1130.269531 1117.652344 1119.761719 1130.78125 C 1109.96875 1143.019531 1096.832031 1156.671875 1080.957031 1169.78125 C 1067.613281 1180.804688 1052.332031 1191.449219 1035.496094 1200.558594 C 1025.601562 1205.914062 1015.050781 1210.253906 1005.40625 1211.6875 C 995.703125 1213.128906 986.753906 1211.738281 979.351562 1206.910156 C 973.390625 1203.023438 968.769531 1194.738281 965.382812 1182.5 C 960.511719 1164.914062 956.269531 1137.105469 937.617188 1109.542969 C 930.320312 1098.765625 920.78125 1088.03125 908.101562 1077.960938 Z M 741.1875 438.472656 C 741.183594 432.203125 746.273438 427.109375 752.542969 427.109375 C 758.8125 427.105469 763.90625 432.191406 763.910156 438.460938 L 763.808594 459.273438 L 763.808594 482.027344 C 763.808594 488.296875 758.714844 493.386719 752.445312 493.386719 C 746.175781 493.386719 741.082031 488.296875 741.082031 482.027344 L 741.082031 459.25 C 741.082031 459.234375 741.082031 459.21875 741.082031 459.207031 Z M 602.714844 438.472656 C 602.710938 432.203125 607.800781 427.109375 614.070312 427.109375 C 620.339844 427.105469 625.433594 432.191406 625.4375 438.460938 L 625.335938 459.273438 L 625.335938 482.027344 C 625.335938 488.296875 620.242188 493.386719 613.972656 493.386719 C 607.703125 493.386719 602.609375 488.296875 602.609375 482.027344 L 602.609375 459.25 C 602.609375 459.234375 602.609375 459.21875 602.609375 459.207031 Z M 568.757812 565.285156 C 565.296875 560.058594 566.734375 553.003906 571.960938 549.542969 C 577.191406 546.082031 584.246094 547.519531 587.707031 552.746094 C 590.628906 557.160156 594.199219 560.929688 598.152344 564.265625 C 602.414062 567.859375 607.121094 570.953125 612.007812 573.765625 C 625.066406 581.289062 639.167969 585.660156 653.613281 587.195312 C 668.230469 588.753906 683.203125 587.410156 697.820312 583.519531 C 703.882812 581.90625 710.109375 585.515625 711.722656 591.570312 C 713.339844 597.628906 709.726562 603.859375 703.667969 605.46875 C 686.320312 610.089844 668.554688 611.632812 651.207031 609.789062 C 633.65625 607.921875 616.53125 602.59375 600.664062 593.453125 C 594.601562 589.957031 588.785156 586.085938 583.5 581.628906 C 577.902344 576.910156 572.894531 571.53125 568.757812 565.285156 Z M 568.757812 565.285156 " fill-opacity="1" fill-rule="evenodd"/></g></svg>