<svg xmlns="http://www.w3.org/2000/svg" xmlns:xlink="http://www.w3.org/1999/xlink" width="2000" zoomAndPan="magnify" viewBox="0 0 1500 1499.999933" height="2000" preserveAspectRatio="xMidYMid meet" version="1.0"><defs><clipPath id="b6da46cbe6"><path d="M 380 246.925781 L 1120 246.925781 L 1120 1250 L 380 1250 Z M 380 246.925781 " clip-rule="nonzero"/></clipPath></defs><path fill="#fea855" d="M 569.480469 825.472656 C 549.785156 827.046875 528.8125 820.425781 511.761719 811.808594 C 496.058594 803.875 479.566406 798.429688 465.6875 787.105469 C 430.265625 758.210938 410.335938 709.925781 400.648438 666.640625 C 395.363281 642.980469 393.339844 619.335938 392.203125 595.4375 C 391.144531 573.351562 387.601562 545.953125 398.242188 525.441406 C 400.34375 521.382812 404.890625 515.6875 410.003906 515.859375 C 414.050781 515.988281 416.890625 519.136719 420.722656 516.769531 C 427.914062 512.328125 433.042969 504.875 440.324219 500.273438 C 449.800781 494.285156 459.160156 493.730469 469.890625 492.027344 C 481.019531 490.253906 489.542969 488.007812 500.921875 490.625 C 507.914062 492.226562 515.6875 493.941406 521.160156 498.886719 C 527.355469 504.503906 530.066406 512.75 532.433594 520.523438 C 538.394531 540.097656 538.15625 561.40625 537.03125 581.601562 C 536.34375 593.972656 535.3125 606.910156 537.785156 619.152344 C 541.867188 639.375 553.566406 658.867188 569.480469 673.117188 L 569.480469 521.515625 C 569.480469 376.824219 686.75 259.546875 831.433594 259.546875 L 832 259.546875 C 900.964844 259.546875 967.101562 286.945312 1015.871094 335.707031 C 1064.640625 384.476562 1092.039062 450.617188 1092.039062 519.597656 L 1092.039062 598.398438 C 1092.039062 620.0625 1106.195312 634.246094 1106.195312 656.34375 C 1106.195312 668.027344 1092.039062 687.578125 1092.039062 699.289062 L 1092.039062 866.921875 C 1092.039062 936.023438 1064.589844 1002.292969 1015.726562 1051.160156 C 1004.570312 1062.316406 992.492188 1072.359375 979.699219 1081.214844 C 976.144531 1083.675781 972.546875 1086.027344 968.886719 1088.300781 C 969.230469 1092.6875 969.46875 1097.101562 969.613281 1101.570312 C 970.300781 1123.761719 966.640625 1146.390625 971.703125 1168.292969 C 973.183594 1174.703125 975.441406 1181.640625 980.621094 1186.042969 C 993.207031 1196.707031 1019.824219 1196.324219 1015.027344 1219.296875 C 1014.351562 1222.535156 1013.203125 1225.679688 1011.457031 1228.507812 C 1007.136719 1235.488281 998.847656 1237.839844 991.050781 1237.457031 C 983.003906 1237.0625 975.269531 1234.496094 967.261719 1233.785156 C 954.308594 1232.621094 940.257812 1232.964844 927.320312 1233.730469 C 904.230469 1235.105469 881.578125 1239.851562 858.5 1241.011719 C 829.1875 1242.492188 800.347656 1240.683594 771.097656 1240.789062 C 752.648438 1240.855469 734.277344 1242.703125 715.828125 1242.917969 C 691.640625 1243.179688 653.773438 1253.359375 636.566406 1229.910156 C 627.871094 1218.066406 638.085938 1209.359375 645.921875 1200.304688 C 656.0625 1188.59375 667.402344 1175.507812 672.421875 1160.519531 C 678.132812 1143.429688 675.792969 1125.707031 674.710938 1108.207031 C 674.007812 1096.773438 673.425781 1085.367188 672.804688 1073.960938 C 668.0625 1070.335938 663.449219 1066.570312 658.96875 1062.644531 C 604.121094 1014.613281 569.480469 944.058594 569.480469 865.417969 Z M 569.480469 825.472656 " fill-opacity="1" fill-rule="evenodd"/><g clip-path="url(#b6da46cbe6)"><path fill="#000000" d="M 979.699219 1095.464844 L 979.699219 1174.09375 C 981.203125 1174.941406 983.980469 1176.445312 986.109375 1177.4375 C 994.605469 1181.417969 1004.625 1186.558594 1011.617188 1195.902344 C 1017.605469 1203.925781 1021.699219 1215 1020.339844 1231.351562 C 1020.324219 1231.484375 1020.3125 1231.601562 1020.300781 1231.734375 C 1019.613281 1237.457031 1016.042969 1242.414062 1009.542969 1245.546875 C 999.683594 1250.292969 979.816406 1250.027344 976.128906 1249.933594 L 799.84375 1249.417969 L 662.535156 1249.933594 C 658.863281 1250.027344 638.5625 1250.332031 628.902344 1245.773438 C 621.539062 1242.296875 618.078125 1236.613281 618.300781 1230.054688 C 618.300781 1229.976562 618.300781 1229.898438 618.3125 1229.804688 C 619.144531 1214.976562 623.535156 1204.824219 629.136719 1197.449219 C 636.25 1188.078125 645.554688 1183.1875 653.339844 1179.421875 C 655.214844 1178.507812 657.632812 1177.171875 658.96875 1176.421875 L 658.96875 1078.121094 C 653.972656 1074.066406 649.121094 1069.835938 644.429688 1065.445312 C 639.660156 1060.980469 639.40625 1053.484375 643.875 1048.714844 C 648.34375 1043.941406 655.835938 1043.691406 660.605469 1048.160156 C 683.367188 1069.453125 710.117188 1086.554688 739.617188 1098.214844 C 768.058594 1109.449219 799.066406 1115.621094 831.511719 1115.621094 C 864.488281 1115.621094 896.789062 1109.078125 926.671875 1096.691406 C 937.339844 1092.277344 947.699219 1087.109375 957.664062 1081.242188 C 957.664062 1081.242188 972.046875 1072.226562 977.859375 1068 C 988.273438 1060.425781 998.136719 1052.003906 1007.359375 1042.78125 C 1030.675781 1019.464844 1048.886719 991.984375 1061.269531 962.101562 C 1073.640625 932.203125 1080.199219 899.898438 1080.199219 866.921875 L 1080.199219 763.960938 C 1079.960938 764.210938 1079.722656 764.449219 1079.484375 764.699219 C 1033.992188 810.972656 972.390625 821.839844 914.050781 811.898438 C 851.429688 801.234375 792.851562 766.472656 762.878906 727.574219 C 748.605469 709.054688 733.75 687.035156 726.214844 663.628906 C 720.769531 646.722656 719.078125 629.089844 723.546875 611.390625 C 726.203125 600.882812 731.222656 589.742188 738.625 581.097656 C 740.886719 578.46875 743.371094 576.050781 746.066406 573.933594 C 742.433594 565.011719 738.386719 558.933594 734.238281 554.585938 C 725.871094 545.820312 717.292969 543.46875 711.757812 539.277344 C 706.351562 535.179688 702.570312 530.160156 701.210938 521.964844 C 698.960938 508.480469 704.0625 497.933594 712.746094 491.445312 C 720.359375 485.761719 731.171875 483.210938 742.882812 485.617188 C 757.722656 488.644531 772.882812 497.339844 785.1875 509.039062 C 794.097656 517.507812 801.472656 527.527344 806.28125 537.902344 C 809.703125 534.757812 813.40625 532.0625 817.34375 529.894531 C 830.640625 522.625 846.578125 521.011719 863.679688 529.246094 C 867.949219 527.4375 872.40625 526.023438 876.9375 525.136719 C 883.335938 523.878906 889.902344 523.695312 896.445312 524.898438 C 912.902344 527.925781 923.804688 537.890625 930.636719 551.398438 C 938.753906 567.484375 940.667969 589.109375 939.757812 607.941406 C 939.320312 616.890625 943.128906 623.789062 949.234375 626.261719 C 955.207031 628.679688 962.503906 626.378906 968.660156 619.390625 C 972.667969 614.816406 979.632812 614.378906 984.207031 618.382812 C 988.765625 622.402344 989.214844 629.367188 985.195312 633.929688 C 971.464844 649.5625 954.308594 652.089844 940.972656 646.683594 C 927.332031 641.15625 916.785156 626.871094 917.75 606.886719 C 918.492188 591.738281 917.5 574.265625 910.972656 561.339844 C 907.230469 553.9375 901.46875 548.226562 892.441406 546.5625 C 888.660156 545.859375 884.867188 546.03125 881.15625 546.746094 C 877.058594 547.550781 873.078125 549.03125 869.324219 550.882812 C 865.664062 552.679688 862.121094 554.78125 858.832031 557.226562 C 855.644531 559.582031 852.699219 562.238281 850.09375 565.222656 C 848.707031 566.808594 847.359375 568.476562 846.167969 570.234375 C 845.125 571.753906 844.1875 573.367188 843.460938 575.058594 C 842.191406 578.003906 841.425781 580.554688 841.160156 582.789062 C 840.988281 584.203125 840.894531 585.355469 841.453125 586.171875 C 842.390625 587.5625 844.34375 587.640625 846.34375 587.824219 C 854.8125 588.59375 865.929688 584.746094 872.429688 578.691406 C 876.886719 574.554688 883.863281 574.792969 888 579.246094 C 892.148438 583.6875 891.898438 590.667969 887.445312 594.816406 C 879.925781 601.824219 868.664062 607.097656 857.773438 609.050781 C 857.179688 609.171875 856.570312 609.265625 855.976562 609.355469 C 853.054688 629.605469 830.496094 641.449219 810.5625 636.121094 C 806.28125 634.972656 802.050781 633.070312 798.234375 630.292969 C 797.335938 631.945312 796.371094 633.558594 795.339844 635.128906 C 792.007812 640.207031 788.03125 644.871094 783.867188 649.390625 C 779.753906 653.871094 772.777344 654.164062 768.296875 650.054688 C 763.828125 645.941406 763.539062 638.964844 767.648438 634.484375 C 770.464844 631.417969 773.214844 628.296875 775.617188 624.953125 C 777.722656 622.003906 779.558594 618.886719 780.867188 615.421875 C 782.121094 612.105469 782.953125 608.40625 783.179688 604.730469 C 782.675781 601.941406 782.386719 598.953125 782.292969 595.742188 C 782.265625 595.625 782.226562 595.492188 782.1875 595.371094 C 780.824219 590.90625 777.546875 587.457031 771.695312 587.019531 C 770.6875 586.941406 769.683594 586.941406 768.695312 587.046875 C 767.859375 587.136719 767.042969 587.308594 766.234375 587.585938 C 760.710938 589.53125 756.414062 593.613281 753.042969 598.425781 C 749.132812 603.992188 746.476562 610.558594 744.902344 616.785156 C 741.480469 630.371094 743.011719 643.894531 747.191406 656.875 C 753.945312 677.890625 767.515625 697.503906 780.324219 714.128906 C 807.523438 749.421875 860.933594 780.507812 917.738281 790.183594 C 969.175781 798.945312 1023.671875 790.050781 1063.769531 749.25 C 1078.386719 734.378906 1095.992188 697.621094 1097.566406 658.207031 C 1098.78125 627.902344 1090.28125 595.835938 1062.488281 571.105469 C 1057.941406 567.0625 1057.542969 560.097656 1061.589844 555.550781 C 1065.621094 551.015625 1072.585938 550.605469 1077.132812 554.648438 C 1078.175781 555.574219 1079.191406 556.515625 1080.199219 557.453125 L 1080.199219 519.597656 C 1080.199219 486.671875 1073.65625 454.4375 1061.296875 424.605469 C 1048.941406 394.773438 1030.765625 367.359375 1007.507812 344.085938 C 984.257812 320.835938 959.382812 302.410156 932.078125 289.828125 C 904.839844 277.285156 875.179688 270.558594 842.375 270.558594 C 835.847656 270.558594 830.535156 265.257812 830.535156 258.714844 C 830.535156 252.183594 835.847656 246.886719 842.375 246.886719 C 878.816406 246.886719 911.738281 254.378906 941.992188 268.324219 C 971.742188 282.042969 998.914062 302 1024.25 327.339844 C 1049.734375 352.835938 1069.652344 382.863281 1083.183594 415.550781 C 1096.71875 448.222656 1103.882812 483.539062 1103.882812 519.597656 L 1103.882812 586.808594 C 1103.882812 587.152344 1103.855469 587.480469 1103.828125 587.800781 C 1116.320312 610.402344 1120.535156 635.171875 1119.582031 659.09375 C 1118.59375 683.625 1112.050781 707.179688 1103.578125 726.4375 C 1103.777344 727.296875 1103.882812 728.179688 1103.882812 729.09375 L 1103.882812 866.921875 C 1103.882812 903.046875 1096.703125 938.429688 1083.144531 971.15625 C 1069.585938 1003.894531 1049.640625 1033.988281 1024.105469 1059.527344 C 1010.492188 1073.125 995.597656 1085.15625 979.699219 1095.464844 Z M 681 1094.273438 L 681 1178.628906 C 681 1185.261719 677.894531 1190.390625 671.710938 1194.527344 C 668.988281 1196.351562 665.40625 1198.03125 661.453125 1199.960938 C 656.640625 1202.324219 650.945312 1205.15625 646.675781 1210.757812 C 643.835938 1214.511719 641.734375 1219.480469 640.78125 1226.0625 L 661.875 1227.929688 C 662.074219 1227.914062 662.257812 1227.914062 662.457031 1227.902344 L 789.246094 1227.4375 C 789.65625 1227.386719 790.078125 1227.371094 790.5 1227.371094 L 799.832031 1227.398438 L 807.101562 1227.371094 C 807.472656 1227.371094 807.839844 1227.386719 808.210938 1227.414062 L 809.664062 1227.425781 L 809.664062 1138.445312 C 782.054688 1136.265625 755.609375 1129.988281 730.921875 1120.234375 C 713.316406 1113.28125 696.597656 1104.542969 681 1094.273438 Z M 831.683594 1139.304688 L 831.683594 1227.492188 L 976.195312 1227.902344 C 976.394531 1227.902344 976.59375 1227.914062 976.789062 1227.929688 C 976.789062 1227.929688 990.734375 1229.105469 998.558594 1226.289062 C 998.71875 1218.636719 996.984375 1213.136719 993.972656 1209.09375 C 990.535156 1204.492188 985.710938 1201.785156 981.269531 1199.550781 C 976.144531 1196.984375 971.265625 1194.964844 967.75 1192.757812 C 960.945312 1188.488281 957.664062 1183.082031 957.664062 1176.605469 L 957.664062 1108.324219 C 950.503906 1112.066406 943.191406 1115.488281 935.738281 1118.566406 C 903.054688 1132.101562 867.738281 1139.28125 831.683594 1139.304688 Z M 837.894531 546.125 C 831.84375 546.8125 826.34375 549.546875 821.691406 553.605469 C 811.765625 562.316406 805.355469 576.40625 804.433594 590.296875 C 804.363281 591.40625 804.3125 592.476562 804.3125 593.507812 C 804.816406 596.246094 805.09375 599.085938 805.132812 601.957031 C 806.269531 606.910156 808.527344 610.480469 811.6875 612.714844 C 816.234375 615.925781 822.167969 616.070312 826.9375 614.167969 C 830.179688 612.886719 833.003906 610.53125 833.929688 607.214844 C 833.8125 607.175781 833.691406 607.121094 833.574219 607.070312 C 828.351562 604.730469 824.296875 601.042969 821.746094 596.046875 C 818.402344 589.464844 817.476562 579.75 823.210938 566.386719 C 824.242188 563.957031 825.511719 561.628906 826.925781 559.394531 C 828.867188 556.328125 831.128906 553.449219 833.496094 550.738281 C 834.894531 549.125 836.363281 547.59375 837.894531 546.125 Z M 766.273438 565.15625 L 766.289062 565.144531 C 768.613281 564.894531 770.964844 564.867188 773.320312 565.050781 C 778.449219 565.421875 782.863281 566.636719 786.65625 568.503906 C 787.804688 565.183594 789.179688 561.945312 790.738281 558.828125 C 790.117188 557.847656 789.628906 556.753906 789.335938 555.5625 C 786.589844 544.699219 779.28125 533.820312 770 525.003906 C 760.789062 516.242188 749.582031 509.472656 738.46875 507.199219 C 733.628906 506.207031 729.082031 506.75 725.9375 509.101562 C 723.347656 511.03125 722.261719 514.335938 722.9375 518.355469 C 723.292969 520.484375 724.601562 521.460938 726.136719 522.464844 C 727.550781 523.390625 729.136719 524.25 730.828125 525.1875 C 736.644531 528.414062 743.410156 532.285156 750.175781 539.371094 C 755.753906 545.214844 761.359375 553.261719 766.273438 565.15625 Z M 569.480469 830.3125 C 540.757812 832.570312 511.839844 827.839844 485.566406 814.78125 C 454.070312 799.144531 426.289062 771.558594 407.453125 729.355469 C 397.25 706.476562 381.417969 632.738281 380.097656 578.71875 C 379.621094 559.222656 381.113281 542.1875 385.011719 530.566406 C 388.992188 518.6875 395.824219 511.574219 404.058594 509.183594 C 410.839844 507.214844 416.71875 507.515625 421.792969 509.5 C 424.003906 506.378906 426.644531 503.484375 429.699219 500.910156 C 433.53125 497.671875 438.039062 494.933594 443.246094 492.914062 C 442.570312 483.488281 441.9375 473.90625 441.34375 464.601562 C 439.625 437.003906 438.34375 411.769531 438.195312 399.769531 C 438.117188 393.609375 438.753906 389.75 439.109375 388.773438 C 439.996094 386.300781 441.910156 383.484375 445.398438 381.144531 C 448.664062 378.964844 454.269531 376.796875 460.585938 375.410156 C 466.945312 374.023438 474.039062 373.335938 479.589844 373.707031 C 484.667969 374.035156 488.804688 375.382812 491.445312 377.101562 C 492.464844 377.761719 495.914062 380.738281 497.367188 387.503906 C 498.597656 393.28125 500.300781 405.585938 502.101562 421.289062 C 504.265625 440.265625 506.59375 464.308594 508.523438 487.679688 C 525.703125 488.789062 536.527344 498.054688 543.242188 511.496094 C 548.703125 522.414062 551.121094 536.621094 551.714844 551.386719 C 552.535156 572.019531 549.890625 593.707031 549.175781 606.9375 C 548.953125 611.023438 548.792969 615.160156 548.941406 619.269531 C 549.070312 622.957031 549.453125 626.632812 550.355469 630.214844 C 553.710938 643.734375 560.53125 653.476562 569.480469 660.429688 L 569.480469 686.296875 C 568.316406 685.714844 567.179688 685.105469 566.042969 684.484375 C 548.542969 674.691406 534.890625 659.304688 528.980469 635.527344 C 527.964844 631.457031 527.371094 627.292969 527.09375 623.089844 C 526.695312 617.328125 526.867188 611.484375 527.183594 605.75 C 528.125 588.328125 532.972656 555.3125 527.054688 531.269531 C 525.042969 523.140625 521.964844 516.054688 515.820312 512.316406 C 514.179688 511.308594 512.316406 510.597656 510.242188 510.148438 C 512.171875 537.191406 513.226562 560.53125 512.394531 569.984375 C 511.984375 574.699219 509.699219 579.460938 505.628906 583.492188 C 500.34375 588.699219 491.710938 592.796875 482.84375 593.679688 C 469.414062 595.042969 456.027344 589.691406 451.097656 574.015625 C 449.707031 569.597656 447.355469 545.835938 445.054688 516.835938 C 444.648438 517.125 444.261719 517.445312 443.894531 517.746094 C 441.382812 519.863281 439.425781 522.386719 438 525.136719 C 445.269531 538.867188 447.804688 558.628906 448.375 566.996094 C 448.785156 573.0625 444.199219 578.324219 438.128906 578.730469 C 432.0625 579.140625 426.804688 574.554688 426.394531 568.488281 C 426.011719 562.820312 424.835938 550.289062 420.84375 540.097656 C 418.664062 534.519531 416.296875 528.574219 410.191406 530.34375 C 408.988281 530.6875 408.40625 531.996094 407.652344 533.382812 C 406.316406 535.882812 405.3125 539.015625 404.507812 542.621094 C 401.375 556.710938 401.480469 576.972656 403.253906 598.863281 C 407.125 646.429688 419.203125 701.601562 427.570312 720.382812 C 443.972656 757.152344 467.933594 781.433594 495.371094 795.058594 C 518.554688 806.574219 544.140625 810.5 569.480469 808.199219 Z M 779.53125 384.171875 C 779.542969 378.09375 784.5 373.175781 790.582031 373.203125 C 796.660156 373.214844 801.578125 378.171875 801.550781 384.253906 L 801.484375 403.21875 C 801.457031 409.300781 796.515625 414.214844 790.433594 414.191406 C 784.355469 414.175781 779.4375 409.21875 779.453125 403.140625 Z M 683.816406 383.816406 C 683.84375 377.738281 688.796875 372.820312 694.878906 372.847656 C 700.957031 372.859375 705.875 377.816406 705.847656 383.894531 L 705.78125 402.863281 C 705.753906 408.941406 700.800781 413.859375 694.71875 413.832031 C 688.652344 413.820312 683.738281 408.863281 683.75 402.785156 Z M 707.59375 461.613281 C 701.511719 461.691406 696.503906 456.816406 696.425781 450.734375 C 696.34375 444.667969 701.222656 439.660156 707.300781 439.578125 L 772.59375 438.734375 C 778.671875 438.65625 783.667969 443.519531 783.746094 449.597656 C 783.828125 455.679688 778.949219 460.675781 772.871094 460.753906 Z M 707.59375 461.613281 " fill-opacity="1" fill-rule="evenodd"/></g></svg>