<svg xmlns="http://www.w3.org/2000/svg" xmlns:xlink="http://www.w3.org/1999/xlink" width="2000" zoomAndPan="magnify" viewBox="0 0 1500 1499.999933" height="2000" preserveAspectRatio="xMidYMid meet" version="1.0"><defs><clipPath id="98087b3c15"><path d="M 318 254.296875 L 1180 254.296875 L 1180 1245.796875 L 318 1245.796875 Z M 318 254.296875 " clip-rule="nonzero"/></clipPath></defs><path fill="#fea855" d="M 493.199219 560.480469 L 493.199219 519.59375 C 493.199219 379.429688 606.835938 265.796875 747.019531 265.796875 L 747.570312 265.796875 C 814.394531 265.796875 878.480469 292.339844 925.734375 339.59375 C 972.984375 386.84375 999.53125 450.917969 999.53125 517.738281 L 999.53125 544.972656 C 1010.652344 544.84375 1022.328125 549.992188 1032.023438 554.921875 C 1054.546875 566.371094 1071.753906 587.910156 1089.976562 604.875 C 1108.640625 622.253906 1131.105469 637.347656 1147.679688 656.699219 C 1174.238281 687.6875 1175.167969 735.230469 1157.019531 770.613281 C 1152.632812 779.164062 1149.34375 786.875 1142.269531 793.675781 C 1136.183594 799.527344 1129.824219 806.519531 1122.3125 810.5 C 1112.964844 815.457031 1100.210938 818.644531 1093.234375 826.992188 C 1080.789062 841.886719 1096.617188 865.253906 1079.816406 877.253906 C 1071.277344 883.347656 1061.464844 881.902344 1052.171875 885.589844 C 1047.597656 887.40625 1044.964844 891.121094 1041.320312 894.15625 C 1035.957031 898.613281 1030.320312 901.621094 1023.347656 902.695312 C 1014.15625 904.09375 1004.457031 902.042969 995.765625 897.675781 C 995.179688 901.03125 994.523438 904.386719 993.800781 907.714844 C 983.613281 954.699219 960.121094 998.199219 925.59375 1032.71875 C 915.464844 1042.847656 904.5625 1052.03125 893.027344 1060.199219 C 889.816406 1062.480469 886.550781 1064.667969 883.242188 1066.792969 C 881.402344 1101.523438 879.648438 1138.746094 885.097656 1169.582031 C 888.125 1186.703125 905.757812 1187.496094 914.75 1199.609375 C 918.675781 1204.898438 922.578125 1214.039062 918.289062 1220.136719 C 909.367188 1232.824219 886.753906 1233.171875 872.957031 1234.632812 C 848.902344 1237.179688 823.84375 1237.488281 799.667969 1236.167969 C 783.675781 1235.296875 768.070312 1232.414062 751.917969 1233.105469 C 732.65625 1233.9375 713.480469 1237.089844 694.207031 1237.882812 C 679.074219 1238.511719 663.925781 1236.460938 648.769531 1236.742188 C 632.484375 1237.050781 615.589844 1240.660156 599.355469 1238.410156 C 587.242188 1236.71875 557.804688 1234.835938 555.730469 1218.546875 C 553.859375 1203.859375 575.976562 1193.910156 582.796875 1183.015625 C 592.625 1167.316406 592.644531 1143.742188 593.234375 1125.890625 C 593.988281 1103.277344 592.308594 1079.34375 596.105469 1056.894531 C 591.363281 1053.386719 586.746094 1049.710938 582.265625 1045.882812 C 531.136719 1002.207031 497.5625 938.589844 493.59375 867.074219 C 488.480469 867.90625 483.367188 868.457031 478.429688 868.828125 C 463.476562 869.980469 447.921875 873.398438 432.914062 872.246094 C 409.980469 870.503906 388.332031 858.328125 370.828125 843.921875 C 307.878906 792.148438 337.757812 702.464844 381.207031 643.929688 C 406.117188 610.382812 441.363281 581.800781 480.257812 565.652344 C 484.742188 563.785156 489.007812 562.03125 493.199219 560.480469 Z M 650.101562 682.527344 L 630.832031 690.527344 C 623.261719 698.378906 620.640625 707.878906 618.441406 718.367188 C 615.167969 733.949219 614.609375 750.417969 623.398438 764.414062 C 643.878906 797.054688 701.230469 800.128906 728.46875 774.300781 C 736.894531 766.308594 739.152344 755.554688 741.316406 744.605469 C 745.105469 725.398438 744.738281 702.785156 730.371094 688.132812 C 726.707031 684.394531 721.535156 682.078125 717.164062 679.285156 C 711.714844 675.804688 705.960938 673.535156 699.65625 672.0625 C 692.214844 670.324219 684.890625 670.910156 677.382812 672.027344 C 667.792969 673.445312 657.132812 675.34375 650.101562 682.527344 Z M 999.53125 711.503906 L 999.53125 750.839844 C 1007.089844 746.667969 1015.914062 744.71875 1023.632812 740.917969 C 1026.9375 739.289062 1032.9375 736.101562 1034.472656 732.464844 C 1034.476562 732.453125 1032.925781 731.710938 1032.746094 731.621094 C 1031.722656 731.09375 1030.695312 730.570312 1029.675781 730.03125 C 1026.070312 728.136719 1022.515625 726.140625 1019.019531 724.050781 C 1012.371094 720.109375 1005.820312 715.984375 999.53125 711.503906 Z M 999.53125 711.503906 " fill-opacity="1" fill-rule="evenodd"/><g clip-path="url(#98087b3c15)"><path fill="#060000" d="M 454.875 590.007812 C 448.878906 593.132812 442.613281 596.820312 436.1875 601.109375 C 423.9375 609.292969 411.117188 619.691406 398.429688 632.664062 C 388.144531 643.175781 378.753906 654.355469 370.582031 666.339844 C 362.496094 678.199219 355.605469 690.847656 350.226562 704.433594 C 335.210938 742.324219 337.292969 778.257812 353.691406 805.953125 C 370.058594 833.574219 400.488281 852.691406 441.070312 857.75 C 461.679688 860.324219 481.921875 859.339844 502.011719 856.738281 C 541.292969 851.644531 580.023438 840.566406 619.613281 835.929688 C 617.882812 831.027344 617.253906 825.609375 617.496094 819.949219 C 617.933594 809.808594 621.347656 798.757812 624.097656 789.792969 C 612.335938 781.648438 605.550781 770.703125 605.058594 758.253906 C 605.054688 758.242188 605.054688 758.230469 605.054688 758.214844 C 604.734375 749.113281 605.113281 740.238281 605.757812 732.515625 C 606.371094 725.089844 607.230469 718.714844 607.933594 714.207031 C 608.074219 712.566406 608.304688 710.953125 608.621094 709.351562 C 593.285156 706.191406 577.082031 704.191406 560.707031 703.679688 L 517.269531 706.023438 C 501.300781 708.339844 485.777344 712.398438 471.390625 718.519531 C 465.972656 720.824219 459.699219 718.304688 457.394531 712.886719 C 455.089844 707.46875 457.613281 701.195312 463.035156 698.890625 C 487.246094 688.582031 514.351562 683.449219 541.683594 682.410156 C 567.613281 681.425781 593.742188 684.125 617.703125 689.480469 C 620.34375 685.984375 623.472656 682.703125 627.039062 679.695312 C 640.523438 668.351562 660.472656 660.949219 682.804688 660.949219 C 687.238281 660.949219 691.582031 661.230469 695.800781 661.792969 C 697.941406 658.824219 700.382812 656.160156 703.054688 653.753906 C 707.125 650.089844 711.734375 647.03125 716.585938 644.339844 C 727.011719 638.578125 738.21875 635.300781 749.660156 634.277344 C 760.914062 633.277344 772.40625 634.46875 783.589844 637.644531 C 789.253906 639.269531 792.542969 645.171875 790.929688 650.832031 C 789.316406 656.503906 783.40625 659.785156 777.742188 658.171875 C 769.109375 655.710938 760.242188 654.765625 751.554688 655.53125 C 743.03125 656.289062 734.6875 658.722656 726.921875 663.011719 C 724.214844 664.507812 721.597656 666.148438 719.199219 668.042969 C 726.539062 671.128906 733.089844 675.085938 738.570312 679.695312 C 741.007812 681.757812 743.246094 683.933594 745.257812 686.238281 C 745.367188 686.214844 745.472656 686.199219 745.578125 686.1875 C 765.445312 683.371094 785.355469 685.804688 803.492188 692.796875 C 821.648438 699.8125 838.03125 711.386719 850.816406 726.855469 C 861.535156 739.828125 868.410156 756.742188 869.460938 773.632812 C 870.558594 791.332031 865.351562 808.964844 852.011719 822.445312 C 850.285156 824.1875 848.109375 825.214844 845.851562 825.507812 C 846.394531 830.578125 846.46875 835.648438 846.050781 840.617188 C 843.9375 865.675781 829.78125 888.164062 801.527344 895.667969 C 800.652344 895.910156 799.777344 896.023438 798.910156 896.039062 L 798.882812 896.089844 C 786.332031 922.480469 760.410156 940.714844 726.472656 933.402344 C 723.351562 932.738281 720.257812 931.828125 717.273438 930.648438 C 714.152344 929.421875 711.148438 927.898438 708.34375 926.066406 C 692.445312 915.65625 687.234375 903.273438 687.84375 891.785156 C 688.425781 880.75 695.222656 869.683594 705.566406 861.015625 C 705.210938 860.914062 704.851562 860.8125 704.492188 860.707031 C 693.582031 857.710938 682.113281 856.214844 670.859375 855.574219 C 670.476562 855.574219 670.089844 855.574219 669.699219 855.574219 C 668.230469 855.5625 666.707031 855.457031 665.175781 855.304688 C 660.191406 855.140625 655.277344 855.113281 650.5 855.175781 C 600.9375 855.84375 553.289062 871.605469 504.761719 877.90625 C 482.894531 880.734375 460.859375 881.734375 438.425781 878.929688 C 390.34375 872.9375 354.714844 849.570312 335.328125 816.824219 C 315.898438 784.019531 312.589844 741.480469 330.382812 696.574219 C 336.347656 681.515625 343.980469 667.480469 352.945312 654.328125 C 361.820312 641.304688 372.003906 629.152344 383.167969 617.746094 C 396.996094 603.609375 410.976562 592.289062 424.328125 583.375 C 429.617188 579.828125 434.8125 576.679688 439.863281 573.859375 C 440.460938 573.386719 441.113281 572.964844 441.824219 572.621094 C 443.035156 572.03125 444.21875 571.453125 445.382812 570.890625 C 453.386719 566.742188 460.96875 563.488281 467.921875 560.992188 C 470.6875 559.929688 473.363281 558.96875 475.992188 558.097656 C 481.832031 556.152344 487.425781 554.640625 493.199219 553.410156 L 493.199219 575.308594 C 489.730469 576.167969 486.28125 577.164062 482.730469 578.34375 C 482.289062 578.496094 481.84375 578.636719 481.398438 578.792969 C 480.800781 579.125 480.164062 579.394531 479.492188 579.609375 C 478.128906 580.046875 476.734375 580.507812 475.3125 581.019531 C 469.152344 583.402344 462.511719 586.347656 454.875 590.007812 Z M 736.289062 714.933594 C 735.058594 705.640625 728.355469 697.597656 718.992188 691.820312 C 709.257812 685.828125 696.601562 682.28125 682.804688 682.28125 C 669.003906 682.28125 656.347656 685.828125 646.613281 691.820312 C 638.523438 696.816406 632.417969 703.488281 630.117188 711.222656 C 630.109375 711.246094 630.105469 711.273438 630.097656 711.296875 C 630.097656 711.296875 629.695312 713.269531 629.15625 716.664062 C 629.128906 717.113281 629.117188 717.574219 629.117188 718.035156 C 629.117188 728.664062 636.222656 737.84375 646.613281 744.246094 C 656.347656 750.25 669.003906 753.785156 682.804688 753.785156 C 696.601562 753.785156 709.257812 750.25 718.992188 744.246094 C 727.753906 738.84375 734.183594 731.46875 735.984375 722.914062 Z M 840.367188 803.328125 C 846.539062 795.042969 848.78125 784.980469 848.15625 774.953125 C 847.382812 762.492188 842.273438 750.035156 834.363281 740.457031 C 823.945312 727.855469 810.597656 718.417969 795.808594 712.707031 C 783.375 707.90625 769.925781 705.742188 756.332031 706.535156 C 756.375 706.6875 756.414062 706.84375 756.453125 706.984375 C 757.371094 708.671875 757.847656 710.632812 757.730469 712.695312 L 757.671875 714.207031 C 757.777344 715.472656 757.835938 716.753906 757.835938 718.035156 C 757.835938 720.480469 757.636719 722.886719 757.25 725.257812 C 756.71875 739.214844 755.933594 759.816406 755.933594 759.804688 C 755.78125 771.867188 747.28125 784.199219 731.832031 792.765625 C 725.425781 796.3125 717.792969 799.269531 709.308594 801.371094 C 707.085938 806.234375 705.21875 811.460938 703.972656 816.800781 C 702.425781 823.472656 701.832031 830.335938 702.902344 836.917969 C 702.984375 837.402344 703.03125 837.890625 703.042969 838.375 C 705.425781 838.902344 707.796875 839.492188 710.140625 840.132812 C 723.972656 843.921875 737.011719 849.796875 748.171875 858.542969 C 752.808594 862.179688 753.625 868.890625 749.992188 873.527344 C 746.359375 878.164062 739.644531 878.980469 735.007812 875.34375 C 733.039062 873.796875 730.992188 872.375 728.882812 871.054688 C 720.210938 875.332031 712.910156 881.542969 710.105469 888.738281 C 707.539062 895.320312 710.609375 902.03125 720.035156 908.203125 C 721.625 909.253906 723.328125 910.097656 725.09375 910.789062 C 727 911.546875 728.976562 912.109375 730.964844 912.542969 C 753.871094 917.472656 771.140625 904.734375 779.609375 886.921875 C 788.355469 868.53125 788.273438 844.691406 775.335938 827.609375 C 771.78125 822.921875 772.707031 816.222656 777.402344 812.664062 C 782.097656 809.105469 788.796875 810.039062 792.355469 814.726562 C 804.570312 830.859375 808.753906 851.359375 806.257812 870.8125 C 817.847656 863.921875 823.6875 851.808594 824.78125 838.824219 C 826.234375 821.601562 819.785156 802.726562 806.882812 790.714844 C 802.574219 786.707031 802.335938 779.945312 806.347656 775.632812 C 810.363281 771.328125 817.125 771.085938 821.433594 775.105469 C 829.746094 782.839844 836.140625 792.664062 840.367188 803.328125 Z M 626.335938 755.785156 C 626.347656 756.335938 626.367188 756.886719 626.386719 757.4375 C 626.746094 766.335938 634.589844 772.609375 645.179688 777.039062 C 655.046875 781.175781 667.441406 783.390625 680.902344 783.390625 C 686.667969 783.390625 692.230469 782.917969 697.480469 782.046875 C 699.167969 781.214844 701.058594 780.832031 702.960938 780.957031 C 707.433594 779.921875 711.617188 778.589844 715.433594 777 C 722.078125 774.234375 727.546875 770.777344 731.132812 766.730469 C 733.148438 764.453125 734.570312 762.070312 734.589844 759.511719 C 734.589844 759.496094 734.589844 759.484375 734.589844 759.472656 C 721.308594 769.0625 703.03125 775.132812 682.804688 775.132812 C 660.472656 775.132812 640.523438 767.730469 627.039062 756.386719 C 626.800781 756.179688 626.570312 755.976562 626.335938 755.785156 Z M 893.027344 1074.105469 L 893.027344 1172 C 894.5 1172.820312 897.175781 1174.28125 899.242188 1175.242188 C 907.484375 1179.09375 917.191406 1184.078125 923.957031 1193.128906 C 929.765625 1200.902344 933.734375 1211.621094 932.40625 1227.472656 C 932.394531 1227.589844 932.382812 1227.714844 932.367188 1227.832031 C 931.710938 1233.375 928.246094 1238.179688 921.945312 1241.226562 C 912.398438 1245.824219 893.148438 1245.566406 889.582031 1245.476562 L 718.761719 1244.976562 L 585.722656 1245.476562 C 582.160156 1245.566406 562.492188 1245.847656 553.132812 1241.441406 C 545.992188 1238.074219 542.632812 1232.570312 542.855469 1226.207031 C 542.859375 1226.128906 542.863281 1226.050781 542.867188 1225.972656 C 543.675781 1211.59375 547.933594 1201.761719 553.359375 1194.613281 C 560.246094 1185.550781 569.265625 1180.796875 576.8125 1177.148438 C 578.632812 1176.277344 580.972656 1174.972656 582.265625 1174.253906 L 582.265625 1045.882812 C 589.078125 1051.695312 596.199219 1057.164062 603.609375 1062.25 L 603.609375 1176.394531 C 603.609375 1182.808594 600.597656 1187.777344 594.601562 1191.796875 C 591.96875 1193.566406 588.503906 1195.191406 584.671875 1197.0625 C 580.011719 1199.339844 574.488281 1202.09375 570.359375 1207.523438 C 567.601562 1211.148438 565.570312 1215.972656 564.640625 1222.351562 L 585.082031 1224.144531 C 585.269531 1224.144531 585.457031 1224.128906 585.640625 1224.128906 L 708.496094 1223.671875 C 708.894531 1223.632812 709.300781 1223.605469 709.707031 1223.605469 L 718.753906 1223.632812 L 725.789062 1223.605469 C 726.152344 1223.605469 726.511719 1223.632812 726.867188 1223.65625 L 728.277344 1223.671875 L 728.277344 1117.464844 C 727.292969 1117.386719 726.304688 1117.324219 725.320312 1117.234375 C 718.019531 1116.644531 710.804688 1115.761719 703.679688 1114.582031 C 697.433594 1113.558594 693.195312 1107.65625 694.226562 1101.40625 C 695.253906 1095.15625 701.160156 1090.917969 707.40625 1091.945312 C 713.914062 1093.019531 720.507812 1093.824219 727.179688 1094.375 C 733.746094 1094.902344 740.386719 1095.183594 747.09375 1095.183594 C 779.046875 1095.183594 810.347656 1088.832031 839.304688 1076.832031 C 868.265625 1064.847656 894.886719 1047.203125 917.480469 1024.601562 C 940.078125 1002.011719 957.722656 975.390625 969.71875 946.4375 C 981.710938 917.488281 988.058594 886.191406 988.058594 854.230469 L 988.058594 517.738281 C 988.058594 485.851562 981.726562 454.605469 969.753906 425.71875 C 957.78125 396.816406 940.171875 370.246094 917.621094 347.699219 C 895.070312 325.148438 868.503906 307.539062 839.601562 295.582031 C 810.699219 283.609375 779.460938 277.269531 747.570312 277.269531 C 741.238281 277.269531 736.097656 272.132812 736.097656 265.796875 C 736.097656 259.46875 741.238281 254.324219 747.570312 254.324219 C 782.503906 254.324219 816.722656 261.261719 848.382812 274.375 C 880.042969 287.488281 909.144531 306.785156 933.84375 331.472656 C 958.546875 356.175781 977.835938 385.28125 990.949219 416.933594 C 1004.066406 448.589844 1011.003906 482.804688 1011.003906 517.738281 L 1011.003906 533.703125 C 1012.273438 534.394531 1013.539062 535.101562 1014.800781 535.804688 C 1032.058594 545.472656 1048.734375 556 1064.394531 567.101562 C 1090.097656 585.335938 1113.078125 605.15625 1131.5 625.273438 C 1146.542969 641.703125 1158.566406 658.363281 1166.691406 674.5625 C 1192.292969 725.589844 1178.449219 771.585938 1146.324219 803.890625 C 1131.277344 819.039062 1112.085938 831.089844 1091.058594 839.105469 C 1091.601562 840.105469 1092.101562 841.117188 1092.554688 842.152344 C 1094.546875 846.699219 1095.636719 851.554688 1095.449219 856.636719 C 1095.035156 868.058594 1088.171875 878.355469 1078.285156 885.21875 C 1071.933594 889.609375 1064.425781 892.515625 1057.121094 893.542969 C 1057.042969 893.71875 1056.964844 893.898438 1056.882812 894.078125 C 1052.742188 903.195312 1045.039062 910.367188 1033.292969 912.773438 C 1022.136719 915.054688 1012.683594 914.402344 1004.585938 912.082031 C 1001.265625 926.847656 996.6875 941.277344 990.914062 955.222656 C 977.777344 986.929688 958.453125 1016.085938 933.707031 1040.824219 C 921.195312 1053.335938 907.554688 1064.464844 893.027344 1074.105469 Z M 749.621094 1118.105469 L 749.621094 1223.722656 L 889.640625 1224.128906 C 889.832031 1224.128906 890.027344 1224.144531 890.214844 1224.144531 C 890.214844 1224.144531 903.730469 1225.296875 911.304688 1222.570312 C 911.464844 1215.15625 909.789062 1209.828125 906.859375 1205.894531 C 903.527344 1201.441406 898.863281 1198.828125 894.558594 1196.664062 C 889.585938 1194.167969 884.859375 1192.207031 881.453125 1190.082031 C 874.863281 1185.945312 871.683594 1180.707031 871.683594 1174.433594 L 871.683594 1086.859375 C 864.003906 1090.96875 856.128906 1094.710938 848.085938 1098.039062 C 817.136719 1110.855469 783.738281 1117.785156 749.621094 1118.105469 Z M 1011.003906 558.199219 L 1011.003906 707.738281 C 1019.90625 712.386719 1027.878906 716.433594 1034.015625 719.570312 C 1039.957031 722.605469 1044.292969 724.820312 1046.296875 725.972656 C 1056.917969 732.03125 1050.320312 743.105469 1049.402344 743.9375 C 1046.863281 746.269531 1043.660156 747.769531 1039.5625 748.550781 C 1035.410156 749.34375 1029.355469 748.945312 1021.742188 752.132812 C 1018.457031 753.503906 1014.882812 755.589844 1011.003906 758.765625 L 1011.003906 854.230469 C 1011.003906 866.574219 1010.140625 878.839844 1008.441406 890.917969 C 1008.59375 890.980469 1008.746094 891.03125 1008.902344 891.082031 C 1014.460938 892.964844 1021.066406 893.488281 1029.007812 891.863281 C 1034.148438 890.8125 1037.097656 887.191406 1038.292969 882.898438 C 1038.300781 882.632812 1038.320312 882.363281 1038.347656 882.09375 C 1038.433594 881.222656 1038.621094 880.390625 1038.898438 879.597656 C 1039.398438 874.578125 1038.136719 869.171875 1035.398438 864.859375 C 1033.328125 861.605469 1030.566406 858.789062 1027.578125 856.214844 C 1024.101562 853.21875 1020.300781 850.566406 1016.640625 848.070312 C 1012.667969 845.355469 1011 840.324219 1012.566406 835.777344 C 1014.132812 831.230469 1018.546875 828.300781 1023.347656 828.605469 C 1062.921875 831.179688 1104.554688 815.636719 1131.1875 788.859375 C 1157.195312 762.6875 1168.339844 725.4375 1147.613281 684.125 C 1138.605469 666.171875 1124.183594 647.671875 1106.089844 629.601562 C 1090.472656 614.003906 1072.125 598.753906 1052.042969 584.515625 C 1039.003906 575.257812 1025.234375 566.433594 1011.003906 558.199219 Z M 1069.917969 845.636719 C 1063.46875 847.1875 1056.929688 848.351562 1050.351562 849.121094 C 1051.449219 850.503906 1052.472656 851.9375 1053.414062 853.421875 C 1056.757812 858.6875 1058.914062 864.78125 1059.804688 871.015625 C 1062.019531 870.171875 1064.167969 869.03125 1066.121094 867.675781 C 1070.351562 864.742188 1073.941406 860.746094 1074.121094 855.867188 C 1074.207031 853.5 1073.394531 851.296875 1072.285156 849.25 C 1071.601562 847.992188 1070.796875 846.789062 1069.917969 845.636719 Z M 736.238281 566.945312 C 736.242188 561.054688 741.027344 556.28125 746.917969 556.28125 C 752.804688 556.28125 757.585938 561.070312 757.582031 566.960938 L 757.632812 577.113281 C 757.632812 577.125 757.632812 577.140625 757.632812 577.152344 L 757.632812 588.332031 C 757.632812 594.222656 752.851562 599.011719 746.960938 599.011719 C 741.070312 599.011719 736.289062 594.222656 736.289062 588.332031 L 736.289062 577.179688 Z M 647.335938 566.945312 C 647.339844 561.054688 652.125 556.28125 658.015625 556.28125 C 663.90625 556.28125 668.6875 561.070312 668.683594 566.960938 L 668.734375 577.113281 C 668.734375 577.125 668.734375 577.140625 668.734375 577.152344 L 668.734375 588.332031 C 668.734375 594.222656 663.953125 599.011719 658.0625 599.011719 C 652.171875 599.011719 647.390625 594.222656 647.390625 588.332031 L 647.390625 577.179688 Z M 738.699219 537.890625 C 733.730469 541.054688 727.128906 539.59375 723.960938 534.625 C 720.796875 529.65625 722.257812 523.0625 727.226562 519.902344 L 774.503906 491.449219 C 779.578125 488.453125 786.125 490.140625 789.121094 495.210938 C 792.113281 500.285156 790.425781 506.839844 785.355469 509.824219 Z M 635.0625 515.355469 C 630.074219 512.230469 628.566406 505.636719 631.699219 500.65625 C 634.828125 495.660156 641.421875 494.148438 646.410156 497.285156 L 684.789062 520.464844 C 689.730469 523.679688 691.140625 530.285156 687.933594 535.226562 C 684.730469 540.171875 678.113281 541.578125 673.171875 538.367188 Z M 635.0625 515.355469 " fill-opacity="1" fill-rule="evenodd"/></g></svg>