<svg xmlns="http://www.w3.org/2000/svg" xmlns:xlink="http://www.w3.org/1999/xlink" width="2000" zoomAndPan="magnify" viewBox="0 0 1500 1499.999933" height="2000" preserveAspectRatio="xMidYMid meet" version="1.0"><defs><clipPath id="91358ea846"><path d="M 403.0625 216 L 1096.8125 216 L 1096.8125 1284 L 403.0625 1284 Z M 403.0625 216 " clip-rule="nonzero"/></clipPath></defs><path fill="#fea855" d="M 606.121094 850.667969 C 598.148438 850.566406 590.105469 849.378906 581.648438 848.273438 C 568.394531 846.519531 556.945312 843.355469 544.949219 837.328125 C 530.878906 830.265625 516.308594 821.085938 505.109375 809.996094 C 496.859375 801.8125 491.152344 791.5625 485.128906 781.71875 C 460.171875 740.976562 452.789062 696.417969 448.269531 649.699219 C 446.203125 628.289062 435.972656 608.910156 434.867188 587.421875 C 434.480469 579.8125 434.183594 569.316406 439.929688 563.300781 C 443.789062 559.253906 450.941406 558.996094 455.816406 561.164062 C 456.71875 561.558594 461.199219 564.953125 461.863281 564.792969 C 469.945312 562.835938 474.078125 552.734375 482.636719 550.25 C 491.042969 547.796875 501.363281 562.0625 508.613281 561.171875 C 513.351562 560.589844 512.035156 547.667969 514.398438 544.007812 C 521.394531 533.164062 528.179688 500.367188 548.015625 509.886719 C 570.171875 520.523438 561.320312 561.785156 559.273438 580.4375 C 556.75 603.347656 558.015625 626.003906 559.292969 648.9375 C 560.035156 662.265625 560.320312 677.71875 566.5625 689.867188 C 573.832031 704.015625 590.3125 715.234375 606.121094 720.339844 L 606.121094 693.015625 C 606.121094 584.71875 693.898438 496.925781 802.1875 496.925781 L 802.613281 496.925781 C 854.230469 496.925781 903.734375 517.433594 940.234375 553.941406 C 976.738281 590.4375 997.246094 639.957031 997.246094 691.578125 L 997.246094 737.089844 C 1027.773438 745.113281 1044.6875 775.734375 1051.40625 804.828125 C 1066.453125 870.007812 1046.507812 937.292969 1047.371094 1003.203125 C 1047.648438 1024.011719 1044.3125 1062.484375 1030.40625 1079.105469 C 1020.609375 1090.8125 1008.234375 1090.601562 994.445312 1091.304688 C 979.269531 1092.085938 962.085938 1097.359375 951.820312 1089.265625 C 945.648438 1084.398438 945.675781 1068.175781 939.761719 1061.59375 C 936.546875 1058.015625 925.03125 1055.234375 922.578125 1050.148438 C 914.445312 1033.300781 924.65625 1026.878906 931.402344 1013.445312 C 937.496094 1001.304688 939.769531 982.257812 940.929688 965.757812 C 942.136719 948.652344 937.257812 932.097656 932.667969 915.84375 C 928.15625 915.972656 923.644531 916.0625 919.125 916.113281 C 904.839844 916.269531 875.460938 911.007812 863.917969 922.96875 C 844.21875 943.367188 855.875 1013.847656 857.910156 1040.15625 C 859.246094 1057.378906 861.492188 1075.21875 860.214844 1092.484375 C 859.285156 1105.027344 855.734375 1121.234375 858.375 1133.292969 C 859.109375 1134.441406 860 1135.421875 861.078125 1136.183594 C 872.730469 1144.363281 896.460938 1133.628906 902.933594 1149.785156 C 912.804688 1174.441406 891.386719 1202.0625 899.589844 1227.546875 C 904.011719 1241.28125 933.042969 1250.441406 926.246094 1264.945312 C 919.984375 1278.300781 899.171875 1278.984375 887.003906 1278.667969 C 852.175781 1277.769531 817.667969 1270.644531 782.847656 1270.269531 C 765.765625 1270.089844 748.808594 1273.433594 731.765625 1273.15625 C 711.8125 1272.832031 691.957031 1269.515625 671.957031 1269.089844 C 666.160156 1268.960938 654.25 1271.734375 650.726562 1264.957031 C 644.78125 1253.488281 664.289062 1241.519531 668.394531 1232 C 677.585938 1210.667969 675.4375 1183.859375 675.597656 1161.234375 C 675.746094 1138.496094 672.351562 1118.175781 673.964844 1098.804688 C 671.617188 1096.777344 669.324219 1094.699219 667.078125 1092.5625 C 629.527344 1056.828125 606.121094 1006.371094 606.121094 950.441406 Z M 606.121094 850.667969 " fill-opacity="1" fill-rule="evenodd"/><g clip-path="url(#91358ea846)"><path fill="#000000" d="M 907.15625 1147.480469 L 907.15625 1227.101562 C 908.292969 1227.734375 910.359375 1228.863281 911.953125 1229.617188 C 918.324219 1232.585938 925.824219 1236.441406 931.046875 1243.425781 C 935.535156 1249.433594 938.59375 1257.722656 937.574219 1269.960938 C 937.566406 1270.0625 937.554688 1270.148438 937.546875 1270.25 C 937.03125 1274.53125 934.359375 1278.242188 929.492188 1280.585938 C 922.113281 1284.140625 907.246094 1283.941406 904.496094 1283.871094 L 772.539062 1283.484375 L 669.769531 1283.871094 C 667.019531 1283.941406 651.835938 1284.167969 644.601562 1280.753906 C 639.082031 1278.152344 636.492188 1273.898438 636.660156 1268.992188 C 636.660156 1268.933594 636.667969 1268.875 636.667969 1268.8125 C 637.292969 1257.703125 640.578125 1250.105469 644.769531 1244.585938 C 650.09375 1237.570312 657.058594 1233.910156 662.882812 1231.089844 C 664.296875 1230.40625 666.109375 1229.410156 667.097656 1228.84375 L 667.097656 1107.105469 C 661.210938 1101.464844 655.792969 1095.3125 650.925781 1088.652344 C 648.035156 1084.707031 648.894531 1079.15625 652.84375 1076.265625 C 656.800781 1073.378906 662.339844 1074.238281 665.230469 1078.195312 C 680.34375 1098.875 701.535156 1113.882812 725.769531 1123.667969 C 749.265625 1133.144531 775.617188 1137.714844 802.246094 1137.714844 C 811.398438 1137.714844 820.480469 1137.042969 829.421875 1135.726562 C 835.929688 1134.765625 842.371094 1133.460938 848.710938 1131.828125 L 847.445312 920.425781 C 847.414062 915.992188 850.90625 912.324219 855.339844 912.144531 L 894.828125 910.503906 C 894.453125 890.457031 895.632812 870.394531 899.082031 850.855469 C 904.503906 820.242188 915.515625 790.910156 934.796875 764.800781 C 940.75 756.757812 948.167969 748.574219 956.527344 741.628906 C 964.847656 734.734375 974.117188 729.085938 983.792969 725.851562 C 985.207031 678.875 981.347656 645.773438 972.601562 620.039062 C 964.117188 595.046875 950.988281 577.230469 933.964844 560.203125 C 916.554688 542.78125 896.027344 529.179688 873.699219 519.929688 C 851.371094 510.675781 827.246094 505.789062 802.613281 505.789062 L 802.1875 505.789062 C 797.292969 505.789062 793.324219 501.8125 793.324219 496.925781 C 793.324219 492.039062 797.292969 488.0625 802.1875 488.0625 L 802.613281 488.0625 C 829.601562 488.0625 856.03125 493.421875 880.484375 503.554688 C 904.941406 513.683594 927.425781 528.585938 946.496094 547.667969 C 965.441406 566.613281 979.945312 586.53125 989.390625 614.339844 C 998.460938 641.074219 1002.835938 675.316406 1001.589844 723.605469 C 1007.976562 724.160156 1014.050781 726.15625 1019.234375 729.410156 C 1028.503906 735.210938 1035.125 744.925781 1035.964844 757.726562 C 1037.121094 759.074219 1038.230469 760.429688 1039.277344 761.804688 C 1053.859375 780.867188 1058.695312 803.742188 1060.269531 820.699219 C 1062.882812 848.835938 1063.988281 877.367188 1063.652344 905.949219 L 1088.699219 905.8125 C 1092.992188 905.960938 1096.445312 909.375 1096.644531 913.667969 C 1096.851562 918.082031 1095.882812 945.980469 1094.488281 980.648438 C 1091.867188 1045.855469 1087.820312 1135.261719 1087.820312 1135.261719 C 1087.660156 1138.875 1085.1875 1141.832031 1081.914062 1142.800781 C 1080.914062 1143.257812 1079.816406 1143.523438 1078.660156 1143.542969 Z M 683.589844 1120.757812 L 683.589844 1230.496094 C 683.589844 1235.464844 681.265625 1239.300781 676.632812 1242.398438 C 674.597656 1243.765625 671.925781 1245.019531 668.96875 1246.476562 C 665.367188 1248.234375 661.09375 1250.351562 657.910156 1254.558594 C 655.78125 1257.359375 654.207031 1261.078125 653.488281 1266.003906 L 669.273438 1267.398438 C 669.421875 1267.390625 669.570312 1267.390625 669.710938 1267.390625 L 764.617188 1267.035156 C 764.921875 1266.992188 765.230469 1266.984375 765.546875 1266.984375 L 772.53125 1267.003906 L 777.972656 1266.984375 C 778.25 1266.984375 778.527344 1266.992188 778.800781 1267.023438 L 779.890625 1267.023438 L 779.890625 1154.425781 C 758.703125 1152.488281 738.066406 1147.738281 719.132812 1140.101562 C 706.410156 1134.964844 694.460938 1128.523438 683.589844 1120.757812 Z M 796.382812 1155.375 L 796.382812 1267.074219 L 904.535156 1267.390625 C 904.683594 1267.390625 904.832031 1267.390625 904.980469 1267.398438 C 904.980469 1267.398438 915.425781 1268.28125 921.273438 1266.171875 C 921.402344 1260.445312 920.105469 1256.328125 917.839844 1253.300781 C 915.265625 1249.859375 911.667969 1247.828125 908.332031 1246.15625 C 904.496094 1244.238281 900.84375 1242.726562 898.214844 1241.074219 C 893.117188 1237.875 890.664062 1233.832031 890.664062 1228.992188 L 890.664062 1147.855469 L 857.191406 1148.628906 C 856.527344 1148.636719 855.875 1148.578125 855.242188 1148.441406 C 847.613281 1150.488281 839.859375 1152.101562 832.011719 1153.257812 C 822.210938 1154.703125 812.269531 1155.445312 802.246094 1155.445312 C 800.289062 1155.445312 798.332031 1155.425781 796.382812 1155.375 Z M 981.367188 744.726562 C 976.34375 747.289062 971.546875 750.605469 967.054688 754.332031 C 959.734375 760.398438 953.265625 767.5625 948.0625 774.605469 C 930.332031 798.597656 920.300781 825.597656 915.328125 853.734375 C 912.074219 872.105469 910.964844 890.972656 911.300781 909.820312 L 929.808594 909.046875 C 928.613281 898.382812 927.316406 887.707031 926.277344 876.953125 C 925.84375 872.421875 929.167969 868.394531 933.695312 867.960938 C 938.226562 867.523438 942.253906 870.847656 942.6875 875.378906 C 944.90625 898.363281 948.296875 921.046875 949.316406 943.882812 C 950.007812 959.496094 949.59375 975.167969 947.023438 991.035156 C 946.28125 995.605469 945.269531 1000.214844 943.835938 1004.667969 C 942.324219 1009.378906 940.335938 1013.917969 937.734375 1018.105469 C 935.023438 1022.476562 931.113281 1027.117188 928.554688 1032.132812 C 927.425781 1034.328125 926.535156 1036.605469 926.683594 1039.027344 C 926.832031 1041.402344 928.109375 1043.371094 929.90625 1044.589844 C 931.726562 1045.816406 934.09375 1046.261719 936.40625 1045.527344 C 938.039062 1045.011719 939.433594 1043.996094 940.679688 1042.796875 C 942.292969 1041.253906 943.628906 1039.382812 944.71875 1037.535156 C 947.023438 1033.605469 952.085938 1032.300781 956.003906 1034.605469 C 959.921875 1036.910156 961.238281 1041.96875 958.933594 1045.894531 C 956.933594 1049.296875 954.371094 1052.660156 951.335938 1055.402344 C 950.742188 1060.972656 949.59375 1068.550781 950.445312 1075.25 C 950.980469 1079.375 952.164062 1083.351562 956.65625 1084.480469 C 957.664062 1084.726562 958.664062 1084.824219 959.664062 1084.855469 C 960.4375 1084.875 961.207031 1084.863281 961.980469 1084.835938 C 961.542969 1081.5 963.1875 1078.097656 966.339844 1076.457031 C 970.367188 1074.347656 975.355469 1075.921875 977.460938 1079.949219 C 979.25 1083.371094 982.269531 1084.816406 985.503906 1084.964844 C 987.640625 1085.0625 989.855469 1084.695312 991.992188 1083.996094 C 990.65625 1080.035156 992.527344 1075.625 996.414062 1073.863281 C 1000.558594 1071.992188 1005.445312 1073.832031 1007.316406 1077.980469 C 1008.742188 1081.125 1010.15625 1083.460938 1011.707031 1084.972656 C 1012.390625 1085.636719 1012.972656 1086.132812 1013.667969 1085.894531 C 1017.542969 1084.566406 1020.730469 1079.464844 1023.804688 1073.367188 C 1026.914062 1067.246094 1029.394531 1059.863281 1031.324219 1052.96875 C 1034.066406 1043.183594 1035.675781 1034.328125 1036.222656 1031.042969 C 1041.839844 996.882812 1045.351562 961.917969 1046.648438 926.855469 C 1047.953125 891.832031 1047.054688 856.710938 1043.847656 822.222656 C 1042.511719 807.738281 1038.636719 788.109375 1026.179688 771.824219 C 1016.960938 759.765625 1002.953125 749.652344 981.84375 744.847656 C 981.683594 744.804688 981.527344 744.765625 981.367188 744.726562 Z M 895.472656 926.984375 L 863.976562 928.289062 C 863.976562 928.289062 865.191406 1131.949219 865.191406 1131.949219 L 1071.675781 1127.21875 C 1072.695312 1104.601562 1075.839844 1033.992188 1078.015625 979.984375 C 1079.015625 954.992188 1079.828125 933.601562 1080.105469 922.335938 L 1063.296875 922.433594 C 1063.246094 924.105469 1063.1875 925.789062 1063.128906 927.46875 C 1061.800781 963.222656 1058.222656 998.878906 1052.492188 1033.726562 C 1051.820312 1037.792969 1049.625 1049.761719 1045.816406 1062.109375 C 1043.820312 1068.589844 1041.386719 1075.160156 1038.515625 1080.816406 C 1034.382812 1088.992188 1029.296875 1095.421875 1024.171875 1098.875 C 1019.710938 1101.890625 1015.0625 1103 1010.511719 1102.246094 C 1007.613281 1101.773438 1004.527344 1100.445312 1001.519531 1097.894531 C 994.535156 1101.121094 986.5625 1102.375 979.546875 1100.722656 C 977.945312 1100.347656 976.382812 1099.832031 974.878906 1099.160156 C 973.652344 1099.578125 972.40625 1099.941406 971.140625 1100.25 C 969.011719 1100.761719 966.847656 1101.101562 964.667969 1101.207031 C 962.382812 1101.335938 960.148438 1101.417969 957.921875 1101.277344 C 956.164062 1101.160156 954.402344 1100.910156 952.640625 1100.46875 C 942.699219 1097.964844 937.503906 1091.265625 935.160156 1082.765625 C 933.441406 1076.515625 933.558594 1069.074219 934.082031 1062.378906 C 929.226562 1062.367188 924.574219 1060.875 920.6875 1058.261719 C 914.820312 1054.304688 910.707031 1047.804688 910.230469 1040.046875 C 909.964844 1035.871094 910.785156 1031.835938 912.347656 1027.949219 C 915.03125 1021.28125 920.203125 1015.085938 923.734375 1009.398438 C 925.625 1006.351562 927.039062 1003.046875 928.148438 999.621094 C 929.324219 995.953125 930.136719 992.164062 930.75 988.402344 C 933.132812 973.664062 933.488281 959.109375 932.847656 944.613281 C 932.558594 938.222656 932.085938 931.851562 931.5 925.480469 L 911.953125 926.292969 C 912.25 931.359375 912.636719 936.414062 913.101562 941.449219 C 913.527344 945.980469 910.191406 949.996094 905.660156 950.421875 C 901.132812 950.835938 897.105469 947.503906 896.691406 942.972656 C 896.195312 937.660156 895.789062 932.328125 895.472656 926.984375 Z M 606.121094 856.34375 C 598.523438 856.386719 590.828125 855.949219 583.191406 855.050781 C 573.585938 853.910156 564.058594 852.042969 554.929688 849.449219 C 544.214844 846.414062 534.363281 841.722656 525.300781 835.777344 C 516.398438 829.941406 508.257812 822.894531 500.816406 815.058594 C 477.066406 790.070312 460.527344 759.707031 450.355469 727.382812 C 440.40625 695.734375 436.558594 662.226562 438 630.132812 C 437.804688 629.960938 437.625 629.804688 437.457031 629.636719 C 435.765625 627.953125 434.332031 626.054688 433.125 624.007812 C 431.550781 621.34375 430.355469 618.417969 429.40625 615.480469 C 428.761719 613.511719 428.226562 611.472656 427.792969 609.425781 C 427.367188 607.453125 427.03125 605.476562 426.753906 603.496094 L 425.675781 595.089844 C 424.835938 587.410156 422.835938 576.824219 425.429688 568.523438 C 426.960938 563.636719 429.8125 559.351562 434.597656 556.199219 C 437.0625 554.585938 444.976562 551.816406 453.324219 552.902344 C 456.054688 553.257812 458.816406 553.992188 461.445312 555.21875 C 462.902344 552.617188 464.660156 550.371094 466.679688 548.53125 C 473.503906 542.316406 483.464844 539.765625 496.386719 544.632812 C 501.621094 546.601562 505.40625 549.449219 508.179688 552.871094 L 514.292969 520.222656 C 516.4375 508.085938 525.152344 500.386719 535.007812 498.675781 C 544.019531 497.113281 554.386719 500.417969 561.753906 511.003906 C 564.960938 515.613281 567.058594 524.480469 567.671875 535.796875 C 569.054688 561.113281 564.632812 600.570312 565.296875 620.832031 C 565.613281 630.4375 566.253906 640.90625 567.492188 651.3125 C 568.699219 661.472656 570.46875 671.574219 573.089844 680.695312 C 576.917969 694.042969 583.539062 704.046875 593.777344 708.65625 C 597.476562 710.316406 601.589844 711.265625 606.121094 711.484375 L 606.121094 727.957031 C 599.019531 727.730469 592.648438 726.234375 587.011719 723.695312 C 572.695312 717.242188 562.605469 703.898438 557.242188 685.246094 C 554.9375 677.234375 553.21875 668.527344 551.953125 659.652344 C 550.101562 646.710938 549.210938 633.386719 548.816406 621.367188 C 548.242188 603.746094 551.507812 571.621094 551.464844 546.878906 C 551.457031 538.863281 551.109375 531.679688 550.0625 526.191406 C 549.597656 523.746094 549.121094 521.71875 548.222656 520.421875 C 545.285156 516.199219 541.425781 514.296875 537.824219 514.921875 C 534.214844 515.542969 531.316406 518.640625 530.523438 523.09375 L 517.910156 590.476562 C 518.949219 590.882812 519.96875 591.339844 520.96875 591.832031 C 524.492188 593.574219 527.84375 595.554688 531.019531 597.78125 C 534.222656 600.035156 537.25 602.527344 540.070312 605.296875 C 543.316406 608.484375 543.363281 613.707031 540.179688 616.953125 C 536.992188 620.207031 531.769531 620.257812 528.527344 617.070312 C 526.351562 614.945312 524.023438 613.015625 521.550781 611.285156 C 519.058594 609.53125 516.429688 607.980469 513.667969 606.613281 C 507.089844 603.371094 499.078125 602.695312 493.347656 605.277344 C 491.527344 606.101562 489.964844 607.265625 489.074219 608.988281 C 487.769531 611.511719 487.957031 614.84375 489.371094 619.019531 C 490.957031 623.679688 494.277344 627.253906 498.234375 630.042969 C 502.777344 633.246094 508.167969 635.433594 513.402344 636.859375 C 517.785156 638.054688 520.375 642.585938 519.1875 646.980469 C 517.992188 651.371094 513.449219 653.964844 509.066406 652.765625 C 500.550781 650.453125 491.785156 646.476562 485.011719 640.609375 C 480.035156 636.316406 476.105469 631.011719 473.882812 624.679688 C 471.960938 627.261719 469.4375 629.289062 466.5625 630.8125 C 462.859375 632.792969 458.488281 633.8125 454.34375 634.097656 C 453.375 663.324219 457.042969 693.695312 466.085938 722.4375 C 475.511719 752.375 490.765625 780.550781 512.769531 803.703125 C 519.328125 810.609375 526.488281 816.839844 534.34375 821.984375 C 542.019531 827.019531 550.347656 831.019531 559.421875 833.589844 C 567.730469 835.945312 576.386719 837.636719 585.128906 838.675781 C 592.113281 839.496094 599.15625 839.894531 606.121094 839.851562 Z M 499.441406 587.429688 C 498.929688 580.921875 499.710938 572.816406 497.089844 566.308594 C 496.011719 563.617188 494.0625 561.371094 490.578125 560.066406 C 483.644531 557.453125 478.492188 558.671875 475.789062 563.222656 C 472.664062 568.476562 472.199219 576.320312 473.882812 584.90625 C 474.5625 588.378906 475.511719 593.367188 476.285156 598.363281 C 477.3125 596.988281 478.480469 595.730469 479.757812 594.605469 C 484.671875 590.25 491.785156 587.816406 499.441406 587.429688 Z M 456.699219 571.761719 C 455.136719 570.15625 453.117188 569.503906 451.199219 569.257812 C 447.875 568.820312 444.648438 569.324219 443.667969 569.96875 C 440.980469 571.738281 440.621094 574.785156 440.535156 577.824219 C 440.375 583.167969 441.574219 588.835938 442.066406 593.308594 L 443.078125 601.210938 L 445.085938 610.375 C 445.578125 611.917969 446.164062 613.449219 446.914062 614.886719 C 447.359375 615.726562 447.855469 616.539062 448.457031 617.257812 C 449.871094 617.40625 455.75 617.902344 458.804688 616.269531 C 460.121094 615.566406 461.148438 614.421875 461.167969 612.570312 C 461.199219 610.085938 460.832031 606.753906 460.347656 603.269531 C 459.566406 597.757812 458.449219 591.921875 457.695312 588.074219 C 456.578125 582.324219 456.28125 576.824219 456.699219 571.761719 Z M 500.847656 430.183594 C 494.566406 422.128906 488.375 414.316406 482.824219 405.976562 C 478.628906 399.671875 474.8125 393.0625 471.597656 385.871094 C 465.007812 371.160156 464.355469 356.328125 466.796875 343.261719 C 470.082031 325.730469 479.035156 311.453125 486.324219 304.746094 C 498.652344 293.425781 514.527344 286.453125 530.40625 285.078125 C 547.273438 283.613281 564.109375 288.402344 577.027344 300.71875 C 586.425781 309.679688 593.242188 322.246094 596.953125 335.621094 C 600.691406 349.15625 601.246094 363.472656 598.414062 375.550781 C 596.289062 384.632812 593.0625 394.558594 588.128906 404.410156 C 584.042969 412.5625 578.789062 420.667969 572.03125 428.207031 C 570.480469 437.40625 567.699219 447.972656 562.65625 456.667969 C 558.71875 463.457031 553.433594 469.144531 546.53125 472.695312 C 533.511719 479.394531 522.898438 475.980469 514.933594 468.035156 C 505.773438 458.886719 500.730469 442.34375 500.847656 430.183594 Z M 528.703125 422.535156 C 531.640625 422.695312 534.589844 422.722656 537.566406 422.664062 C 537.429688 417.253906 538.519531 411.703125 540.378906 406.273438 C 543.085938 398.308594 547.460938 390.570312 551.023438 384.03125 C 552.566406 381.179688 554.613281 377.898438 555.910156 374.453125 C 556.609375 372.585938 557.265625 370.664062 556.589844 368.816406 C 555.949219 368.945312 554.910156 369.191406 554.1875 369.457031 C 552.554688 370.089844 550.863281 370.953125 549.171875 371.882812 C 544.292969 374.5625 539.417969 377.757812 535.621094 379.460938 C 532.890625 380.6875 530.425781 381.261719 528.46875 381.300781 C 526.558594 381.339844 523.472656 380.726562 520.097656 379.914062 C 518.988281 379.648438 517.367188 379.382812 516.003906 379.171875 C 516.011719 379.3125 516.03125 379.449219 516.042969 379.570312 C 516.320312 381.648438 516.914062 383.683594 517.359375 385.199219 L 528.347656 420.390625 C 528.566406 421.101562 528.683594 421.824219 528.703125 422.535156 Z M 518.03125 438 C 519 443.195312 520.96875 448.636719 523.847656 452.980469 C 525.757812 455.828125 528.011719 458.253906 530.902344 459.222656 C 533.253906 460.023438 535.9375 459.605469 538.984375 458.035156 C 544.195312 455.351562 547.636719 450.4375 550.160156 444.996094 C 551.191406 442.777344 552.058594 440.484375 552.800781 438.148438 C 549.300781 438.644531 545.75 438.859375 542.238281 439.007812 C 536.507812 439.246094 530.878906 439.277344 525.28125 438.839844 C 522.859375 438.652344 520.445312 438.375 518.03125 438 Z M 557.292969 420.191406 C 557.601562 419.648438 557.976562 419.132812 558.421875 418.660156 C 564.800781 411.863281 569.660156 404.460938 573.386719 397.019531 C 577.703125 388.414062 580.5 379.726562 582.359375 371.78125 C 584.617188 362.175781 584.03125 350.789062 581.054688 340.023438 C 578.167969 329.566406 573.003906 319.652344 565.652344 312.648438 C 556.292969 303.734375 544.046875 300.441406 531.832031 301.5 C 519.453125 302.578125 507.089844 308.058594 497.484375 316.894531 C 491.945312 321.980469 485.496094 332.992188 483.011719 346.296875 C 481.121094 356.367188 481.566406 367.796875 486.640625 379.132812 C 489.480469 385.476562 492.863281 391.292969 496.554688 396.851562 C 500.453125 402.710938 504.695312 408.289062 509.046875 413.898438 L 501.53125 389.839844 C 500.492188 386.296875 499.164062 380.863281 499.472656 376.226562 C 499.691406 372.980469 500.621094 370.023438 502.28125 367.628906 C 504.308594 364.707031 507.476562 362.847656 511.648438 362.402344 C 514.6875 362.078125 518.585938 362.652344 522.292969 363.492188 C 524.46875 363.996094 526.507812 364.71875 527.835938 364.808594 C 528.25 364.640625 529.675781 364.046875 530.605469 363.5625 C 533.125 362.214844 535.984375 360.425781 538.921875 358.734375 C 546.105469 354.578125 553.851562 351.558594 559.578125 352.382812 C 564.742188 353.125 569.28125 355.933594 571.933594 362.78125 C 573.773438 367.519531 573.664062 372.464844 572.308594 377.324219 C 570.855469 382.527344 567.820312 387.652344 565.503906 391.894531 C 562.347656 397.703125 558.390625 404.53125 555.976562 411.59375 C 554.890625 414.78125 554.109375 417.996094 554.039062 421.160156 C 555.148438 420.894531 556.226562 420.578125 557.292969 420.191406 Z M 706.964844 594.683594 C 706.945312 590.132812 710.613281 586.410156 715.164062 586.390625 C 719.714844 586.363281 723.425781 590.042969 723.453125 594.59375 L 723.5625 614.152344 C 723.582031 618.703125 719.914062 622.425781 715.363281 622.445312 C 710.8125 622.472656 707.09375 618.792969 707.074219 614.242188 Z M 768.613281 593.316406 C 768.582031 588.765625 772.253906 585.054688 776.804688 585.027344 C 781.355469 585.007812 785.074219 588.675781 785.09375 593.226562 L 785.203125 613.421875 C 785.234375 617.972656 781.550781 621.683594 777.003906 621.710938 C 772.453125 621.730469 768.742188 618.0625 768.710938 613.511719 Z M 723.425781 680.429688 C 719.289062 678.519531 717.5 673.613281 719.410156 669.476562 C 721.328125 665.351562 726.226562 663.5625 730.359375 665.46875 C 740.3125 670.089844 753.171875 670.910156 764.203125 667.449219 C 774.351562 664.253906 783.007812 657.269531 785.507812 645.664062 C 786.480469 641.222656 790.871094 638.390625 795.3125 639.351562 C 799.765625 640.320312 802.59375 644.703125 801.625 649.15625 C 797.757812 667.074219 784.816406 678.253906 769.136719 683.179688 C 754.238281 687.859375 736.878906 686.671875 723.425781 680.429688 Z M 521.582031 224.757812 C 521.335938 220.214844 524.828125 216.328125 529.367188 216.070312 C 533.90625 215.824219 537.796875 219.316406 538.050781 223.855469 L 540.308594 257.523438 C 540.625 262.0625 537.183594 266 532.652344 266.308594 C 528.109375 266.617188 524.171875 263.183594 523.867188 258.640625 Z M 598 290.242188 C 594.457031 293.089844 589.265625 292.527344 586.417969 288.976562 C 583.566406 285.421875 584.132812 280.226562 587.683594 277.378906 L 613.046875 256.683594 C 616.480469 253.695312 621.691406 254.0625 624.679688 257.492188 C 627.667969 260.917969 627.3125 266.128906 623.878906 269.117188 Z M 481.714844 277.378906 C 485.257812 280.226562 485.832031 285.421875 482.980469 288.976562 C 480.132812 292.527344 474.941406 293.089844 471.386719 290.242188 L 445.511719 269.117188 C 442.078125 266.128906 441.722656 260.917969 444.707031 257.492188 C 447.695312 254.0625 452.910156 253.695312 456.34375 256.683594 Z M 620.25 354.164062 C 615.738281 354.726562 611.613281 351.53125 611.039062 347.007812 C 610.464844 342.5 613.667969 338.371094 618.179688 337.800781 C 624.078125 337.058594 629.875 336.550781 635.671875 336.265625 C 641.476562 335.988281 647.292969 335.929688 653.210938 336.085938 C 657.761719 336.207031 661.351562 340.003906 661.230469 344.546875 C 661.113281 349.097656 657.316406 352.6875 652.773438 352.570312 C 647.273438 352.421875 641.863281 352.480469 636.472656 352.738281 C 631.089844 352.996094 625.707031 353.46875 620.25 354.164062 Z M 446.242188 337.800781 C 450.753906 338.371094 453.957031 342.5 453.382812 347.007812 C 452.820312 351.53125 448.683594 354.726562 444.175781 354.164062 C 438.714844 353.46875 433.332031 352.996094 427.949219 352.738281 C 422.558594 352.480469 417.160156 352.421875 411.660156 352.570312 C 407.109375 352.6875 403.320312 349.097656 403.191406 344.546875 C 403.070312 340.003906 406.671875 336.207031 411.214844 336.085938 C 417.136719 335.929688 422.945312 335.988281 428.753906 336.265625 C 434.558594 336.550781 440.355469 337.058594 446.242188 337.800781 Z M 446.242188 337.800781 " fill-opacity="1" fill-rule="evenodd"/></g></svg>