<svg xmlns="http://www.w3.org/2000/svg" xmlns:xlink="http://www.w3.org/1999/xlink" width="2000" zoomAndPan="magnify" viewBox="0 0 1500 1499.999933" height="2000" preserveAspectRatio="xMidYMid meet" version="1.0"><defs><clipPath id="8ce7954954"><path d="M 313 240.125 L 1187 240.125 L 1187 1259 L 313 1259 Z M 313 240.125 " clip-rule="nonzero"/></clipPath></defs><path fill="#fea855" d="M 486.265625 907.464844 C 483.898438 907.792969 481.464844 907.820312 479.042969 907.703125 C 470.546875 907.332031 462.722656 906.28125 455.804688 901.003906 C 452.199219 898.253906 449.359375 894.804688 446.9375 891.003906 C 444.925781 887.832031 443.136719 884.292969 439.964844 882.09375 C 435.96875 879.34375 431.21875 879.359375 426.761719 877.921875 C 421.789062 876.332031 417.894531 873.121094 415.527344 868.460938 C 412.160156 861.855469 411.976562 853.488281 411.921875 846.238281 C 411.871094 840.671875 412.582031 835.066406 409.726562 830.050781 C 367.175781 816.789062 330.164062 776.851562 329.648438 730.992188 C 329.386719 708.28125 339.027344 683.976562 350.8125 664.882812 C 366.9375 638.777344 390.523438 619.722656 414.882812 601.800781 C 433.296875 588.246094 451.632812 574.535156 471.402344 562.96875 C 474.53125 561.136719 477.769531 559.414062 481.058594 557.78125 L 481.058594 512.949219 C 481.058594 443.789062 508.519531 377.441406 557.410156 328.542969 C 606.300781 279.632812 672.609375 252.15625 741.753906 252.15625 L 742.320312 252.15625 C 810.953125 252.15625 876.773438 279.421875 925.308594 327.976562 C 973.84375 376.53125 1001.109375 442.378906 1001.109375 511.042969 L 1001.109375 528.203125 C 1043.78125 552.070312 1071.191406 575.785156 1110.652344 610.40625 C 1138.3125 634.644531 1167.355469 657.566406 1177.839844 694.6875 C 1191.359375 742.597656 1169.339844 781.402344 1131.367188 810.433594 C 1120.109375 819.039062 1103.285156 822.011719 1093.472656 831.839844 C 1082.820312 842.5 1085.738281 860.894531 1078.558594 873.542969 C 1069.457031 889.582031 1021.261719 911.832031 1004.636719 910.320312 C 1001.625 910.042969 998.71875 909.375 995.929688 908.414062 C 995.730469 909.414062 995.519531 910.414062 995.308594 911.414062 C 984.878906 959.835938 960.730469 1004.683594 925.164062 1040.25 C 914.757812 1050.660156 903.566406 1060.09375 891.714844 1068.488281 L 891.714844 1062.1875 C 891.714844 1056.609375 887.546875 1052 882.164062 1051.316406 C 875.511719 1084.015625 868.894531 1158.890625 878.851562 1191.972656 C 883.796875 1208.40625 933.609375 1214.632812 920.390625 1237.527344 C 907.578125 1259.6875 865.316406 1256.109375 844.019531 1256.964844 C 772.230469 1259.832031 701.125 1247.277344 629.082031 1247.1875 C 608.171875 1247.148438 587.308594 1245.4375 566.394531 1245.054688 C 558.359375 1244.898438 546.3125 1247.765625 541.757812 1239.054688 C 533.710938 1223.644531 575.996094 1199.316406 580.917969 1173.378906 C 588.097656 1135.601562 581.480469 1097.886719 580.074219 1059.988281 C 577.523438 1057.964844 575.011719 1055.898438 572.539062 1053.777344 C 531.632812 1018.828125 501.667969 971.429688 488.488281 917.453125 C 487.6875 914.148438 486.9375 910.820312 486.265625 907.464844 Z M 486.265625 907.464844 " fill-opacity="1" fill-rule="evenodd"/><g clip-path="url(#8ce7954954)"><path fill="#060000" d="M 891.714844 1082.78125 L 891.714844 1183.378906 C 893.226562 1184.222656 895.976562 1185.722656 898.09375 1186.707031 C 906.566406 1190.671875 916.535156 1195.789062 923.480469 1205.09375 C 929.453125 1213.078125 933.527344 1224.105469 932.160156 1240.382812 C 932.148438 1240.503906 932.136719 1240.632812 932.121094 1240.765625 C 931.449219 1246.464844 927.886719 1251.398438 921.414062 1254.515625 C 911.617188 1259.242188 891.847656 1258.976562 888.175781 1258.886719 L 712.726562 1258.371094 L 576.089844 1258.886719 C 572.433594 1258.976562 552.230469 1259.265625 542.613281 1254.742188 C 535.273438 1251.277344 531.828125 1245.621094 532.050781 1239.082031 C 532.066406 1239.003906 532.066406 1238.921875 532.066406 1238.84375 C 532.90625 1224.066406 537.273438 1213.972656 542.851562 1206.617188 C 549.929688 1197.300781 559.1875 1192.417969 566.933594 1188.683594 C 568.800781 1187.773438 571.210938 1186.445312 572.539062 1185.695312 L 572.539062 1069.054688 C 564.644531 1062.792969 557.121094 1056.109375 549.980469 1049.027344 C 545.363281 1044.449219 545.324219 1036.972656 549.902344 1032.355469 C 554.480469 1027.738281 561.949219 1027.699219 566.566406 1032.277344 C 589.480469 1054.988281 616.757812 1073.28125 647.050781 1085.753906 C 676.265625 1097.796875 708.265625 1104.441406 741.832031 1104.441406 C 774.652344 1104.441406 806.796875 1097.914062 836.539062 1085.597656 C 848.019531 1080.832031 859.132812 1075.214844 869.800781 1068.78125 C 869.800781 1068.78125 884.441406 1059.292969 889.480469 1055.554688 C 899.105469 1048.398438 908.25 1040.5 916.835938 1031.921875 C 940.039062 1008.695312 958.164062 981.351562 970.488281 951.585938 C 982.800781 921.835938 989.324219 889.675781 989.324219 856.84375 L 989.507812 723.28125 C 979.671875 719.570312 969.136719 715.820312 958.585938 712.398438 C 952.824219 710.542969 949.667969 704.347656 951.523438 698.59375 C 953.390625 692.832031 959.574219 689.671875 965.335938 691.542969 C 996.519531 701.636719 1027.640625 714.558594 1041.808594 721.203125 C 1046.109375 723.214844 1049.042969 724.792969 1050.34375 725.648438 C 1055.355469 728.925781 1056.367188 732.898438 1055.882812 736.28125 C 1056.355469 741.402344 1053.144531 746.296875 1048.027344 747.796875 C 1036.375 751.191406 1026.589844 757.324219 1018.5 765.257812 C 1016.578125 767.152344 1014.75 769.140625 1013.015625 771.21875 L 1012.898438 856.84375 C 1012.898438 869.699219 1011.976562 882.449219 1010.1875 895.03125 C 1013.710938 897.203125 1018.367188 898.558594 1023.433594 898.308594 C 1024.867188 898.242188 1026.339844 898.03125 1027.839844 897.675781 C 1028.574219 897.242188 1029.378906 896.886719 1030.230469 896.621094 C 1035.886719 894.898438 1039.253906 890.398438 1040.582031 885.304688 C 1042.109375 879.515625 1041.230469 872.921875 1037.953125 867.765625 C 1035.824219 864.410156 1032.980469 861.515625 1029.917969 858.871094 C 1026.339844 855.804688 1022.445312 853.066406 1018.683594 850.5 C 1014.605469 847.710938 1012.882812 842.554688 1014.5 837.867188 C 1016.105469 833.195312 1020.644531 830.183594 1025.574219 830.5 C 1066.21875 833.144531 1108.980469 817.183594 1136.328125 789.65625 C 1163.042969 762.769531 1174.484375 724.492188 1153.203125 682.027344 C 1143.902344 663.488281 1130.078125 643.5 1112.335938 624.039062 C 1097.15625 607.40625 1079.121094 591.167969 1058.589844 576.585938 C 1043.082031 565.585938 1031.796875 557.574219 1019.894531 550.414062 C 1008.304688 543.453125 996.113281 537.308594 978.738281 529.914062 C 973.160156 527.542969 970.570312 521.097656 972.9375 515.53125 C 975.238281 510.121094 981.382812 507.503906 986.839844 509.542969 C 985.695312 475.304688 980.671875 446.289062 971.632812 420.773438 C 960.035156 388.019531 941.789062 361.136719 916.980469 336.320312 C 893.820312 313.148438 866.527344 295.054688 836.839844 282.75 C 807.164062 270.445312 775.070312 263.933594 742.320312 263.933594 L 741.753906 263.933594 C 735.242188 263.933594 729.96875 258.65625 729.96875 252.15625 C 729.96875 245.640625 735.242188 240.367188 741.753906 240.367188 L 742.320312 240.367188 C 778.203125 240.367188 813.347656 247.496094 845.863281 260.972656 C 878.378906 274.433594 908.273438 294.265625 933.648438 319.648438 C 961.019531 347.03125 981.039062 376.757812 993.835938 412.890625 C 1004.609375 443.273438 1010.253906 478.265625 1010.632812 520.386719 C 1018.117188 524.097656 1024.746094 527.742188 1031.191406 531.621094 C 1043.515625 539.03125 1055.210938 547.308594 1071.269531 558.703125 C 1093.15625 574.230469 1112.359375 591.535156 1128.527344 609.261719 C 1147.769531 630.367188 1162.710938 652.09375 1172.800781 672.199219 C 1199.09375 724.636719 1184.875 771.902344 1151.875 805.117188 C 1136.417969 820.683594 1116.6875 833.078125 1095.078125 841.304688 C 1095.628906 842.34375 1096.144531 843.394531 1096.617188 844.460938 C 1098.617188 849.066406 1099.746094 854 1099.628906 859.160156 C 1099.339844 872.488281 1093.316406 883.1875 1084.804688 890.53125 C 1076.914062 897.347656 1066.851562 901.148438 1057.328125 901.53125 C 1056.144531 903.519531 1054.761719 905.386719 1053.222656 907.109375 C 1052.433594 908.820312 1051.183594 910.347656 1049.527344 911.492188 C 1041.214844 917.28125 1032.574219 919.820312 1024.484375 920.214844 C 1017.84375 920.53125 1011.554688 919.386719 1006.070312 917.308594 C 1002.675781 932.136719 998.058594 946.613281 992.257812 960.613281 C 978.761719 993.207031 958.914062 1023.15625 933.503906 1048.59375 C 920.652344 1061.449219 906.644531 1072.871094 891.714844 1082.78125 Z M 594.449219 1084.753906 L 594.449219 1187.894531 C 594.449219 1194.5 591.359375 1199.605469 585.203125 1203.722656 C 582.507812 1205.539062 578.941406 1207.210938 575.011719 1209.132812 C 570.222656 1211.472656 564.554688 1214.304688 560.304688 1219.882812 C 557.476562 1223.621094 555.386719 1228.566406 554.4375 1235.121094 L 575.429688 1236.976562 C 575.617188 1236.960938 575.8125 1236.949219 576.011719 1236.949219 L 702.191406 1236.488281 C 702.597656 1236.4375 703.019531 1236.410156 703.425781 1236.421875 L 712.726562 1236.449219 L 719.945312 1236.421875 C 720.328125 1236.410156 720.695312 1236.4375 721.050781 1236.460938 L 722.5 1236.476562 L 722.5 1127.335938 C 692.796875 1125.257812 664.402344 1118.402344 638.066406 1107.558594 C 622.78125 1101.253906 608.195312 1093.609375 594.449219 1084.753906 Z M 744.425781 1127.992188 L 744.425781 1236.542969 L 888.242188 1236.949219 C 888.441406 1236.949219 888.636719 1236.960938 888.835938 1236.976562 C 888.835938 1236.976562 902.710938 1238.148438 910.484375 1235.34375 C 910.65625 1227.726562 908.933594 1222.25 905.921875 1218.222656 C 902.5 1213.644531 897.714844 1210.949219 893.292969 1208.722656 C 888.175781 1206.15625 883.335938 1204.15625 879.835938 1201.960938 C 873.0625 1197.710938 869.800781 1192.328125 869.800781 1185.878906 L 869.800781 1095.898438 C 861.910156 1100.125 853.820312 1103.953125 845.558594 1107.375 C 813.769531 1120.546875 779.464844 1127.664062 744.425781 1127.992188 Z M 1036.386719 728.53125 C 1036.730469 728.109375 1037.109375 727.703125 1037.519531 727.320312 C 1037.097656 727.714844 1036.703125 728.125 1036.335938 728.558594 C 1036.347656 728.542969 1036.375 728.542969 1036.386719 728.53125 Z M 1020.878906 735.875 C 1018.445312 734.820312 1015.828125 733.730469 1013.066406 732.570312 L 1013.054688 741.113281 C 1015.554688 739.242188 1018.171875 737.492188 1020.878906 735.875 Z M 1073.386719 848.011719 C 1066.773438 849.59375 1060.050781 850.789062 1053.304688 851.59375 C 1054.433594 853.015625 1055.488281 854.476562 1056.445312 856 C 1060.667969 862.648438 1062.933594 870.460938 1063.179688 878.265625 C 1065.785156 877.292969 1068.296875 875.820312 1070.480469 873.921875 C 1074.625 870.355469 1077.570312 865.160156 1077.714844 858.671875 C 1077.769531 856.171875 1076.925781 853.855469 1075.769531 851.699219 C 1075.085938 850.410156 1074.269531 849.183594 1073.386719 848.011719 Z M 488.488281 917.453125 C 481.332031 918.808594 473.203125 918.886719 463.945312 916.992188 C 451.882812 914.519531 443.964844 907.148438 439.714844 897.78125 C 439.636719 897.597656 439.546875 897.410156 439.464844 897.226562 C 431.96875 896.1875 424.261719 893.203125 417.738281 888.675781 C 407.582031 881.636719 400.53125 871.054688 400.113281 859.316406 C 399.914062 854.09375 401.03125 849.09375 403.085938 844.421875 C 403.546875 843.367188 404.058594 842.316406 404.609375 841.289062 C 383.011719 833.066406 363.308594 820.671875 347.851562 805.117188 C 314.851562 771.902344 300.632812 724.636719 326.925781 672.199219 C 335.277344 655.554688 347.628906 638.433594 363.085938 621.550781 C 382 600.878906 405.597656 580.519531 432.007812 561.78125 C 447.515625 550.769531 463.996094 540.308594 481.058594 530.675781 L 481.058594 556.019531 C 468.480469 563.492188 456.300781 571.414062 444.6875 579.667969 C 424.0625 594.3125 405.214844 609.96875 389.179688 626 C 370.59375 644.566406 355.785156 663.578125 346.527344 682.027344 C 325.242188 724.492188 336.6875 762.769531 363.402344 789.65625 C 390.746094 817.183594 433.507812 833.144531 474.164062 830.5 C 476.675781 830.34375 479.082031 831.039062 481.058594 832.394531 C 482.949219 833.683594 484.449219 835.578125 485.238281 837.867188 C 486.84375 842.539062 485.132812 847.710938 481.058594 850.5 L 481.042969 850.5 C 477.296875 853.066406 473.386719 855.804688 469.8125 858.871094 C 466.746094 861.515625 463.90625 864.410156 461.789062 867.765625 C 458.972656 872.1875 457.683594 877.738281 458.183594 882.910156 C 458.472656 883.714844 458.667969 884.570312 458.761719 885.464844 C 458.789062 885.738281 458.800781 886.015625 458.816406 886.292969 C 460.039062 890.699219 463.0625 894.425781 468.351562 895.503906 C 474.335938 896.726562 479.570312 896.765625 484.199219 895.9375 C 485.332031 903.214844 486.765625 910.386719 488.488281 917.453125 Z M 436.71875 874.082031 C 437.636719 867.671875 439.847656 861.410156 443.28125 856 C 444.242188 854.476562 445.292969 853.015625 446.425781 851.59375 C 439.664062 850.789062 432.957031 849.59375 426.328125 848 C 425.429688 849.183594 424.601562 850.421875 423.894531 851.726562 C 422.761719 853.828125 421.917969 856.082031 422.011719 858.515625 C 422.195312 863.542969 425.878906 867.632812 430.21875 870.648438 C 432.230469 872.042969 434.441406 873.214844 436.71875 874.082031 Z M 481.058594 709.308594 L 481.058594 754.640625 C 472.808594 751.191406 465.101562 750.152344 459.722656 748.941406 C 453.949219 747.636719 449.804688 745.703125 447.398438 743.507812 C 444.464844 740.808594 443.070312 737.347656 444.121094 732.875 C 444.425781 731.625 445.070312 729.386719 447.488281 727.175781 C 447.921875 726.796875 448.910156 725.992188 450.59375 725.03125 C 452.644531 723.859375 457.105469 721.570312 463.207031 718.453125 C 468.140625 715.925781 474.242188 712.820312 481.058594 709.308594 Z M 730.679688 561.613281 C 730.679688 555.570312 735.597656 550.652344 741.648438 550.652344 C 747.699219 550.664062 752.605469 555.570312 752.605469 561.625 L 752.660156 572.058594 C 752.660156 572.074219 752.660156 572.085938 752.660156 572.101562 L 752.660156 583.601562 C 752.660156 589.640625 747.738281 594.5625 741.6875 594.5625 C 735.652344 594.5625 730.734375 589.640625 730.734375 583.601562 L 730.734375 572.125 Z M 639.371094 561.613281 C 639.371094 555.570312 644.289062 550.652344 650.339844 550.652344 C 656.390625 550.664062 661.296875 555.570312 661.296875 561.625 L 661.347656 572.058594 C 661.347656 572.074219 661.347656 572.085938 661.347656 572.101562 L 661.347656 583.601562 C 661.347656 589.640625 656.429688 594.5625 650.378906 594.5625 C 644.339844 594.5625 639.421875 589.640625 639.421875 583.601562 L 639.421875 572.125 Z M 706.597656 672.382812 C 703.164062 677.371094 696.335938 678.644531 691.351562 675.210938 C 686.367188 671.789062 685.105469 664.960938 688.523438 659.972656 C 690.863281 656.550781 693.585938 653.527344 696.601562 650.816406 C 700.78125 647.050781 705.519531 643.90625 710.503906 641.15625 C 721.210938 635.222656 732.71875 631.855469 744.464844 630.800781 C 756.027344 629.773438 767.824219 631 779.320312 634.273438 C 785.132812 635.933594 788.515625 642 786.859375 647.816406 C 785.199219 653.644531 779.125 657.027344 773.308594 655.367188 C 764.445312 652.84375 755.328125 651.855469 746.410156 652.644531 C 737.664062 653.433594 729.089844 655.921875 721.117188 660.34375 C 718.144531 661.988281 715.289062 663.789062 712.6875 665.894531 C 710.398438 667.777344 708.304688 669.882812 706.597656 672.382812 Z M 733.207031 531.753906 C 728.101562 535.019531 721.328125 533.503906 718.078125 528.398438 C 714.816406 523.308594 716.328125 516.515625 721.421875 513.265625 L 769.980469 484.027344 C 775.191406 480.960938 781.925781 482.683594 784.988281 487.894531 C 788.066406 493.105469 786.34375 499.84375 781.121094 502.921875 Z M 626.769531 508.609375 C 621.640625 505.382812 620.085938 498.621094 623.308594 493.488281 C 626.53125 488.355469 633.292969 486.816406 638.421875 490.027344 L 677.84375 513.859375 C 682.921875 517.148438 684.367188 523.9375 681.066406 529.015625 C 677.777344 534.097656 670.976562 535.542969 665.914062 532.253906 Z M 626.769531 508.609375 " fill-opacity="1" fill-rule="evenodd"/></g></svg>