<svg xmlns="http://www.w3.org/2000/svg" xmlns:xlink="http://www.w3.org/1999/xlink" width="2000" zoomAndPan="magnify" viewBox="0 0 1500 1499.999933" height="2000" preserveAspectRatio="xMidYMid meet" version="1.0"><defs><clipPath id="43f60a4ddc"><path d="M 307 227.542969 L 1200 227.542969 L 1200 1272 L 307 1272 Z M 307 227.542969 " clip-rule="nonzero"/></clipPath></defs><path fill="#fea855" d="M 467.863281 563.585938 L 467.863281 487.957031 C 467.863281 421.867188 494.121094 358.472656 540.871094 311.746094 C 587.617188 265.011719 651.015625 238.757812 717.132812 238.757812 L 717.671875 238.757812 C 783.296875 238.757812 846.230469 264.808594 892.640625 311.207031 C 939.046875 357.605469 965.117188 420.523438 965.117188 486.132812 L 965.117188 572.714844 C 980.109375 581.355469 993.84375 592.871094 1006.507812 603.382812 C 1032.53125 624.996094 1053.835938 651.199219 1074.773438 677.53125 C 1089.4375 695.988281 1104.230469 714.472656 1116.253906 734.839844 C 1128.566406 755.6875 1136.804688 778.988281 1147.582031 800.652344 C 1158.460938 822.492188 1173.164062 843.125 1181.867188 865.933594 C 1185.523438 875.515625 1189.648438 886.917969 1186.882812 897.269531 C 1183.4375 910.195312 1173.503906 913.800781 1164.054688 921.308594 C 1146.761719 935.050781 1130.566406 960.851562 1104.859375 951.246094 C 1088.246094 945.035156 1086.308594 929.066406 1079.527344 915.085938 C 1079.203125 914.429688 1078.625 916.253906 1078.15625 916.832031 C 1077.175781 918.039062 1076.183594 919.234375 1075.152344 920.402344 C 1071.90625 924.101562 1068.171875 927.292969 1063.644531 929.320312 C 1053.28125 933.972656 1044.601562 927.519531 1039.535156 918.355469 C 1028.128906 897.707031 1031.777344 871.417969 1022.570312 849.839844 C 1008.597656 817.148438 987.933594 787.5625 965.117188 760.050781 L 965.117188 816.558594 C 965.117188 882.15625 939.109375 945.0625 892.804688 991.507812 C 892.703125 991.609375 892.601562 991.710938 892.5 991.808594 C 889.558594 994.765625 886.539062 997.632812 883.457031 1000.410156 C 890.097656 1043.765625 894.765625 1087.34375 902.664062 1130.523438 C 905.316406 1145.097656 906.019531 1160.308594 910.160156 1174.554688 C 916.195312 1195.351562 930.609375 1207.550781 946.832031 1220.75 C 951.949219 1224.925781 963.570312 1232.972656 960.640625 1241.007812 C 951.210938 1266.746094 914.070312 1266.394531 891.960938 1265.3125 C 860.292969 1263.777344 828.886719 1258.019531 797.183594 1256.070312 C 754.558594 1253.46875 711.710938 1255.039062 669.0625 1252.863281 C 648.5625 1251.820312 629.121094 1258.8125 608.820312 1259.152344 C 600.019531 1259.304688 589.492188 1258.144531 583.757812 1250.640625 C 576.5625 1241.195312 583.503906 1228.648438 589.945312 1220.726562 C 602.859375 1204.871094 628.644531 1200.847656 631.347656 1178.351562 C 634.316406 1153.796875 622.429688 1126.839844 617.613281 1103.1875 C 613.375 1082.351562 610.671875 1061.117188 609.097656 1039.816406 C 603.652344 1037.199219 598.320312 1034.382812 593.113281 1031.390625 C 539.6875 1000.6875 498.726562 950.769531 479.648438 891.070312 C 463.875 894.550781 448.382812 895.054688 430.410156 893.648438 C 420.183594 892.84375 409.707031 892.527344 399.972656 888.929688 C 365.160156 876.070312 336.425781 840.222656 325.40625 805.679688 C 318.953125 785.460938 318.3125 765.257812 320.210938 744.285156 C 322.476562 719.109375 325.140625 692.304688 337.429688 669.621094 C 352.761719 641.328125 380.820312 615.113281 407.683594 597.660156 C 426.320312 585.566406 446.496094 572.527344 467.863281 563.585938 Z M 467.863281 563.585938 " fill-opacity="1" fill-rule="evenodd"/><g clip-path="url(#43f60a4ddc)"><path fill="#000000" d="M 424.421875 595.035156 C 389.886719 615.542969 362.671875 642.75 346.09375 675.027344 C 326.324219 713.554688 321.886719 759.246094 337.996094 809.027344 C 342.675781 823.484375 351.96875 836.648438 363.335938 847.839844 C 375.070312 859.394531 389.03125 868.851562 402.789062 875.402344 C 424.761719 885.839844 449.414062 886.71875 473.144531 881.6875 C 497.570312 876.507812 521.0625 865.078125 539.988281 850.859375 C 550.628906 842.847656 558.125 834.199219 563.371094 826.101562 C 573.984375 809.730469 575.242188 795.925781 575.242188 795.925781 C 575.53125 792.175781 577.808594 788.871094 581.203125 787.261719 C 581.203125 787.261719 585.179688 785.363281 589.328125 782.757812 C 591.554688 781.363281 593.90625 779.792969 595.363281 778.15625 C 596.988281 776.347656 597.476562 774.007812 597.011719 771.894531 C 596.574219 769.832031 595.238281 767.949219 593.113281 767.078125 C 587.628906 764.855469 581.503906 764.476562 575.253906 764.804688 C 564.164062 765.382812 552.703125 768.210938 542.65625 769.820312 C 536.945312 770.738281 531.5625 766.851562 530.644531 761.144531 C 529.726562 755.4375 533.613281 750.054688 539.324219 749.136719 C 544.078125 748.371094 549.121094 747.375 554.300781 746.445312 C 555.257812 745.96875 556.300781 745.628906 557.410156 745.464844 C 567.757812 743.867188 581.859375 739.140625 593.894531 732.878906 C 601.011719 729.183594 607.414062 725.007812 611.5625 720.492188 C 612.582031 719.398438 613.4375 718.292969 614.054688 717.164062 C 614.457031 716.433594 614.882812 715.753906 614.695312 715.011719 C 614.316406 713.542969 612.558594 713.300781 610.847656 712.710938 C 607.476562 711.542969 603.363281 711 598.960938 710.738281 C 589.742188 710.183594 579.40625 711 570.789062 711.84375 C 546.191406 714.257812 519.90625 718.949219 493.65625 727.398438 C 486.3125 729.761719 478.96875 732.414062 471.660156 735.40625 C 470.1875 736.574219 468.402344 737.355469 466.464844 737.59375 C 451.789062 743.929688 437.328125 751.628906 423.378906 760.96875 C 418.5625 764.1875 412.046875 762.894531 408.828125 758.089844 C 405.621094 753.285156 406.902344 746.773438 411.707031 743.554688 C 425.492188 734.324219 439.753906 726.582031 454.21875 720.078125 C 453.925781 718.660156 453.511719 717.25 452.945312 715.90625 C 451.789062 713.089844 450.003906 710.535156 447.363281 708.902344 C 445.1875 707.554688 442.734375 706.410156 440.21875 705.542969 C 437.703125 704.675781 435.113281 704.074219 432.621094 703.820312 C 426.875 703.242188 422.660156 698.113281 423.242188 692.355469 C 423.820312 686.59375 428.949219 682.394531 434.710938 682.960938 C 438.746094 683.363281 442.972656 684.320312 447.058594 685.726562 C 451.058594 687.125 454.945312 688.945312 458.390625 691.085938 C 464.832031 695.058594 469.472656 701.019531 472.316406 707.871094 C 472.878906 709.253906 473.382812 710.660156 473.796875 712.09375 C 478.277344 710.433594 482.753906 708.886719 487.242188 707.441406 C 514.972656 698.527344 542.757812 693.550781 568.738281 690.984375 C 582.953125 689.585938 601.289062 688.570312 613.992188 691.800781 C 625.261719 694.667969 632.730469 700.902344 635.007812 709.832031 C 637.648438 720.179688 631.925781 731.875 619.425781 741.53125 C 615.460938 744.597656 610.835938 747.527344 605.839844 750.21875 C 611.964844 754.292969 616.015625 760.566406 617.5 767.46875 C 619.296875 775.792969 617.386719 784.996094 610.984375 792.140625 C 608.835938 794.527344 605.765625 797.003906 602.507812 799.179688 C 599.992188 800.878906 597.390625 802.398438 595.226562 803.582031 C 593.753906 810.734375 590.070312 823.433594 580.964844 837.503906 C 574.589844 847.335938 565.507812 857.886719 552.578125 867.605469 C 531.324219 883.585938 504.914062 896.375 477.484375 902.183594 C 449.234375 908.167969 419.945312 906.761719 393.785156 894.324219 C 378.027344 886.832031 362.054688 875.992188 348.621094 862.777344 C 334.8125 849.175781 323.734375 833.042969 318.050781 815.476562 C 300.015625 759.738281 305.308594 708.585938 327.457031 665.457031 C 349.503906 622.496094 388.464844 587.414062 438.34375 563.976562 C 438.546875 563.890625 438.746094 563.800781 438.960938 563.710938 C 445.339844 560.457031 451.726562 557.363281 458.242188 554.570312 C 461.421875 553.214844 464.617188 551.929688 467.863281 550.722656 L 467.863281 573.253906 C 467.410156 573.445312 466.945312 573.644531 466.492188 573.835938 C 452.746094 579.71875 439.589844 587.035156 425.820312 594.40625 C 425.367188 594.65625 424.902344 594.859375 424.421875 595.035156 Z M 595.390625 1045.511719 C 569.945312 1032.046875 547.019531 1014.480469 527.449219 993.722656 C 523.1875 989.195312 523.402344 982.050781 527.929688 977.789062 C 532.457031 973.527344 539.585938 973.742188 543.851562 978.269531 C 565.949219 1001.730469 592.761719 1020.703125 622.769531 1033.679688 C 651.71875 1046.203125 683.652344 1053.144531 717.207031 1053.144531 C 748.585938 1053.144531 779.324219 1046.90625 807.757812 1035.140625 C 836.207031 1023.355469 862.34375 1006.03125 884.539062 983.851562 C 906.726562 961.660156 924.054688 935.53125 935.839844 907.085938 C 947.613281 878.660156 953.851562 847.929688 953.851562 816.558594 L 953.851562 767.457031 C 953.851562 767.433594 953.851562 767.40625 953.851562 767.382812 C 937.941406 750.320312 920.773438 735.28125 903.632812 725.183594 C 898.652344 722.242188 896.992188 715.816406 899.921875 710.835938 C 902.863281 705.859375 909.292969 704.199219 914.269531 707.128906 C 939.007812 721.699219 963.949219 745.605469 985.507812 771.707031 C 1007.792969 798.714844 1026.46875 828.039062 1037.699219 851.410156 C 1040.238281 856.71875 1042.527344 862.261719 1044.265625 867.957031 C 1046.101562 873.957031 1047.332031 880.128906 1047.660156 886.390625 C 1048 892.929688 1047.296875 900.601562 1048.25 907.691406 C 1048.679688 910.808594 1049.394531 913.828125 1051.320312 916.253906 C 1053.191406 918.617188 1055.960938 919.75 1058.714844 919.710938 C 1061.507812 919.660156 1064.296875 918.417969 1066.183594 915.976562 C 1067.519531 914.253906 1068.234375 912.167969 1068.664062 910.019531 C 1069.214844 907.238281 1069.253906 904.320312 1069.050781 901.59375 C 1068.613281 895.835938 1072.9375 890.792969 1078.699219 890.351562 C 1084.472656 889.914062 1089.515625 894.226562 1089.953125 899.996094 C 1090.332031 905 1090.105469 910.355469 1088.9375 915.4375 C 1092.355469 921.671875 1096.660156 930.414062 1102.417969 936.773438 C 1105.964844 940.699219 1110.089844 943.980469 1115.597656 941.890625 C 1116.832031 941.425781 1117.9375 940.796875 1119.007812 940.105469 C 1119.824219 939.566406 1120.617188 939 1121.410156 938.410156 C 1118.53125 935.253906 1117.785156 930.5 1119.875 926.503906 C 1122.554688 921.371094 1128.890625 919.398438 1134.023438 922.078125 C 1138.363281 924.351562 1142.5625 923.660156 1146.046875 921.472656 C 1148.359375 920.015625 1150.398438 918.027344 1152.121094 915.75 C 1147.859375 912.582031 1146.601562 906.625 1149.378906 901.96875 C 1152.347656 897.003906 1158.785156 895.382812 1163.742188 898.335938 C 1167.515625 900.585938 1170.683594 901.996094 1173.414062 902.449219 C 1174.59375 902.636719 1175.5625 902.738281 1176.117188 901.984375 C 1179.199219 897.785156 1178.808594 890.152344 1177.613281 881.5625 C 1176.394531 872.925781 1173.628906 863.417969 1170.632812 854.820312 C 1166.382812 842.621094 1161.640625 832.210938 1159.832031 828.390625 C 1136.890625 780.28125 1091.929688 701.484375 1034.96875 639.417969 C 999.113281 600.351562 958.566406 567.835938 915.617188 554.734375 C 910.082031 553.039062 906.964844 547.179688 908.648438 541.644531 C 910.347656 536.125 916.207031 532.996094 921.742188 534.691406 C 932.582031 538 943.296875 542.425781 953.851562 547.820312 L 953.851562 486.132812 C 953.851562 454.824219 947.625 424.15625 935.878906 395.777344 C 924.117188 367.398438 906.824219 341.308594 884.679688 319.179688 C 862.53125 297.035156 836.433594 279.746094 808.050781 267.992188 C 779.675781 256.234375 748.988281 250.011719 717.671875 250.011719 L 717.132812 250.011719 C 710.90625 250.011719 705.863281 244.96875 705.863281 238.757812 C 705.863281 232.535156 710.90625 227.492188 717.132812 227.492188 L 717.671875 227.492188 C 751.980469 227.492188 785.585938 234.304688 816.675781 247.183594 C 847.765625 260.046875 876.351562 278.992188 900.613281 303.25 C 924.875 327.503906 943.8125 356.070312 956.691406 387.152344 C 969.570312 418.246094 976.386719 451.832031 976.386719 486.132812 L 976.386719 560.882812 C 1002.535156 577.84375 1027.4375 600.214844 1050.414062 625.25 C 1108.933594 689.007812 1155.175781 769.945312 1178.746094 819.375 C 1180.996094 824.101562 1187.410156 838.195312 1192.40625 853.839844 C 1195.019531 862.050781 1197.246094 870.675781 1198.367188 878.660156 C 1199.988281 890.1875 1199.347656 900.574219 1196.503906 907.90625 C 1194.039062 914.28125 1189.988281 918.820312 1184.695312 921.347656 C 1181.324219 922.945312 1177.148438 923.796875 1172.15625 923.320312 C 1167.199219 931.757812 1159.792969 938.863281 1151.277344 942.21875 C 1149.328125 943 1147.328125 943.589844 1145.28125 943.980469 C 1144.296875 945.3125 1143.253906 946.605469 1142.160156 947.839844 C 1140.3125 949.914062 1138.289062 951.839844 1136.113281 953.535156 C 1133.820312 955.320312 1131.546875 957.03125 1129.117188 958.5 C 1127.195312 959.660156 1125.183594 960.675781 1123.007812 961.496094 C 1110.820312 966.109375 1100.542969 962.890625 1091.929688 955.722656 C 1085.589844 950.453125 1080.308594 942.609375 1075.996094 935.242188 C 1070.914062 938.761719 1064.976562 940.570312 1059.027344 940.660156 C 1050.023438 940.796875 1041.019531 937 1034.882812 929.269531 C 1031.585938 925.09375 1029.511719 920.277344 1028.316406 915.097656 C 1026.265625 906.195312 1027.171875 895.984375 1026.71875 887.484375 C 1026.492188 882.933594 1025.5625 878.445312 1024.230469 874.082031 C 1022.796875 869.390625 1020.894531 864.851562 1018.796875 860.476562 C 1009.375 840.851562 994.371094 816.835938 976.386719 793.824219 L 976.386719 816.558594 C 976.386719 850.910156 969.558594 884.570312 956.65625 915.714844 C 943.75 946.859375 924.773438 975.476562 900.472656 999.78125 C 898.601562 1001.640625 896.703125 1003.476562 894.789062 1005.289062 C 896.011719 1013.5625 897.40625 1022.617188 898.902344 1032.160156 C 909.355469 1098.863281 925.101562 1188.234375 926.570312 1196.585938 C 928.003906 1197.453125 931.878906 1199.742188 934.820312 1201.175781 C 943.070312 1205.171875 953.132812 1210.050781 961.410156 1217.722656 C 969.972656 1225.65625 976.753906 1236.394531 978.386719 1251.859375 C 979.054688 1258.273438 975.015625 1265.261719 964.78125 1268.417969 C 952.65625 1272.140625 928.582031 1271.585938 925.855469 1271.511719 L 795.320312 1271.023438 C 759.402344 1271.121094 627.6875 1271.511719 627.710938 1271.511719 C 624.96875 1271.585938 599.816406 1272.203125 586.835938 1268.46875 C 577.179688 1265.691406 572.652344 1259.503906 572.261719 1253.832031 C 570.941406 1241.863281 574.183594 1231.980469 579.820312 1223.605469 C 588.308594 1211.019531 602.910156 1202.207031 613.574219 1195.101562 C 615.878906 1193.566406 618.59375 1191.34375 619.988281 1190.171875 C 617.210938 1174.355469 604.898438 1103.980469 595.390625 1045.511719 Z M 876.027344 1021.320312 C 857.703125 1035.527344 837.628906 1047.148438 816.386719 1055.949219 C 794.78125 1064.902344 771.953125 1070.921875 748.535156 1073.765625 L 783.296875 1250.097656 L 787.359375 1250.085938 C 787.699219 1250.050781 788.050781 1250.035156 788.417969 1250.035156 L 795.320312 1250.0625 L 804.210938 1250.035156 C 804.617188 1250.035156 805.003906 1250.0625 805.394531 1250.097656 L 926.042969 1250.550781 C 926.179688 1250.550781 926.308594 1250.550781 926.433594 1250.566406 C 926.433594 1250.566406 938.445312 1251.054688 949.210938 1250 C 951.523438 1249.773438 954.390625 1249.195312 956.578125 1248.703125 C 954.84375 1241.988281 951.359375 1236.984375 947.148438 1233.085938 C 937.046875 1223.71875 923.578125 1219.632812 916.308594 1215.042969 C 909.582031 1210.792969 906.324219 1205.636719 905.921875 1200.195312 C 904.410156 1191.632812 888.664062 1102.183594 878.203125 1035.402344 C 877.433594 1030.585938 876.71875 1025.871094 876.027344 1021.320312 Z M 727.496094 1075.460938 C 724.074219 1075.601562 720.640625 1075.664062 717.207031 1075.664062 C 682.230469 1075.664062 648.867188 1068.773438 618.390625 1056.289062 C 628.78125 1119.371094 641.207031 1189.78125 641.207031 1189.78125 C 641.308594 1190.386719 641.359375 1191.003906 641.359375 1191.605469 C 641.359375 1197 637.910156 1203.222656 630.429688 1208.871094 C 621.675781 1215.484375 605.601562 1222.863281 597.203125 1235.324219 C 594.722656 1239.007812 593.074219 1243.234375 592.949219 1248.175781 C 595.476562 1248.792969 599.667969 1249.710938 602.871094 1250 C 614.378906 1251.066406 627.109375 1250.566406 627.109375 1250.566406 C 627.246094 1250.550781 627.371094 1250.550781 627.5 1250.550781 L 761.957031 1250.160156 Z M 691.765625 471.371094 C 685.980469 471.433594 681.226562 466.808594 681.164062 461.023438 C 681.085938 455.238281 685.726562 450.488281 691.511719 450.410156 L 722.3125 450.035156 C 728.097656 449.957031 732.851562 454.597656 732.929688 460.382812 C 733.003906 466.164062 728.363281 470.917969 722.578125 470.996094 Z M 589.140625 530.519531 C 583.355469 530.582031 578.601562 525.953125 578.523438 520.171875 C 578.460938 514.386719 583.089844 509.632812 588.875 509.558594 L 655.570312 508.742188 C 661.355469 508.664062 666.109375 513.304688 666.183594 519.089844 C 666.246094 524.871094 661.605469 529.625 655.832031 529.6875 Z M 556.300781 471.371094 C 550.515625 471.433594 545.761719 466.808594 545.699219 461.023438 C 545.625 455.238281 550.265625 450.488281 556.050781 450.410156 L 577.054688 450.160156 C 582.839844 450.082031 587.59375 454.722656 587.667969 460.507812 C 587.730469 466.292969 583.101562 471.042969 577.316406 471.105469 Z M 556.300781 471.371094 " fill-opacity="1" fill-rule="evenodd"/></g></svg>